<svg xmlns="http://www.w3.org/2000/svg" xmlns:xlink="http://www.w3.org/1999/xlink" width="183" height="234" viewBox="0 0 183 234">
  <defs>
    <clipPath id="clip-path">
      <rect id="Rectangle" width="183" height="234" rx="10" transform="translate(541 168)" fill="#001a03"/>
    </clipPath>
  </defs>
  <g id="Mask_Group_132" data-name="Mask Group 132" transform="translate(-541 -168)" clip-path="url(#clip-path)">
    <g id="Group_36289" data-name="Group 36289" transform="translate(541.008 237.265)">
      <g id="Group_36281" data-name="Group 36281" transform="translate(0 93.757)">
        <g id="Group_36280" data-name="Group 36280" transform="translate(71.358 41.167)">
          <path id="Path_12527" data-name="Path 12527" d="M6.421,306.732l-121.582,70.2V363.87l121.582-70.2Z" transform="translate(115.161 -293.675)" fill="#bbddea"/>
          <path id="Path_12528" data-name="Path 12528" d="M-114.117,375.222V363.828L4.688,295.236v11.394Z" transform="translate(115.505 -293.16)" fill="#83aebf"/>
          <path id="Path_12529" data-name="Path 12529" d="M-34.721,312.206V307.02l12.447-7.186v5.186Z" transform="translate(141.727 -291.641)" fill="#cbdede"/>
          <path id="Path_12530" data-name="Path 12530" d="M-44.587,317.9v-5.186l12.447-7.186v5.186Z" transform="translate(138.469 -289.76)" fill="#cbdede"/>
          <path id="Path_12531" data-name="Path 12531" d="M-54.453,323.6v-5.186l12.447-7.186v5.186Z" transform="translate(135.21 -287.879)" fill="#cbdede"/>
          <path id="Path_12532" data-name="Path 12532" d="M-64.31,329.289V324.1l12.447-7.186V322.1Z" transform="translate(131.955 -285.999)" fill="#cbdede"/>
          <path id="Path_12533" data-name="Path 12533" d="M-74.176,334.985V329.8l12.447-7.186V327.8Z" transform="translate(128.696 -284.118)" fill="#cbdede"/>
          <path id="Path_12534" data-name="Path 12534" d="M-84.042,340.681V335.5L-71.6,328.31v5.185Z" transform="translate(125.438 -282.237)" fill="#cbdede"/>
          <path id="Path_12535" data-name="Path 12535" d="M-93.908,346.377v-5.185l12.447-7.186v5.185Z" transform="translate(122.18 -280.356)" fill="#cbdede"/>
          <path id="Path_12536" data-name="Path 12536" d="M-103.765,352.069v-5.186l12.447-7.186v5.186Z" transform="translate(118.924 -278.476)" fill="#cbdede"/>
          <path id="Path_12537" data-name="Path 12537" d="M-113.631,357.765v-5.186l12.447-7.186v5.186Z" transform="translate(115.666 -276.595)" fill="#cbdede"/>
          <path id="Path_12538" data-name="Path 12538" d="M-34.721,308.3v-5.173l12.447-7.186v5.173Z" transform="translate(141.727 -292.925)" fill="#eef1f1"/>
          <path id="Path_12539" data-name="Path 12539" d="M-44.587,314v-5.173l12.447-7.186v5.173Z" transform="translate(138.469 -291.044)" fill="#eef1f1"/>
          <path id="Path_12540" data-name="Path 12540" d="M-54.453,319.7v-5.173l12.447-7.186v5.173Z" transform="translate(135.21 -289.163)" fill="#eef1f1"/>
          <path id="Path_12541" data-name="Path 12541" d="M-64.31,325.388v-5.173l12.447-7.186V318.2Z" transform="translate(131.955 -287.283)" fill="#eef1f1"/>
          <path id="Path_12542" data-name="Path 12542" d="M-74.176,331.084v-5.173l12.447-7.186V323.9Z" transform="translate(128.696 -285.402)" fill="#eef1f1"/>
          <path id="Path_12543" data-name="Path 12543" d="M-84.042,336.78v-5.173l12.447-7.186v5.173Z" transform="translate(125.438 -283.521)" fill="#eef1f1"/>
          <path id="Path_12544" data-name="Path 12544" d="M-93.908,342.476V337.3l12.447-7.186v5.173Z" transform="translate(122.18 -281.64)" fill="#eef1f1"/>
          <path id="Path_12545" data-name="Path 12545" d="M-103.765,348.167v-5.173l12.447-7.186v5.173Z" transform="translate(118.924 -279.76)" fill="#eef1f1"/>
          <path id="Path_12546" data-name="Path 12546" d="M-113.631,353.863V348.69l12.447-7.186v5.173Z" transform="translate(115.666 -277.879)" fill="#eef1f1"/>
        </g>
        <path id="Path_12547" data-name="Path 12547" d="M-47.221,262.729,24.137,303.9l-121.582,70.2L-168.8,332.924Z" transform="translate(168.803 -262.729)" fill="#cbdede"/>
        <path id="Path_12548" data-name="Path 12548" d="M-168.8,315.5l71.358,41.167v13.057L-168.8,328.554Z" transform="translate(168.803 -245.302)" fill="#7ba7b0"/>
      </g>
      <g id="Group_36283" data-name="Group 36283" transform="translate(13.3 88.85)">
        <path id="Path_12549" data-name="Path 12549" d="M-49.586,259.04l60.464,34.909L-98.34,357.007-158.8,322.1Z" transform="translate(158.805 -259.04)" fill="#cbdede"/>
        <g id="Group_36282" data-name="Group 36282" transform="translate(60.464 34.909)">
          <path id="Path_12550" data-name="Path 12550" d="M-4.133,297.392-113.352,360.45V348.34L-4.133,285.282Z" transform="translate(113.352 -285.282)" fill="#bbddea"/>
          <path id="Path_12551" data-name="Path 12551" d="M-112.688,358.549V348.465L-5.236,286.427v10.084Z" transform="translate(113.571 -284.904)" fill="#83aebf"/>
          <path id="Path_12552" data-name="Path 12552" d="M-39.927,302.026v-9.172l10.2-5.889v9.172Z" transform="translate(137.602 -284.727)" fill="#a9c8cd"/>
          <path id="Path_12553" data-name="Path 12553" d="M-39.927,297.433v-4.579l10.2-5.889v4.579Z" transform="translate(137.602 -284.727)" fill="#e2f1f2"/>
          <path id="Path_12554" data-name="Path 12554" d="M-47.98,306.675V297.5l10.2-5.889v9.172Z" transform="translate(134.942 -283.191)" fill="#a9c8cd"/>
          <path id="Path_12555" data-name="Path 12555" d="M-56.04,311.328v-9.171l10.2-5.889v9.171Z" transform="translate(132.28 -281.654)" fill="#a9c8cd"/>
          <path id="Path_12556" data-name="Path 12556" d="M-64.093,315.978v-9.171l10.2-5.889v9.171Z" transform="translate(129.62 -280.119)" fill="#a9c8cd"/>
          <path id="Path_12557" data-name="Path 12557" d="M-72.153,320.631V311.46l10.2-5.889v9.172Z" transform="translate(126.959 -278.582)" fill="#a9c8cd"/>
          <path id="Path_12558" data-name="Path 12558" d="M-80.206,325.281v-9.172l10.2-5.889v9.171Z" transform="translate(124.299 -277.046)" fill="#a9c8cd"/>
          <path id="Path_12559" data-name="Path 12559" d="M-88.266,329.934v-9.171l10.2-5.889v9.171Z" transform="translate(121.637 -275.509)" fill="#a9c8cd"/>
          <path id="Path_12560" data-name="Path 12560" d="M-96.319,334.583v-9.172l10.2-5.889v9.171Z" transform="translate(118.977 -273.974)" fill="#a9c8cd"/>
          <path id="Path_12561" data-name="Path 12561" d="M-104.379,339.237v-9.172l10.2-5.889v9.172Z" transform="translate(116.315 -272.437)" fill="#a9c8cd"/>
          <path id="Path_12562" data-name="Path 12562" d="M-112.432,343.886v-9.172l10.2-5.889V338Z" transform="translate(113.656 -270.901)" fill="#a9c8cd"/>
          <path id="Path_12563" data-name="Path 12563" d="M-37.779,296.2l-10.2,5.889V297.5l10.2-5.889Z" transform="translate(134.942 -283.191)" fill="#e2f1f2"/>
          <path id="Path_12564" data-name="Path 12564" d="M-45.839,300.858l-10.2,5.889v-4.591l10.2-5.889Z" transform="translate(132.28 -281.654)" fill="#e2f1f2"/>
          <path id="Path_12565" data-name="Path 12565" d="M-53.892,305.508l-10.2,5.889v-4.591l10.2-5.889Z" transform="translate(129.62 -280.119)" fill="#e2f1f2"/>
          <path id="Path_12566" data-name="Path 12566" d="M-61.952,310.161l-10.2,5.889V311.46l10.2-5.889Z" transform="translate(126.959 -278.582)" fill="#e2f1f2"/>
          <path id="Path_12567" data-name="Path 12567" d="M-70.005,314.811l-10.2,5.889v-4.591l10.2-5.889Z" transform="translate(124.299 -277.046)" fill="#e2f1f2"/>
          <path id="Path_12568" data-name="Path 12568" d="M-78.065,319.464l-10.2,5.889v-4.591l10.2-5.889Z" transform="translate(121.637 -275.509)" fill="#e2f1f2"/>
          <path id="Path_12569" data-name="Path 12569" d="M-86.118,324.114-96.319,330v-4.591l10.2-5.889Z" transform="translate(118.977 -273.974)" fill="#e2f1f2"/>
          <path id="Path_12570" data-name="Path 12570" d="M-94.178,328.767l-10.2,5.889v-4.591l10.2-5.889Z" transform="translate(116.315 -272.437)" fill="#e2f1f2"/>
          <path id="Path_12571" data-name="Path 12571" d="M-112.432,339.306v-4.591l10.2-5.889v4.591Z" transform="translate(113.656 -270.901)" fill="#e2f1f2"/>
        </g>
        <path id="Path_12572" data-name="Path 12572" d="M-158.8,306.442l60.464,34.909v12.11L-158.8,318.552Z" transform="translate(158.805 -243.385)" fill="#7ba7b0"/>
      </g>
      <g id="Group_36284" data-name="Group 36284" transform="translate(90.977 46.163)">
        <path id="Path_12573" data-name="Path 12573" d="M-63.467,270.409l-21.091,12.177v6.081l21.091-12.177Z" transform="translate(105.649 -212.599)" fill="#bbddea"/>
        <path id="Path_12574" data-name="Path 12574" d="M-100.413,270.409l21.091,12.177v6.081l-21.091-12.177Z" transform="translate(100.413 -212.599)" fill="#83aebf"/>
        <path id="Path_12575" data-name="Path 12575" d="M-79.322,261.255l21.091,12.177-21.091,12.177-21.091-12.177Z" transform="translate(100.413 -215.622)" fill="#fafafa"/>
        <path id="Path_12576" data-name="Path 12576" d="M-74.167,275.516v4.662l-9.927,5.731v-4.662Z" transform="translate(105.803 -210.912)" fill="#cbdede"/>
        <path id="Path_12577" data-name="Path 12577" d="M-74.459,283.881l-10.1,5.831V238.364l10.1-5.831Z" transform="translate(105.649 -225.108)" fill="#e2f1f2"/>
        <path id="Path_12578" data-name="Path 12578" d="M-92.15,283.881l10.1,5.831V238.364l-10.1-5.831Z" transform="translate(103.142 -225.108)" fill="#83aebf"/>
        <path id="Path_12579" data-name="Path 12579" d="M-66.7,271.208v4.662l-9.927,5.731v-4.662Z" transform="translate(108.267 -212.335)" fill="#eef1f1"/>
        <path id="Path_12580" data-name="Path 12580" d="M-100.413,226.951l21.091,12.177v6.081l-21.091-12.177Z" transform="translate(100.413 -226.951)" fill="#528da4"/>
        <path id="Path_12581" data-name="Path 12581" d="M-63.467,226.951l-21.091,12.177v6.081l21.091-12.177Z" transform="translate(105.649 -226.951)" fill="#bbddea"/>
        <path id="Path_12582" data-name="Path 12582" d="M-74.167,232.061v4.662l-9.927,5.731v-4.662Z" transform="translate(105.803 -225.263)" fill="#cbdede"/>
        <path id="Path_12583" data-name="Path 12583" d="M-66.7,227.753v4.662l-9.927,5.731v-4.662Z" transform="translate(108.267 -226.686)" fill="#eef1f1"/>
      </g>
      <g id="Group_36285" data-name="Group 36285" transform="translate(130.571 65.482)">
        <path id="Path_12584" data-name="Path 12584" d="M-70.648,284.931l21.091,12.177v6.081l-21.091-12.177Z" transform="translate(70.648 -227.121)" fill="#83aebf"/>
        <path id="Path_12585" data-name="Path 12585" d="M-49.557,275.777l21.091,12.177-21.091,12.177-21.091-12.177Z" transform="translate(70.648 -230.144)" fill="#fafafa"/>
        <path id="Path_12586" data-name="Path 12586" d="M-44.695,298.4l-10.1,5.831V252.886l10.1-5.831Z" transform="translate(75.885 -239.63)" fill="#e2f1f2"/>
        <path id="Path_12587" data-name="Path 12587" d="M-62.385,298.4l10.1,5.831V252.886l-10.1-5.831Z" transform="translate(73.377 -239.63)" fill="#83aebf"/>
        <path id="Path_12588" data-name="Path 12588" d="M-70.648,241.473l21.091,12.177v6.081l-21.091-12.177Z" transform="translate(70.648 -241.473)" fill="#528da4"/>
        <path id="Path_12589" data-name="Path 12589" d="M-33.7,284.931l-21.091,12.177v6.081L-33.7,291.012Z" transform="translate(75.885 -227.121)" fill="#bbddea"/>
        <path id="Path_12590" data-name="Path 12590" d="M-43.925,289.831v4.662l-10.4,6.007v-4.662Z" transform="translate(76.038 -225.502)" fill="#cbdede"/>
        <path id="Path_12591" data-name="Path 12591" d="M-33.7,241.473-54.794,253.65v6.081L-33.7,247.554Z" transform="translate(75.885 -241.473)" fill="#bbddea"/>
        <path id="Path_12592" data-name="Path 12592" d="M-43.925,246.376v4.662l-10.4,6.007v-4.662Z" transform="translate(76.038 -239.854)" fill="#cbdede"/>
        <path id="Path_12593" data-name="Path 12593" d="M-37.058,242.275v4.662l-9.45,5.456v-4.662Z" transform="translate(78.621 -241.208)" fill="#eef1f1"/>
        <path id="Path_12594" data-name="Path 12594" d="M-37.058,285.73v4.662l-9.45,5.456v-4.662Z" transform="translate(78.621 -226.857)" fill="#eef1f1"/>
      </g>
      <g id="Group_36286" data-name="Group 36286" transform="translate(62.904 104.55)">
        <path id="Path_12595" data-name="Path 12595" d="M-84.571,314.3l-21.091,12.177v6.081l21.091-12.177Z" transform="translate(126.752 -256.489)" fill="#bbddea"/>
        <path id="Path_12596" data-name="Path 12596" d="M-121.516,314.3l21.091,12.177v6.081l-21.091-12.177Z" transform="translate(121.516 -256.489)" fill="#83aebf"/>
        <path id="Path_12597" data-name="Path 12597" d="M-100.425,305.146l21.091,12.177L-100.425,329.5l-21.091-12.177Z" transform="translate(121.516 -259.512)" fill="#fafafa"/>
        <path id="Path_12598" data-name="Path 12598" d="M-95.27,319.407v4.662L-105.2,329.8v-4.662Z" transform="translate(126.906 -254.802)" fill="#cbdede"/>
        <path id="Path_12599" data-name="Path 12599" d="M-95.563,327.772l-10.1,5.831V282.255l10.1-5.831Z" transform="translate(126.752 -268.998)" fill="#e2f1f2"/>
        <path id="Path_12600" data-name="Path 12600" d="M-113.253,327.772l10.1,5.831V282.255l-10.1-5.831Z" transform="translate(124.245 -268.998)" fill="#83aebf"/>
        <path id="Path_12601" data-name="Path 12601" d="M-87.808,315.1v4.662l-9.927,5.731V320.83Z" transform="translate(129.37 -256.225)" fill="#eef1f1"/>
        <path id="Path_12602" data-name="Path 12602" d="M-121.516,270.842l21.091,12.177V289.1l-21.091-12.177Z" transform="translate(121.516 -270.842)" fill="#528da4"/>
        <path id="Path_12603" data-name="Path 12603" d="M-84.571,270.842l-21.091,12.177V289.1l21.091-12.177Z" transform="translate(126.752 -270.842)" fill="#bbddea"/>
        <path id="Path_12604" data-name="Path 12604" d="M-95.27,275.952v4.662l-9.927,5.731v-4.662Z" transform="translate(126.906 -269.154)" fill="#cbdede"/>
        <path id="Path_12605" data-name="Path 12605" d="M-87.808,271.644v4.662l-9.927,5.731v-4.662Z" transform="translate(129.37 -270.577)" fill="#eef1f1"/>
      </g>
      <g id="Group_36287" data-name="Group 36287" transform="translate(22.444 83.127)">
        <path id="Path_12606" data-name="Path 12606" d="M-114.985,298.2l-21.091,12.177v6.081l21.091-12.177Z" transform="translate(157.167 -240.385)" fill="#bbddea"/>
        <path id="Path_12607" data-name="Path 12607" d="M-151.931,298.2l21.091,12.177v6.081l-21.091-12.177Z" transform="translate(151.931 -240.385)" fill="#83aebf"/>
        <path id="Path_12608" data-name="Path 12608" d="M-130.84,289.042l21.091,12.177L-130.84,313.4l-21.091-12.177Z" transform="translate(151.931 -243.408)" fill="#fafafa"/>
        <path id="Path_12609" data-name="Path 12609" d="M-125.685,303.3v4.662l-9.927,5.731v-4.662Z" transform="translate(157.32 -238.698)" fill="#cbdede"/>
        <path id="Path_12610" data-name="Path 12610" d="M-125.977,311.668l-10.1,5.831V266.151l10.1-5.831Z" transform="translate(157.167 -252.894)" fill="#e2f1f2"/>
        <path id="Path_12611" data-name="Path 12611" d="M-143.668,311.668l10.1,5.831V266.151l-10.1-5.831Z" transform="translate(154.66 -252.894)" fill="#83aebf"/>
        <path id="Path_12612" data-name="Path 12612" d="M-118.222,298.994v4.662l-9.927,5.731v-4.662Z" transform="translate(159.785 -240.121)" fill="#eef1f1"/>
        <path id="Path_12613" data-name="Path 12613" d="M-151.931,254.738l21.091,12.177V273l-21.091-12.177Z" transform="translate(151.931 -254.738)" fill="#528da4"/>
        <path id="Path_12614" data-name="Path 12614" d="M-114.985,254.738l-21.091,12.177V273l21.091-12.177Z" transform="translate(157.167 -254.738)" fill="#bbddea"/>
        <path id="Path_12615" data-name="Path 12615" d="M-125.685,259.848v4.662l-9.927,5.731v-4.662Z" transform="translate(157.32 -253.05)" fill="#cbdede"/>
        <path id="Path_12616" data-name="Path 12616" d="M-118.222,255.539V260.2l-9.927,5.731v-4.662Z" transform="translate(159.785 -254.473)" fill="#eef1f1"/>
      </g>
      <path id="Path_12617" data-name="Path 12617" d="M-17.694,233v10.388L-72.3,274.919V218.491Z" transform="translate(200.674 -183.582)" fill="#bbddea"/>
      <path id="Path_12618" data-name="Path 12618" d="M-19.46,234.434v7.327L-72.3,272.268V220.38Z" transform="translate(200.674 -182.958)" fill="#eef1f1"/>
      <path id="Path_12619" data-name="Path 12619" d="M-32.31,238.574-72.3,261.662V227.945Z" transform="translate(200.674 -180.459)" fill="#8fb5bc"/>
      <path id="Path_12620" data-name="Path 12620" d="M-111.583,296.072V303.4l52.84-30.507v2.027l-54.607,31.527V296.058l54.607-77.567V221Z" transform="translate(187.117 -183.582)" fill="#f7fafa"/>
      <path id="Path_12621" data-name="Path 12621" d="M-59.182,230.444l-39.99,56.805,39.99-23.088v8.107l-52.84,30.507v-7.327l52.84-75.068Z" transform="translate(187.556 -182.958)" fill="#cbdede"/>
      <path id="Path_12622" data-name="Path 12622" d="M-62.372,227.945v33.717l-39.99,23.088Z" transform="translate(190.746 -180.459)" fill="#7ba7b0"/>
      <path id="Path_12623" data-name="Path 12623" d="M-36.664,240.177-72.3,260.751V230.7Z" transform="translate(200.674 -179.549)" fill="#c0d8db"/>
      <path id="Path_12624" data-name="Path 12624" d="M-63.453,230.7v30.048l-35.636,20.574Z" transform="translate(191.827 -179.549)" fill="#a9c8cd"/>
      <path id="Path_12625" data-name="Path 12625" d="M-83.392,263.625V254.5l2.936-1.695a6.383,6.383,0,0,1,1.409-.64,1.756,1.756,0,0,1,.947-.052.837.837,0,0,1,.535.466,2.175,2.175,0,0,1,.168.919,2.717,2.717,0,0,1-.078.637,3.347,3.347,0,0,1-.242.677,4.152,4.152,0,0,1-.427.7,6.534,6.534,0,0,1-.623.713,1.343,1.343,0,0,1,1.172.04,1.222,1.222,0,0,1,.38,1.046,3.936,3.936,0,0,1-.2,1.2,5.028,5.028,0,0,1-.577,1.207,6.314,6.314,0,0,1-.942,1.121,6.565,6.565,0,0,1-1.276.947Zm1.844-6.359.974-.561a4.77,4.77,0,0,0,.553-.372,2.481,2.481,0,0,0,.423-.42,1.722,1.722,0,0,0,.266-.494,1.863,1.863,0,0,0,.092-.6,1.318,1.318,0,0,0-.073-.492.353.353,0,0,0-.221-.216.634.634,0,0,0-.376.028,2.912,2.912,0,0,0-.545.257l-1.092.631Zm0,3.71,1.3-.75a2.667,2.667,0,0,0,.6-.452,2.245,2.245,0,0,0,.363-.487,1.8,1.8,0,0,0,.178-.487,2.509,2.509,0,0,0,.047-.464,1.387,1.387,0,0,0-.055-.419.342.342,0,0,0-.2-.225.594.594,0,0,0-.367,0,2.357,2.357,0,0,0-.58.258l-1.29.745Zm4.412-.963,3.08-10.9,1.885-1.088,3.08,7.343-1.433.827a.524.524,0,0,1-.386.094.367.367,0,0,1-.222-.206l-.468-1.328-3.026,1.748-.47,1.869a1.508,1.508,0,0,1-.213.443,1.147,1.147,0,0,1-.383.363Zm2.936-5.18,2.172-1.254-.729-2.079c-.053-.128-.112-.281-.176-.458s-.126-.375-.186-.592q-.086.427-.177.807c-.06.253-.117.475-.17.664Zm5.732.176v-9.122l.975-.563a2.047,2.047,0,0,1,.2-.105.441.441,0,0,1,.144-.037.274.274,0,0,1,.125.025.71.71,0,0,1,.137.09l3.777,3.3c-.015-.168-.025-.33-.032-.491s-.011-.314-.011-.456v-4.829l1.626-.939V251l-.96.555a.819.819,0,0,1-.36.128.434.434,0,0,1-.285-.1l-3.754-3.267q.016.229.028.447c.009.146.015.285.015.42v4.891Zm8.476-4.894v-9.122l1.844-1.064v3.656l.3-.172a1.363,1.363,0,0,0,.587-.629l1.791-3.981a2.164,2.164,0,0,1,.343-.525,1.969,1.969,0,0,1,.456-.354l1.6-.926-2.36,5.03a3.944,3.944,0,0,1-.539.857.736.736,0,0,1,.376.028.834.834,0,0,1,.317.23l2.4,2.864-1.651.954a1.656,1.656,0,0,1-.27.13.484.484,0,0,1-.192.033.271.271,0,0,1-.141-.041.651.651,0,0,1-.117-.093l-1.8-2.139a.257.257,0,0,0-.245-.106,1.142,1.142,0,0,0-.41.168l-.448.258v3.882Z" transform="translate(197.011 -177.47)" fill="#8ab4c7"/>
      <g id="Group_36288" data-name="Group 36288" transform="translate(113.619 59.527)">
        <path id="Path_12626" data-name="Path 12626" d="M-71,243.878a.441.441,0,0,1,.144-.037.274.274,0,0,1,.125.025.707.707,0,0,1,.137.09l3.777,3.3c-.015-.168-.025-.33-.032-.491,0-.083,0-.154-.005-.232l-3.739-3.264a.708.708,0,0,0-.137-.09.274.274,0,0,0-.125-.025.441.441,0,0,0-.144.037,2.048,2.048,0,0,0-.2.105l-.975.563v.69l.975-.563C-71.117,243.936-71.049,243.9-71,243.878Z" transform="translate(87.097 -234.965)" fill="#6392a3"/>
        <path id="Path_12627" data-name="Path 12627" d="M-63.957,239.2l-1.843,1.064v.691l1.843-1.064Z" transform="translate(89.202 -236.269)" fill="#6392a3"/>
        <path id="Path_12628" data-name="Path 12628" d="M-79.047,249.116a1.756,1.756,0,0,1,.947-.052.837.837,0,0,1,.535.466,1.852,1.852,0,0,1,.134.507c.009-.092.033-.189.033-.278a2.175,2.175,0,0,0-.168-.919.837.837,0,0,0-.535-.466,1.756,1.756,0,0,0-.947.052,6.385,6.385,0,0,0-1.409.64l-2.936,1.695v.69l2.936-1.693A6.4,6.4,0,0,1-79.047,249.116Z" transform="translate(83.392 -233.254)" fill="#6392a3"/>
        <path id="Path_12629" data-name="Path 12629" d="M-81.032,252.887a4.6,4.6,0,0,0,.553-.372,2.48,2.48,0,0,0,.423-.42,1.723,1.723,0,0,0,.266-.494,1.858,1.858,0,0,0,.092-.6,1.345,1.345,0,0,0-.052-.351,2.008,2.008,0,0,1-.04.265,1.723,1.723,0,0,1-.266.494,2.483,2.483,0,0,1-.423.42,4.764,4.764,0,0,1-.553.372l-.974.561v.692Z" transform="translate(83.85 -232.489)" fill="#6392a3"/>
        <path id="Path_12630" data-name="Path 12630" d="M-62.084,241.684a.7.7,0,0,0-.693-.258,4.048,4.048,0,0,0,.359.609c.076.1.234.229.334.339l2.013,2.4.39-.225Z" transform="translate(90.2 -235.54)" fill="#6392a3"/>
        <path id="Path_12631" data-name="Path 12631" d="M-64.415,244.275l.3-.172a1.363,1.363,0,0,0,.587-.629l1.791-3.982a2.164,2.164,0,0,1,.343-.525,1.931,1.931,0,0,1,.456-.353l1.159-.67.444-.947-1.6.926a1.969,1.969,0,0,0-.456.354,2.164,2.164,0,0,0-.343.525l-1.791,3.981a1.363,1.363,0,0,1-.587.629l-.3.172Z" transform="translate(89.659 -236.997)" fill="#6392a3"/>
        <path id="Path_12632" data-name="Path 12632" d="M-75.61,246.376l-3.08,10.9.233-.135,2.847-10.074,1.886-1.089,2.846,6.787.233-.135-3.08-7.343Z" transform="translate(84.945 -234.259)" fill="#6392a3"/>
        <path id="Path_12633" data-name="Path 12633" d="M-68.176,242.3l1.625-.938v-.69l-1.625.938Z" transform="translate(88.417 -235.785)" fill="#6392a3"/>
        <path id="Path_12634" data-name="Path 12634" d="M-74.057,250.036l-.2-.574-2.174,1.255-.2.808Z" transform="translate(85.623 -232.88)" fill="#6392a3"/>
        <path id="Path_12635" data-name="Path 12635" d="M-80.705,255.522a2.667,2.667,0,0,0,.6-.452,2.245,2.245,0,0,0,.363-.487,1.8,1.8,0,0,0,.178-.487,2.506,2.506,0,0,0,.047-.464,1.306,1.306,0,0,0-.04-.3c0,.025,0,.049-.007.075a1.8,1.8,0,0,1-.178.487,2.245,2.245,0,0,1-.363.487,2.666,2.666,0,0,1-.6.452l-1.3.75v.69Z" transform="translate(83.85 -231.602)" fill="#6392a3"/>
        <path id="Path_12636" data-name="Path 12636" d="M-79.243,251.375c-.02.028-.677.079-.673.105.031.218.181.3.412.388a1.1,1.1,0,0,1,.76.342,1.1,1.1,0,0,1,.343.8,3.576,3.576,0,0,0,.037-.442,1.222,1.222,0,0,0-.38-1.046A.872.872,0,0,0-79.243,251.375Z" transform="translate(84.54 -232.248)" fill="#6392a3"/>
      </g>
      <path id="Path_12637" data-name="Path 12637" d="M-158.8,269.816l60.464,34.909,54.607-77.567L-104.2,192.249Z" transform="translate(172.106 -192.249)" fill="#bbddea"/>
      <path id="Path_12638" data-name="Path 12638" d="M-158.8,250.558l60.464,34.909v10.388L-158.8,260.946Z" transform="translate(172.106 -172.991)" fill="#7ba7b0"/>
      <path id="Path_12639" data-name="Path 12639" d="M-117.753,192.249l60.464,34.909,54.607,14.513-60.464-34.909Z" transform="translate(185.663 -192.249)" fill="#eef1f1"/>
    </g>
  </g>
</svg>
