<svg xmlns="http://www.w3.org/2000/svg" xmlns:xlink="http://www.w3.org/1999/xlink" width="166" height="170" viewBox="0 0 166 170"><defs><style>.a{fill:#fff;stroke:#707070;}.b{fill:#02122f;}.c{clip-path:url(#a);}.d{clip-path:url(#b);}.e{fill:#46af69;}.f{fill:#187a39;}.g{fill:#48b971;}.h{fill:#46aa67;}.i{fill:#4dbc72;}.j{fill:#b5e5c6;}.k{fill:#7da089;}.l{fill:#a6ddb9;}</style><clipPath id="a"><rect class="a" width="166" height="170" transform="translate(375 233)"/></clipPath><clipPath id="b"><rect class="b" width="203" height="234" rx="4" transform="translate(-0.128 0)"/></clipPath></defs><g class="c" transform="translate(-375 -233)"><g class="d" transform="translate(369.129 197)"><g transform="translate(-278.62 -150.526)"><path class="e" d="M492.012,338.639,406.6,253.221a16.619,16.619,0,0,0-23.5,0L325.5,311.2c-6.49,6.49-4.558,14.7,1.932,21.189L412.85,417.8a16.618,16.618,0,0,0,23.5,0l55.66-55.661A16.62,16.62,0,0,0,492.012,338.639Z"/><path class="f" d="M329.014,323.716a3.123,3.123,0,0,1,0-4.418h0a3.125,3.125,0,0,1,4.419,0l83.079,83.081c6.3,6.3,13.63,9.191,22.274.547L484.7,357.016a3.043,3.043,0,0,1,4.3,0h0a3.043,3.043,0,0,1,0,4.3l-49.436,49.443c-6.49,6.49-15.224,8.278-24.051-.549l-86.494-86.494"/><path class="g" d="M476.34,377.816l-1.248-11.2-19.256,19.256,3.373,9.072Z"/><path class="h" d="M478.464,375.691l-1.248-11.2L457.96,383.747l1.248,11.2Z"/><path class="i" d="M495.76,323.129l-79.878-79.876a16.135,16.135,0,0,0-22.82,0h0L325.5,311.2l93.372,93.372a12.92,12.92,0,0,0,18.271,0l58.618-58.618A16.14,16.14,0,0,0,495.76,323.129Z"/><path class="j" d="M404.29,243.6a.787.787,0,0,0-.109.007,10.018,10.018,0,0,0-4.53,1.841.776.776,0,0,0,.918,1.25,8.47,8.47,0,0,1,3.828-1.556.775.775,0,0,0-.108-1.543Zm7.119,1.967a.776.776,0,0,0-.49,1.376q.346.283.665.6l2.533,2.533a.778.778,0,1,0,1.1-1.1l-2.532-2.533q-.377-.377-.781-.706a.771.771,0,0,0-.495-.17Zm-16.743,5.024a.773.773,0,0,0-.547.227l-3.223,3.223a.778.778,0,0,0,1.1,1.1l3.223-3.223a.775.775,0,0,0-.549-1.323Zm25.373,3.534a.776.776,0,0,0-.549,1.325l3.223,3.223a.778.778,0,0,0,1.1-1.1h0l-3.223-3.222a.766.766,0,0,0-.551-.226Zm-33.966,5.061a.769.769,0,0,0-.549.227l-3.223,3.223a.778.778,0,0,0,1.1,1.1l3.224-3.228a.775.775,0,0,0-.548-1.323Zm42.56,3.534a.775.775,0,0,0-.548,1.323l3.222,3.223a.778.778,0,1,0,1.1-1.1l-3.223-3.223a.776.776,0,0,0-.552-.223Zm-51.156,5.061a.773.773,0,0,0-.549.227l-3.222,3.223a.778.778,0,1,0,1.1,1.1h0l3.219-3.223a.776.776,0,0,0-.549-1.325Zm59.751,3.536a.775.775,0,0,0-.549,1.323l3.223,3.223a.778.778,0,0,0,1.1-1.1l-3.223-3.223a.773.773,0,0,0-.554-.224Zm-68.345,5.059a.767.767,0,0,0-.547.227l-3.223,3.223a.778.778,0,0,0,1.1,1.1l3.223-3.223a.775.775,0,0,0-.549-1.323Zm76.942,3.532a.776.776,0,0,0-.549,1.325l3.223,3.223a.778.778,0,0,0,1.1-1.1h0l-3.223-3.222A.766.766,0,0,0,445.825,279.9Zm-85.536,5.062a.769.769,0,0,0-.549.227l-3.223,3.223a.778.778,0,0,0,1.1,1.1l3.223-3.223a.778.778,0,0,0,0-1.1l0,0a.766.766,0,0,0-.553-.225Zm94.13,3.534a.776.776,0,0,0-.547,1.325l3.222,3.222a.778.778,0,1,0,1.1-1.1h0l-3.223-3.223a.775.775,0,0,0-.554-.22ZM351.694,293.56a.769.769,0,0,0-.549.227l-3.223,3.222a.778.778,0,0,0,1.1,1.1l3.223-3.222a.779.779,0,0,0,0-1.1.766.766,0,0,0-.553-.225Zm111.321,3.534a.775.775,0,0,0-.549,1.323l3.223,3.223a.778.778,0,0,0,1.1-1.1l-3.222-3.223a.776.776,0,0,0-.554-.221ZM343.1,302.153a.773.773,0,0,0-.547.227l-2.641,2.641a8.807,8.807,0,0,0-.6.66.777.777,0,1,0,1.19,1c.159-.192.329-.379.511-.559l2.641-2.64a.776.776,0,0,0-.549-1.325ZM471.61,305.69a.777.777,0,0,0-.552,1.324l0,0,3.223,3.223a.778.778,0,1,0,1.1-1.1l-3.223-3.222a.767.767,0,0,0-.553-.226Zm-133.789,6.8a.826.826,0,0,0-.1.006.775.775,0,0,0-.674.865,10.019,10.019,0,0,0,1.77,4.561.776.776,0,1,0,1.3-.852c-.011-.016-.022-.033-.034-.048a8.471,8.471,0,0,1-1.493-3.852.777.777,0,0,0-.769-.682Zm142.384,1.8a.776.776,0,0,0-.547,1.325l3.222,3.222a.778.778,0,0,0,1.1-1.1l-3.223-3.223a.771.771,0,0,0-.554-.228Zm-135.48,7.864a.776.776,0,0,0-.547,1.325L347.4,326.7a.778.778,0,0,0,1.1-1.1h0l-3.223-3.222A.773.773,0,0,0,344.725,322.154Zm144.077.728a.775.775,0,0,0-.549,1.323l3.223,3.223a.814.814,0,0,0,1.121.042.736.736,0,0,0,.074-1.038l-.015-.017-.1-.1-3.207-3.207a.779.779,0,0,0-.552-.226Zm-135.487,7.866a.775.775,0,0,0-.548,1.323l3.223,3.225a.778.778,0,1,0,1.1-1.1l-3.223-3.225A.776.776,0,0,0,353.315,330.748Zm141.41,2.323a.772.772,0,0,0-.773.741,8.536,8.536,0,0,1-1.186,3.96.775.775,0,0,0,1.332.794,10.064,10.064,0,0,0,1.4-4.684.775.775,0,0,0-.738-.809h0Zm-132.811,6.273a.775.775,0,0,0-.549,1.323l3.223,3.223a.778.778,0,0,0,1.1-1.1l-3.223-3.223a.775.775,0,0,0-.554-.222Zm126.361,3.6a.773.773,0,0,0-.549.227l-3.222,3.223a.778.778,0,0,0,1.1,1.1l3.223-3.223a.775.775,0,0,0-.549-1.323Zm-117.766,4.991a.776.776,0,0,0-.549,1.325l3.223,3.223a.778.778,0,0,0,1.1-1.1h0l-3.223-3.222a.768.768,0,0,0-.554-.223Zm109.17,3.606a.765.765,0,0,0-.548.227l-3.223,3.222a.778.778,0,1,0,1.1,1.1h0l3.223-3.223a.778.778,0,0,0,0-1.1l0,0a.77.77,0,0,0-.555-.223ZM379.1,356.532a.775.775,0,0,0-.549,1.323l3.223,3.223a.778.778,0,1,0,1.1-1.1l-3.223-3.223a.776.776,0,0,0-.554-.221Zm91.982,3.6a.764.764,0,0,0-.549.228l-3.223,3.222a.778.778,0,1,0,1.1,1.1l3.223-3.222a.776.776,0,0,0-.547-1.325ZM387.7,365.124a.775.775,0,0,0-.549,1.323l3.223,3.223a.778.778,0,0,0,1.1-1.1l-3.223-3.223a.775.775,0,0,0-.554-.218Zm74.792,3.6a.773.773,0,0,0-.549.227l-3.223,3.223a.778.778,0,0,0,1.1,1.1h0l3.223-3.223a.775.775,0,0,0-.549-1.323Zm-66.2,4.991a.776.776,0,0,0-.547,1.325l3.223,3.223a.778.778,0,1,0,1.1-1.1h0l-3.223-3.222a.77.77,0,0,0-.554-.217Zm57.6,3.6a.771.771,0,0,0-.548.227l-3.223,3.225a.778.778,0,1,0,1.1,1.1l3.224-3.225a.775.775,0,0,0-.549-1.323Zm-49.006,4.991a.776.776,0,0,0-.548,1.325l3.222,3.222a.778.778,0,1,0,1.1-1.1h0l-3.222-3.223a.775.775,0,0,0-.552-.211Zm40.413,3.6a.769.769,0,0,0-.549.227l-3.224,3.24a.778.778,0,0,0,1.1,1.1h0l3.223-3.223a.776.776,0,0,0-.547-1.325ZM413.481,390.9a.775.775,0,0,0-.549,1.323l3.223,3.223a.778.778,0,0,0,1.1-1.1h0l-3.223-3.223a.772.772,0,0,0-.551-.206Zm23.221,3.6a.773.773,0,0,0-.549.227l-3.222,3.223a.778.778,0,0,0,1.1,1.1l3.222-3.223a.775.775,0,0,0-.548-1.323Zm-14.418,4.745a.775.775,0,0,0-.388,1.448,10.041,10.041,0,0,0,4.708,1.326.8.8,0,0,0,.8-.753.776.776,0,0,0-.752-.8h0a8.491,8.491,0,0,1-3.978-1.122.763.763,0,0,0-.39-.077Z"/><path class="e" d="M445.4,336.985l27.947,27.947a2.426,2.426,0,0,1,0,3.433h0L455.81,385.9h0l-29.664-29.664a2.429,2.429,0,0,1,0-3.434l15.82-15.819A2.426,2.426,0,0,1,445.4,336.985Z"/><path class="e" d="M447.552,334.831l29.664,29.663h0L457.96,383.75h0L428.3,354.087a2.428,2.428,0,0,1,0-3.434l0,0,15.82-15.819A2.426,2.426,0,0,1,447.552,334.831Z"/><path class="k" d="M449.738,358.738a7.035,7.035,0,1,0-9.949,0,7.036,7.036,0,0,0,9.949,0Z"/><path class="l" d="M450.972,357.505a7.035,7.035,0,1,0-9.949,0,7.036,7.036,0,0,0,9.949,0Z"/></g></g></g></svg>