<svg xmlns="http://www.w3.org/2000/svg" width="36.757" height="35.25" viewBox="0 0 36.757 35.25"><g transform="translate(-1567.481 -248.916)"><path d="M27.335,35.25H4a4,4,0,0,1-4-4V4A4,4,0,0,1,4,0H27.335a4,4,0,0,1,4,4V19.106a5.8,5.8,0,0,0-.573-.477,7.353,7.353,0,0,0-2.141-.941V4.568a2,2,0,0,0-2-2H4.714a2,2,0,0,0-2,2V30.449a2,2,0,0,0,2,2H26.621a2.006,2.006,0,0,0,1.468-.644L30.5,33.7A3.977,3.977,0,0,1,27.335,35.25Z" transform="translate(1567.481 248.916)"/><rect width="16.418" height="3.006" transform="translate(1573.912 255.992)"/><rect width="16.418" height="3.006" transform="translate(1573.912 262.006)"/><path d="M12.265,14.152h0L6.843,8.71A4.636,4.636,0,0,1,1.354,1.359a4.631,4.631,0,0,1,7.211,5.7l5.389,5.354-1.69,1.734ZM4.717,1.894a2.843,2.843,0,0,0-2,4.849,2.835,2.835,0,0,0,4-4.017A2.807,2.807,0,0,0,4.717,1.894Z" transform="matrix(0.998, -0.07, 0.07, 0.998, 1589.33, 270.049)"/></g></svg>