<svg xmlns="http://www.w3.org/2000/svg" width="35" height="31.94" viewBox="0 0 35 31.94"><defs><style>.a{fill:#48b971;}.b{fill:#a2f8c2;}</style></defs><g transform="translate(0 -33.423)"><g transform="translate(0 33.423)"><path class="a" d="M195.851,37.781,174.19,33.27a1.708,1.708,0,0,0-2.019,1.293l-.412,2.6,24.993,5.2.412-2.6A1.681,1.681,0,0,0,195.851,37.781Z" transform="translate(-162.201 -33.234)"/><path class="b" d="M24.613,169.29a1.7,1.7,0,0,0-2.091-1.227l-4.063,1.17-9.579-2.1-1.053,5.165-6.582,1.9a1.777,1.777,0,0,0-1.183,2.169l3.709,13.87a1.7,1.7,0,0,0,2.091,1.227l21.278-6.127a1.777,1.777,0,0,0,1.183-2.169l-.637-2.381,2.386.523a1.689,1.689,0,0,0,1.995-1.347l1.51-7.4-8.6-1.887Zm2.457,7.049.526-2.581a.7.7,0,0,1,.821-.554l2.487.546a.721.721,0,0,1,.534.851l-.526,2.581a.7.7,0,0,1-.821.554l-2.487-.546A.721.721,0,0,1,27.07,176.339Zm-25.456-.765L7.5,173.879l13.894-4,1.5-.431a.3.3,0,0,1,.081-.011.323.323,0,0,1,.305.238l.176.656.55,2.056-21.882,6.3L1.4,175.976A.332.332,0,0,1,1.614,175.574Zm25.374,7.969a.331.331,0,0,1-.031.247.309.309,0,0,1-.187.155L5.492,190.071a.3.3,0,0,1-.081.012.323.323,0,0,1-.305-.238l-2.164-8.09,21.882-6.3,1.335,4.99Z" transform="translate(0 -159.58)"/><path class="a" d="M93.046,445.127a.721.721,0,0,0-.885-.5l-2.578.716a.72.72,0,0,0-.5.885l.715,2.578a.72.72,0,0,0,.884.5l2.578-.715a.72.72,0,0,0,.5-.885Z" transform="translate(-83.78 -420.61)"/></g></g></svg>