<svg xmlns="http://www.w3.org/2000/svg" width="16" height="16" viewBox="0 0 16 16">
  <g id="Actions_Toggle_phone_32" data-name="Actions / Toggle / phone / 32" opacity="0.4">
    <path id="Fill" d="M11.5,13h-.085C1.6,12.435.2,4.143,0,1.615A1.509,1.509,0,0,1,.359.521,1.491,1.491,0,0,1,1.384,0H4.139a1,1,0,0,1,.93.63L5.83,2.5a1,1,0,0,1-.22,1.08L4.544,4.655a4.686,4.686,0,0,0,3.79,3.8L9.42,7.38A1,1,0,0,1,10.5,7.175l1.885.755A1,1,0,0,1,13,8.86V11.5A1.5,1.5,0,0,1,11.5,13ZM1.5,1a.5.5,0,0,0-.5.5v.04C1.236,4.519,2.719,11.5,11.474,12H11.5a.5.5,0,0,0,.5-.471V8.86L10.119,8.1,8.684,9.53l-.24-.03a5.541,5.541,0,0,1-2.607-1A5.53,5.53,0,0,1,4.343,6.842,6.536,6.536,0,0,1,3.5,4.56l-.03-.24,1.42-1.435L4.145,1Z" transform="translate(1.495 1.5)"/>
  </g>
</svg>
