<svg xmlns="http://www.w3.org/2000/svg" width="16" height="16" viewBox="0 0 16 16">
  <g id="Actions_Navigation_close--outline_32" data-name="Actions / Navigation / close--outline / 32" opacity="0.4">
    <path id="Fill" d="M7,14A6.957,6.957,0,0,1,0,7,6.957,6.957,0,0,1,7,0a6.957,6.957,0,0,1,7,7,6.957,6.957,0,0,1-7,7ZM7,1A5.993,5.993,0,0,0,2.763,11.238a5.993,5.993,0,1,0,8.475-8.475A5.957,5.957,0,0,0,7,1ZM4.3,10.5h0l-.8-.8L6.2,7,3.5,4.3l.8-.8L7,6.2,9.7,3.5l.8.8L7.8,7l2.7,2.7-.8.8L7,7.8,4.3,10.5Z" transform="translate(1 1)"/>
  </g>
</svg>
