<?xml version="1.0" encoding="UTF-8" standalone="no"?><!DOCTYPE svg PUBLIC "-//W3C//DTD SVG 1.1//EN" "http://www.w3.org/Graphics/SVG/1.1/DTD/svg11.dtd"><svg width="25" height="25" viewBox="0 0 512 408" version="1.1" xmlns="http://www.w3.org/2000/svg" xmlns:xlink="http://www.w3.org/1999/xlink" xml:space="preserve" xmlns:serif="http://www.serif.com/" style="fill-rule:evenodd;clip-rule:evenodd;stroke-linejoin:round;stroke-miterlimit:1.41421;"><g><path d="M506.759,190.35l-118.4,-125.44c-7.277,-7.718 -19.424,-8.07 -27.142,-0.787c-7.706,7.277 -8.064,19.43 -0.781,27.142l105.965,112.256l-105.965,112.269c-7.283,7.712 -6.925,19.859 0.781,27.142c3.712,3.501 8.454,5.235 13.178,5.235c5.101,0 10.195,-2.022 13.965,-6.01l118.4,-125.446c6.981,-7.404 6.981,-18.963 -0.001,-26.361Z" style="fill:#48b971;fill-rule:nonzero;"/><path d="M151.565,315.784l-105.958,-112.263l105.958,-112.262c7.277,-7.712 6.925,-19.866 -0.787,-27.142c-7.706,-7.277 -19.865,-6.925 -27.142,0.787l-118.4,125.44c-6.982,7.398 -6.982,18.963 0,26.362l118.406,125.446c3.776,4 8.864,6.016 13.965,6.016c4.724,0 9.466,-1.741 13.171,-5.242c7.719,-7.277 8.064,-19.43 0.787,-27.142Z" style="fill:#48b971;fill-rule:nonzero;"/><path d="M287.06,0.219c-10.477,-1.587 -20.282,5.606 -21.882,16.083l-56.32,368.64c-1.6,10.483 5.6,20.282 16.083,21.882c0.986,0.147 1.958,0.218 2.925,0.218c9.325,0 17.504,-6.803 18.957,-16.301l56.32,-368.64c1.6,-10.484 -5.6,-20.282 -16.083,-21.882Z" style="fill:#48b971;fill-rule:nonzero;"/></g></svg>