<?xml version="1.0" encoding="UTF-8" standalone="no"?><!DOCTYPE svg PUBLIC "-//W3C//DTD SVG 1.1//EN" "http://www.w3.org/Graphics/SVG/1.1/DTD/svg11.dtd"><svg width="25" height="25" viewBox="0 0 470 512" version="1.1" xmlns="http://www.w3.org/2000/svg" xmlns:xlink="http://www.w3.org/1999/xlink" xml:space="preserve" xmlns:serif="http://www.serif.com/" style="fill-rule:evenodd;clip-rule:evenodd;stroke-linejoin:round;stroke-miterlimit:1.41421;"><g><path d="M186.667,96c-49.984,0 -90.667,40.683 -90.667,90.667l0,218.666l-37.333,0c-32.363,0 -58.667,-26.304 -58.667,-58.666l0,-288c0,-32.363 26.304,-58.667 58.667,-58.667l266.666,0c32.363,0 58.667,26.304 58.667,58.667l0,37.333l-197.333,0Z" style="fill:#fff;fill-rule:nonzero;"/><path d="M469.333,453.333c0,32.406 -26.261,58.667 -58.666,58.667l-224,0c-32.406,0 -58.667,-26.261 -58.667,-58.667l0,-266.666c0,-32.406 26.261,-58.667 58.667,-58.667l224,0c32.405,0 58.666,26.261 58.666,58.667l0,266.666Z" style="fill:#fff;fill-rule:nonzero;"/></g></svg>