<svg xmlns="http://www.w3.org/2000/svg" width="249" height="259.486" viewBox="0 0 249 259.486"><defs><style>.a{opacity:0.999;}.b{fill:#e0e0e0;}.c{fill:#fafafa;}.d{fill:#f5f5f5;}.e{fill:#ebebeb;}.f{fill:#455a64;}.g{fill:#263238;}.h{fill:#48b971;}.i{fill:#ffbe9d;}.j{fill:#eb996e;}.k,.l{opacity:0.3;}.m{opacity:0.4;}</style></defs><g class="a" transform="translate(-43.264 -39.646)"><g transform="translate(66.132 39.646)"><g transform="translate(0)"><g transform="translate(0 6.418)"><rect class="b" width="99.962" height="125.605"/><rect class="c" width="93.289" height="118.425" transform="translate(3.66 3.594)"/><path class="d" d="M85.7,170.061h18.768l2.413,11.044h8.143l6.937-31.406h23.222V128.285h16.889v35.78H178.99v37.247H85.7Z" transform="translate(-82.041 -79.293)"/><rect class="b" width="3.016" height="117.448" transform="translate(48.775 3.594)"/><rect class="b" width="93.289" height="3.087" transform="translate(3.66 60.965)"/></g><g transform="translate(172.358 25.72)"><path class="b" d="M391.21,103.478l6,15.35-3.73-.017-2.99-9.433Z" transform="translate(-368.659 -89.295)"/><path class="e" d="M357.628,80.79,355.566,110.2l21.294.445,2.4-29.856Z" transform="translate(-355.566 -80.79)"/><path class="c" d="M361.244,84.492l-1.717,24.481,15.83.741,2.211-25.367Z" transform="translate(-357.051 -82.123)"/><path class="b" d="M367.06,90.116l-1.284,17.208h8.732l1.541-17.208Z" transform="translate(-359.393 -84.286)"/></g><path class="e" d="M308.284,113.705V89.523h17.709v24.163Z" transform="translate(-165.483 -58.344)"/><path class="b" d="M320.963,70.825s4.271-31.223,3.075-31.179-4.2,28.466-4.2,28.466-.126-23.54-1.252-23.415,0,24.917,0,24.917-1.925-20.12-2.966-19.639.447,20.849.447,20.849h4.9" transform="translate(-168.093 -39.646)"/><path class="e" d="M319.24,74.724s1.48-15.562,1.969-14.5,0,9.264,0,9.264,4.1-20.11,5.174-19.427-4.2,21.827-4.2,21.827,4-12.071,4.881-10.8-3.319,12.6-3.319,12.6,4.3-8,4.589-6.931-2.051,7.967-2.051,7.967Z" transform="translate(-169.59 -43.545)"/><path class="e" d="M310.167,78.864s-9.469-18.589-8.3-18.012,7.224,12.583,7.224,12.583-4.006-11.59-3.126-11.945,5.273,13.019,5.273,13.019l.986,4.355Z" transform="translate(-163.04 -47.591)"/><path class="b" d="M316.518,89.539l.448,24.182h-8.42l-.162-24.263Z" transform="translate(-165.52 -58.319)"/><path class="d" d="M308.177,91.552l8.155.136,9.534-.136.3-2.311h-18.22Z" transform="translate(-165.356 -58.238)"/><rect class="b" width="88.553" height="3.888" transform="translate(127.562 54.967)"/></g></g><g transform="translate(144.15 107.037)"><g transform="translate(0 0)"><path class="f" d="M310.368,348.083c-.75-.827,1.018-5.684,9.414-6.029s11.755,2.714,11.771,6.029C331.561,349.555,310.368,348.083,310.368,348.083Z" transform="translate(-244.224 -220.393)"/><g transform="translate(52.674)"><path class="d" d="M298.24,148.066l-9.326,57.684h85.178l10.261-58.3Z" transform="translate(-288.914 -147.451)"/><path class="b" d="M302.475,153.315c.033-.2,85.987-.326,85.987-.326l.975-5.539-86.113.615-.848,5.249" transform="translate(-293.998 -147.451)"/><path class="g" d="M308.638,152.117a.789.789,0,1,1-.789-.789A.789.789,0,0,1,308.638,152.117Z" transform="translate(-295.717 -148.904)"/><path class="g" d="M314.843,152.117a.789.789,0,1,1-.789-.789A.789.789,0,0,1,314.843,152.117Z" transform="translate(-298.043 -148.904)"/><path class="g" d="M321.049,152.117a.789.789,0,1,1-.789-.789A.789.789,0,0,1,321.049,152.117Z" transform="translate(-300.369 -148.904)"/><path class="h" d="M327.025,188.912l-10.663,12.3a15.14,15.14,0,0,1-6.627-12.3c0-8.57,7.805-15.623,17.29-15.623s17.291,7.053,17.291,15.623Z" transform="translate(-296.719 -157.137)"/><g transform="translate(20.929 33.707)"><path class="g" d="M333.138,201.4a1.977,1.977,0,0,1-.184.241l-.553.666-2.113,2.494-7.586,8.844-.025-.2a17.309,17.309,0,0,0,7.938,2.953,18.328,18.328,0,0,0,9.444-1.425,17.1,17.1,0,0,0,7.108-5.724,16.168,16.168,0,0,0,1.93-3.783,15.241,15.241,0,0,0,.74-3.874l.138.145-12.187-.2-3.426-.078-.907-.03a2.128,2.128,0,0,1-.318-.023,1.6,1.6,0,0,1,.3-.017l.893-.009h3.409l12.239.08h.148l-.009.144a15.466,15.466,0,0,1-.736,3.958,16.389,16.389,0,0,1-1.957,3.867,17.342,17.342,0,0,1-7.234,5.842,18.559,18.559,0,0,1-9.611,1.437,17.489,17.489,0,0,1-8.06-3.039l-.125-.088.1-.114,7.713-8.8,2.159-2.432.571-.63A1.5,1.5,0,0,1,333.138,201.4Z" transform="translate(-322.394 -201.372)"/></g><circle class="g" cx="0.97" cy="0.97" r="0.97" transform="translate(36.687 21.525)"/><g transform="translate(37.656 15.238)"><path class="g" d="M369.365,171.989a4.895,4.895,0,0,1-.91.063l-2.481.052c-2.095.029-4.988.048-8.184.048h-1.544l.114-.048c-2.009,2-3.8,3.761-5.089,5.013l-1.533,1.464a3.853,3.853,0,0,1-.586.5,3.769,3.769,0,0,1,.5-.586l1.463-1.533c1.252-1.292,3.011-3.08,5.013-5.089l.047-.047h.067l1.544,0c3.2,0,6.089.018,8.184.048l2.481.051A4.846,4.846,0,0,1,369.365,171.989Z" transform="translate(-349.152 -171.826)"/></g><g transform="translate(55.433 10.151)"><path class="g" d="M401.98,181.117a2.9,2.9,0,0,1,.045-.328c.038-.228.09-.534.156-.926.144-.825.351-2,.614-3.5.544-3.021,1.318-7.322,2.257-12.535l.13.157-24.211.03c-.037.029.3-.251.158-.13v0l0,.009,0,.018-.007.036-.014.073-.027.145-.054.289-.107.578-.213,1.149q-.213,1.144-.422,2.272-.42,2.252-.824,4.424c-.54,2.891-1.057,5.659-1.543,8.26l-.145-.174,17.436.07,4.98.04,1.329.019.346.009a.652.652,0,0,1,.122.009.381.381,0,0,1-.107.009l-.331.009-1.3.019-4.951.04-17.522.071h-.178l.033-.176c.479-2.6.989-5.372,1.521-8.265q.4-2.169.818-4.425.208-1.126.421-2.272l.213-1.149.107-.578.054-.289.027-.145.014-.073.007-.036,0-.018,0-.009v0c-.143.117.2-.166.162-.136l24.211.03h.16l-.03.157c-1,5.232-1.822,9.551-2.4,12.583l-.677,3.46c-.077.38-.138.678-.183.9A2.16,2.16,0,0,1,401.98,181.117Z" transform="translate(-377.59 -163.689)"/></g><g transform="translate(38.204 41.014)"><circle class="g" cx="0.97" cy="0.97" r="0.97"/><g transform="translate(0.97 0.807)"><path class="g" d="M369.168,214.514c0,.09-3.938.163-8.794.163s-8.794-.073-8.794-.163,3.936-.163,8.794-.163S369.168,214.424,369.168,214.514Z" transform="translate(-351.58 -214.351)"/></g></g><g transform="translate(54.659 36.663)"><path class="g" d="M401.516,218.971a1.7,1.7,0,0,1,.046-.239l.154-.671c.145-.6.349-1.458.611-2.547.543-2.212,1.319-5.37,2.272-9.254l.119.153-24.966.04c-.143.11.19-.149.156-.121v0l0,.007,0,.013-.007.026-.013.053-.026.1-.053.21-.106.418-.21.833-.418,1.65-.818,3.231-1.555,6.129-.148-.19,17.915.069,5.176.042,1.388.021.361.011a.694.694,0,0,1,.128.01.407.407,0,0,1-.112.011l-.346.01-1.361.021-5.147.043-18,.069h-.2l.048-.191,1.541-6.132.814-3.232.416-1.65.21-.833.106-.418.053-.209.026-.105.013-.053.007-.026,0-.013,0-.006v0c-.034.025.3-.234.16-.124l24.966.04h.158l-.039.152-2.409,9.286c-.284,1.072-.508,1.913-.666,2.509l-.178.646A1.162,1.162,0,0,1,401.516,218.971Z" transform="translate(-376.352 -206.1)"/></g><g transform="translate(61.293 15.461)"><path class="g" d="M403.529,172.346c0,.09-3.709.163-8.282.163s-8.283-.073-8.283-.163,3.708-.163,8.283-.163S403.529,172.256,403.529,172.346Z" transform="translate(-386.964 -172.183)"/></g><g transform="translate(61.002 18.173)"><path class="g" d="M403.161,176.685c0,.09-3.73.163-8.331.163s-8.331-.073-8.331-.163,3.729-.163,8.331-.163S403.161,176.6,403.161,176.685Z" transform="translate(-386.499 -176.522)"/></g><g transform="translate(61.099 20.789)"><path class="g" d="M402.735,180.869c0,.09-3.6.163-8.04.163s-8.04-.073-8.04-.163,3.6-.163,8.04-.163S402.735,180.779,402.735,180.869Z" transform="translate(-386.654 -180.706)"/></g><g transform="translate(61.681 41.519)"><path class="g" d="M403.374,214.031c0,.09-3.535.163-7.895.163s-7.9-.073-7.9-.163,3.534-.163,7.9-.163S403.374,213.941,403.374,214.031Z" transform="translate(-387.584 -213.868)"/></g><g transform="translate(63.037 44.522)"><path class="g" d="M403.218,218.835c0,.09-3.014.163-6.732.163s-6.733-.073-6.733-.163,3.014-.163,6.733-.163S403.218,218.745,403.218,218.835Z" transform="translate(-389.753 -218.672)"/></g></g><g transform="translate(0 43.629)"><path class="f" d="M247.307,319.4c-.3,1.759-8.645,20.215-3.258,20.215H271.1s-2.794-2.631,5.665-20.215Z" transform="translate(-218.743 -255.539)"/><path class="f" d="M215.708,219.511l-11.057,64.625h93.271l11.442-66.893Z" transform="translate(-204.651 -217.244)"/><path class="c" d="M221.822,225.543,212.5,283.227h85.178l10.261-58.3Z" transform="translate(-207.592 -220.124)"/><path class="g" d="M309.365,217.244l1.762,1.184-11.875,67.467H207.11l-2.459-1.758h93.271Z" transform="translate(-204.651 -217.244)"/><path class="e" d="M226.057,230.792c.033-.2,85.987-.325,85.987-.325l.975-5.539-86.113.615-.849,5.249" transform="translate(-212.676 -220.124)"/><g transform="translate(76.658 24.147)"><path class="g" d="M327.281,289.713a.927.927,0,0,1,.018-.159c.02-.125.046-.285.077-.486.076-.452.183-1.086.318-1.9.289-1.681.7-4.089,1.218-7.083,1.063-6.067,2.543-14.505,4.223-24.084l.023-.133h.135l6.658,0h.246l-.035.192c-2.6,14.123-4.888,26.529-6.2,33.666l-.013.073h-.074l-4.9-.051-1.272-.021-.321-.009a.457.457,0,0,1-.1-.008.776.776,0,0,1,.12-.008l.338-.008,1.295-.021,4.838-.051-.087.073c1.284-7.143,3.516-19.557,6.056-33.692l.16.192h-.05l-6.658,0,.158-.133c-1.73,9.519-3.254,17.905-4.349,23.935-.556,3-1,5.421-1.316,7.108-.155.823-.277,1.467-.364,1.926l-.1.5A1.561,1.561,0,0,1,327.281,289.713Z" transform="translate(-327.28 -255.871)"/></g><g transform="translate(65.832 33.791)"><path class="g" d="M309.964,295.5a3.988,3.988,0,0,1,.069-.451q.088-.493.24-1.338l.931-5.027c.821-4.334,1.964-10.359,3.271-17.249l.024-.129h.132l6.659,0h.248l-.039.194c-1.977,9.8-3.733,18.5-4.846,24.023l-.016.081h-.081l-4.892-.058-1.276-.024a3.677,3.677,0,0,1-.423-.018c.008-.006.166-.012.464-.019l1.3-.024,4.826-.057-.1.08c1.085-5.525,2.8-14.241,4.722-24.048l.159.2h-.049l-6.659,0,.156-.129c-1.357,6.829-2.544,12.8-3.4,17.1-.433,2.13-.781,3.843-1.026,5.052q-.181.865-.286,1.368c-.031.143-.057.261-.079.359A.788.788,0,0,1,309.964,295.5Z" transform="translate(-309.963 -271.298)"/></g><g transform="translate(55.008 16.287)"><path class="g" d="M292.648,285a1.434,1.434,0,0,1,.026-.2l.1-.6c.1-.553.229-1.341.4-2.35.362-2.074.882-5.055,1.528-8.761l5.257-29.654.024-.133h7.039l-.035.192c-3.264,17.868-6.143,33.443-7.669,41.524l-.013.067h-.067l-4.92-.048-1.256-.019c-.281-.005-.415-.014-.415-.014s.157-.009.447-.015l1.276-.019,4.868-.047-.079.066c1.43-8.1,4.243-23.686,7.508-41.554l.16.192h-6.709l.159-.133c-2.135,11.707-4.024,22.058-5.382,29.5-.689,3.717-1.242,6.706-1.628,8.786-.193,1.023-.343,1.821-.449,2.381-.051.262-.091.468-.122.623A2.034,2.034,0,0,1,292.648,285Z" transform="translate(-292.647 -243.298)"/></g><g transform="translate(44.182 40.693)"><path class="g" d="M275.331,299.636a1.847,1.847,0,0,1,.039-.313c.039-.241.089-.552.152-.939.146-.862.349-2.062.6-3.553.543-3.094,1.3-7.391,2.169-12.356l.022-.128h.131l6.659-.006h.246l-.038.193-3.284,17.123-.018.092h-.092l-4.871-.063-1.29-.027a3.169,3.169,0,0,1-.429-.021c.008-.007.172-.014.476-.022l1.318-.027,4.8-.063-.109.091c.8-4.3,1.928-10.385,3.184-17.143l.159.193h-.049l-6.659-.006.154-.129c-.925,4.908-1.724,9.155-2.3,12.213-.291,1.5-.526,2.71-.694,3.578-.08.4-.145.719-.2.968A3.192,3.192,0,0,1,275.331,299.636Z" transform="translate(-275.329 -282.34)"/></g><g transform="translate(33.357 29.594)"><path class="g" d="M258.014,292.98a.615.615,0,0,1,.013-.131c.016-.107.035-.239.059-.4q.09-.574.249-1.581c.229-1.411.557-3.421.964-5.922.848-5.087,2.027-12.162,3.371-20.221l.022-.133h.136l6.658,0h.244l-.034.191-5,28.22-.014.079H264.6l-4.89-.054L258.439,293a3.853,3.853,0,0,1-.424-.018.737.737,0,0,1,.122-.009l.34-.009,1.3-.022,4.829-.054-.092.078,4.863-28.244.161.191h-.051l-6.658,0,.158-.133c-1.395,8-2.619,15.024-3.5,20.074-.448,2.511-.807,4.53-1.06,5.947q-.189,1.026-.3,1.612l-.082.422A1.053,1.053,0,0,1,258.014,292.98Z" transform="translate(-258.013 -264.585)"/></g><g transform="translate(22.532 19.81)"><path class="g" d="M240.7,287.113a1.214,1.214,0,0,1,.022-.181c.023-.139.051-.321.088-.551.084-.508.2-1.226.358-2.146l1.366-8.008c1.19-6.848,2.844-16.371,4.717-27.158l.023-.133h7.039l-.034.191c-2.909,16.2-5.485,30.366-6.9,38l-.013.07h-.069l-4.912-.049-1.262-.02-.316-.008a.518.518,0,0,1-.1-.008.8.8,0,0,1,.118-.007l.333-.008,1.283-.019,4.857-.049-.083.069c1.326-7.653,3.839-21.83,6.749-38.03l.16.191h-.051l-6.658,0,.159-.133c-1.924,10.727-3.621,20.2-4.842,27.008l-1.465,8.033c-.174.933-.309,1.662-.405,2.177-.046.238-.083.426-.11.569A1.7,1.7,0,0,1,240.7,287.113Z" transform="translate(-240.697 -248.934)"/></g><path class="g" d="M232.221,229.595a.789.789,0,1,1-.789-.79A.789.789,0,0,1,232.221,229.595Z" transform="translate(-214.395 -221.578)"/><circle class="g" cx="0.789" cy="0.789" r="0.789" transform="translate(20.127 7.227)"/><path class="g" d="M244.631,229.595a.789.789,0,1,1-.79-.79A.789.789,0,0,1,244.631,229.595Z" transform="translate(-219.047 -221.578)"/><g transform="translate(11.707 32.387)"><path class="g" d="M223.381,294.655a4.3,4.3,0,0,1,.066-.479q.085-.52.233-1.42l.905-5.327,3.177-18.24.023-.131h.134l6.658,0h.246l-.036.193c-1.934,10.414-3.648,19.652-4.72,25.427l-.015.081h-.081l-4.892-.056-1.276-.023a3.848,3.848,0,0,1-.423-.018.663.663,0,0,1,.122-.009l.341-.01,1.3-.023,4.828-.056-.1.08c1.043-5.78,2.712-15.026,4.593-25.45l.16.192h-.05l-6.658,0,.156-.131c-1.319,7.22-2.474,13.544-3.306,18.093-.422,2.258-.761,4.073-1,5.352q-.176.919-.279,1.45l-.078.38A.872.872,0,0,1,223.381,294.655Z" transform="translate(-223.38 -269.053)"/></g><g transform="translate(48.403 20.57)"><g transform="translate(0.693)"><path class="h" d="M318.872,262.129H283.19l2.036-11.981h35.936Z" transform="translate(-283.19 -250.149)"/></g><path class="h" d="M282.775,269.215l-.693,4.179s4.684-4.345,4.612-4.345H282.8" transform="translate(-282.082 -257.234)"/><g transform="translate(6.733 4.002)"><path class="c" d="M319.4,256.714c0,.09-5.942.163-13.272.163s-13.274-.073-13.274-.163,5.942-.163,13.274-.163S319.4,256.624,319.4,256.714Z" transform="translate(-292.852 -256.551)"/></g><g transform="translate(6.382 6.893)"><path class="c" d="M318.838,261.339c0,.09-5.943.163-13.273.163s-13.273-.073-13.273-.163,5.942-.163,13.273-.163S318.838,261.249,318.838,261.339Z" transform="translate(-292.292 -261.176)"/></g></g></g></g></g><g transform="translate(43.264 234.738)"><g transform="translate(138.922 4.137)"><rect class="g" width="101.655" height="59.317"/><rect class="f" width="46.31" height="59.317"/><g transform="translate(4.173 3.471)"><path class="g" d="M309.591,380.582s-.008-.106-.013-.3-.007-.5-.012-.863c-.007-.769-.016-1.875-.029-3.292-.014-2.854-.036-6.957-.063-12.02l.117.117-37.252.046c-.147.145.2-.2.161-.161v2.156q0,1.075,0,2.137,0,2.125,0,4.194c0,2.757,0,5.43-.006,7.989l-.155-.154,26.7.073,7.745.043,2.078.019.541.009a1.6,1.6,0,0,1,.19.009,1.01,1.01,0,0,1-.171.01l-.523.009-2.046.019-7.71.043-26.8.074h-.154v-.156c0-2.559,0-5.232-.006-7.989q0-2.068,0-4.194v-4.293c-.036.034.309-.31.165-.164l37.252.046h.118v.118c-.026,5.093-.048,9.221-.063,12.092-.013,1.405-.022,2.5-.029,3.266-.006.358-.01.638-.013.842A2.3,2.3,0,0,1,309.591,380.582Z" transform="translate(-272.172 -363.905)"/><g transform="translate(17.045 6.713)"><path class="g" d="M302.77,376.369c-.027,0-.036-.141-.111-.371a1.588,1.588,0,0,0-.584-.8,1.479,1.479,0,0,0-1.378-.179,1.439,1.439,0,0,0,0,2.694,1.479,1.479,0,0,0,1.378-.179,1.587,1.587,0,0,0,.584-.8c.075-.23.084-.372.111-.371s.054.143.012.4a1.575,1.575,0,0,1-.568.948,1.691,1.691,0,0,1-1.62.278,1.726,1.726,0,0,1,0-3.258,1.691,1.691,0,0,1,1.62.278,1.576,1.576,0,0,1,.568.949C302.824,376.227,302.788,376.37,302.77,376.369Z" transform="translate(-299.439 -374.645)"/></g></g><g transform="translate(4.173 21.61)"><path class="g" d="M309.591,409.6s-.008-.106-.013-.3-.007-.5-.012-.863c-.007-.769-.016-1.875-.029-3.291-.014-2.854-.036-6.958-.063-12.021l.117.117-37.252.046c-.147.146.2-.2.161-.161v2.155q0,1.075,0,2.137,0,2.125,0,4.195c0,2.757,0,5.43-.006,7.989l-.155-.155,26.7.074,7.745.043,2.078.019.541.01a1.593,1.593,0,0,1,.19.009,1.082,1.082,0,0,1-.171.009l-.523.009-2.046.019-7.71.043-26.8.074h-.154V409.6c0-2.559,0-5.232-.006-7.989q0-2.068,0-4.195v-4.293c-.036.033.309-.31.165-.164l37.252.046h.118v.117c-.026,5.093-.048,9.221-.063,12.092-.013,1.405-.022,2.5-.029,3.265-.006.359-.01.638-.013.842A2.329,2.329,0,0,1,309.591,409.6Z" transform="translate(-272.172 -392.921)"/><g transform="translate(17.045 6.713)"><path class="g" d="M302.77,405.385c-.027,0-.036-.141-.111-.371a1.586,1.586,0,0,0-.584-.8,1.477,1.477,0,0,0-1.378-.179,1.439,1.439,0,0,0,0,2.694,1.479,1.479,0,0,0,1.378-.179,1.588,1.588,0,0,0,.584-.8c.075-.231.084-.372.111-.371s.054.142.012.4a1.576,1.576,0,0,1-.568.949,1.691,1.691,0,0,1-1.62.278,1.726,1.726,0,0,1,0-3.258,1.691,1.691,0,0,1,1.62.278,1.575,1.575,0,0,1,.568.948C302.824,405.243,302.788,405.386,302.77,405.385Z" transform="translate(-299.439 -403.661)"/></g></g><g transform="translate(4.173 39.748)"><path class="g" d="M309.591,438.613s-.008-.106-.013-.3-.007-.5-.012-.863c-.007-.769-.016-1.875-.029-3.291-.014-2.855-.036-6.958-.063-12.021l.117.117-37.252.046c-.147.145.2-.2.161-.161v2.156q0,1.075,0,2.137,0,2.125,0,4.194c0,2.757,0,5.43-.006,7.989l-.155-.154,26.7.073,7.745.043,2.078.019.541.009a1.579,1.579,0,0,1,.19.009,1.118,1.118,0,0,1-.171.01l-.523.009-2.046.019-7.71.043-26.8.074h-.154v-.156c0-2.559,0-5.232-.006-7.989q0-2.068,0-4.194v-4.293c-.036.033.309-.31.165-.164l37.252.046h.118v.117c-.026,5.093-.048,9.221-.063,12.092-.013,1.405-.022,2.5-.029,3.266-.006.358-.01.638-.013.842A2.3,2.3,0,0,1,309.591,438.613Z" transform="translate(-272.172 -421.936)"/><g transform="translate(17.045 6.713)"><path class="g" d="M302.77,434.4c-.027,0-.036-.141-.111-.371a1.588,1.588,0,0,0-.584-.8,1.481,1.481,0,0,0-1.378-.179,1.439,1.439,0,0,0,0,2.694,1.477,1.477,0,0,0,1.378-.179,1.583,1.583,0,0,0,.584-.8c.075-.23.084-.372.111-.371s.054.143.012.4a1.574,1.574,0,0,1-.568.948,1.691,1.691,0,0,1-1.62.278,1.726,1.726,0,0,1,0-3.258,1.691,1.691,0,0,1,1.62.278,1.577,1.577,0,0,1,.568.949C302.824,434.258,302.788,434.4,302.77,434.4Z" transform="translate(-299.439 -432.676)"/></g></g></g><rect class="g" width="85.51" height="59.317" transform="translate(3.279 4.137)"/><rect class="g" width="244.269" height="5.637"/><rect class="f" width="7.574" height="57.817" transform="translate(3.279 5.637)"/></g><g transform="translate(71.454 124.042)"><g transform="translate(16.534 0)"><g transform="translate(20.41)"><g transform="translate(28.726 17.642)"><path class="g" d="M197.8,206.676a5.038,5.038,0,0,1-.105-.716,5.194,5.194,0,0,0-.62-1.826,2.141,2.141,0,0,0-.915-.876,1.184,1.184,0,0,0-1.3.247,5.054,5.054,0,0,0,0,6.343,1.185,1.185,0,0,0,1.3.247,2.144,2.144,0,0,0,.914-.876,5.2,5.2,0,0,0,.62-1.825,5.081,5.081,0,0,1,.105-.717,2.279,2.279,0,0,1,.021.731,4.82,4.82,0,0,1-.548,1.927,2.349,2.349,0,0,1-1,1.007,1.422,1.422,0,0,1-.822.119,1.669,1.669,0,0,1-.785-.384,5.248,5.248,0,0,1,0-6.8,1.674,1.674,0,0,1,.785-.383,1.418,1.418,0,0,1,.822.119,2.346,2.346,0,0,1,1,1.007,4.818,4.818,0,0,1,.548,1.927A2.271,2.271,0,0,1,197.8,206.676Z" transform="translate(-193.412 -202.875)"/></g><g transform="translate(4.275 5.765)"><path class="i" d="M156.147,187.36,154.3,224.817l16.037,1.51.886-9.091s5.656,1.4,7.375-3.836c1.1-3.343,2.074-29.526,2.074-29.526Z" transform="translate(-154.298 -183.875)"/></g><path class="g" d="M181.564,184.28c-1.368,3.258-6.531,6.046-6.531,6.046l-.856,8.292a16.3,16.3,0,0,0-2.3-.021c.413-3.891-4.6-3.132-5.108-.478-.491,2.552,2.415,4.254,2.415,4.254-2.006,3.078-2.819,4.7-5.665,7.585-3.081,3.121-4.737,3.374-7.917,3.279l-3.5-.162s-1.247-2.993-2.162-10.064c-.44-3.4-3.095-7.857-2.339-13.386,2.147-15.714,19.534-12.923,19.534-12.923C173.655,171.648,184.779,176.618,181.564,184.28Z" transform="translate(-147.459 -174.653)"/><g transform="translate(25.898 21.455)"><path class="g" d="M196.1,209.038a40.236,40.236,0,0,1-7.216.364,40.094,40.094,0,0,1,7.216-.364Z" transform="translate(-188.888 -208.976)"/></g></g><g transform="translate(52.441 63.733)"><path class="i" d="M251.043,278.393l-5.846,3.619-2.144,5.011v-4.361s1.588-1.856,2.887-3.247a1.8,1.8,0,0,0,0-2.784c-.371-.464-5.966,6.032-5.966,6.032V286.4c-2.6-3.207-3.811-2.1-4.213-1.521s4.213,4.928,4.213,4.928v1.33l-22.918,12.325-6.032-15.007L198.7,294.913l7.355,17.81a9.3,9.3,0,0,0,13.326,4.456l26.971-15.939,1.8-2.992a7.586,7.586,0,0,0,1.067-3.4l.9-13.48A2.489,2.489,0,0,0,251.043,278.393Z" transform="translate(-198.699 -276.606)"/><g transform="translate(16.195 26.856)"><path class="j" d="M226.881,319.568a32.689,32.689,0,0,1-2.265,6.114,32.807,32.807,0,0,1,2.265-6.114Z" transform="translate(-224.605 -319.567)"/></g><g transform="translate(46.889 4.746)"><path class="j" d="M278.235,284.209a10.617,10.617,0,0,1-1.065.48,3.965,3.965,0,0,0-.994.72,3.923,3.923,0,0,0-.763,1.281,24.979,24.979,0,0,1-1.7,3.643,24.84,24.84,0,0,1,1.4-3.77,3.881,3.881,0,0,1,.854-1.37,3.714,3.714,0,0,1,1.106-.713A2.715,2.715,0,0,1,278.235,284.209Z" transform="translate(-273.707 -284.198)"/></g><g transform="translate(49.366 6.812)"><path class="j" d="M279.663,287.58a.68.68,0,0,0-.491.329c-.181.348-.418.9-.653,1.488a21.96,21.96,0,0,1-.824,2.184,5.372,5.372,0,0,1,.521-2.3,7.534,7.534,0,0,1,.768-1.5.652.652,0,0,1,.487-.273C279.612,287.5,279.672,287.563,279.663,287.58Z" transform="translate(-277.67 -287.503)"/></g></g><g transform="translate(0 42.388)"><g transform="translate(6.027)"><path class="h" d="M167.182,279.827,169.8,288.7l16.621-7.525c-.6-1.857-3.346-10.132-8.609-23.261a22.573,22.573,0,0,0-17.23-13.888,98.631,98.631,0,0,0-15.916-1.561,19.767,19.767,0,0,0-19.181,15.816c-1.408,6.975,1.057,11.577-.531,26.835l-.506,38.36,44.376,1.631Z" transform="translate(-124.45 -242.461)"/></g><path class="h" d="M123.4,291.032s-6.165.362-8.594-4.308c0,0,6.648-24.57,8.965-27.463Z" transform="translate(-114.809 -248.759)"/><g transform="translate(7.336 13.641)"><path class="g" d="M179.438,268.595a1.9,1.9,0,0,1-.527.284,5.167,5.167,0,0,1-1.691.319,11.041,11.041,0,0,1-2.694-.339c-1.027-.232-2.172-.576-3.449-.788a16.167,16.167,0,0,0-2.013-.109,12.8,12.8,0,0,0-2.157.358,18.676,18.676,0,0,0-4.486,1.867c-1.517.829-3.06,1.8-4.7,2.766a24.574,24.574,0,0,1-5.383,2.492,10.6,10.6,0,0,1-5.97.1,15.163,15.163,0,0,1-4.88-2.645c-1.395-1.078-2.609-2.215-3.755-3.254a31.789,31.789,0,0,0-3.311-2.7,12.83,12.83,0,0,0-5.607-2.388,18.806,18.806,0,0,0-2.267-.022,2.013,2.013,0,0,1,.578-.15,7.593,7.593,0,0,1,1.713-.081,12.471,12.471,0,0,1,5.84,2.259,30.709,30.709,0,0,1,3.413,2.682c1.165,1.025,2.384,2.139,3.758,3.18a14.769,14.769,0,0,0,4.693,2.509,10.028,10.028,0,0,0,5.612-.108A24.414,24.414,0,0,0,157.4,272.4c1.633-.944,3.191-1.913,4.739-2.741a18.825,18.825,0,0,1,4.643-1.864,13.126,13.126,0,0,1,2.265-.335,15.869,15.869,0,0,1,2.11.158c1.319.249,2.454.627,3.46.888a11.673,11.673,0,0,0,2.607.44A7.2,7.2,0,0,0,179.438,268.595Z" transform="translate(-126.545 -264.283)"/></g><g transform="translate(29.025 46.97)"><path class="g" d="M181.271,319.194a7.875,7.875,0,0,0-2.759-1,9.414,9.414,0,0,0-3.173.174c-1.19.242-2.474.669-3.876,1.022a15.64,15.64,0,0,1-7.372.1,7.617,7.617,0,0,1-2.851-1.093c.039-.1,1.12.333,2.942.642a17.2,17.2,0,0,0,7.124-.281c1.367-.343,2.676-.76,3.919-.979a9.04,9.04,0,0,1,3.361-.039,5.243,5.243,0,0,1,2.1.865C181.123,318.922,181.3,319.168,181.271,319.194Z" transform="translate(-161.24 -317.598)"/></g><g transform="translate(28.566 70.97)"><path class="g" d="M181.454,356.489c.028.029-.165.284-.587.678a9.136,9.136,0,0,1-2.012,1.391,7.974,7.974,0,0,1-3.547.9,11.759,11.759,0,0,1-4.353-.973c-1.457-.568-2.792-1.205-4.048-1.565a9.717,9.717,0,0,0-3.428-.4,5.4,5.4,0,0,0-2.214.651c-.485.269-.716.489-.758.444-.021-.018.149-.3.619-.656a4.971,4.971,0,0,1,2.3-.9,9.418,9.418,0,0,1,3.639.28,40.245,40.245,0,0,1,4.126,1.537,11.922,11.922,0,0,0,4.119.98,8.015,8.015,0,0,0,3.348-.716A29.207,29.207,0,0,0,181.454,356.489Z" transform="translate(-160.505 -355.991)"/></g><g class="k" transform="translate(1.359 42.172)"><path d="M116.983,310.454c5.812,1.188,11.78-.01,17.7-.361,3.591-.213,7.574-.6,10.415,1.606,2.252,1.75,3.159,4.692,3.808,7.47,2.477,10.585,2.928,20.045,3.485,30.9l-28.751-.621Z" transform="translate(-116.983 -309.923)"/></g><path class="l" d="M127.623,278.875l1.245,17.928h-3.793Z" transform="translate(-118.658 -256.112)"/></g><path class="g" d="M142.074,372.057l57.07,2.02a17.023,17.023,0,0,1,16.418,17.277l-.5,32.392H194.13l-1.347-27.928-50.709-1.333Z" transform="translate(-125.03 -248.656)"/></g><g transform="translate(0 82.489)"><rect class="f" width="5.613" height="20.548" transform="translate(47.101 70.524)"/><path class="f" d="M88.359,311.851v49.51a11.757,11.757,0,0,0,11.757,11.757h32.969V311.851a5.24,5.24,0,0,0-5.24-5.24H93.6A5.24,5.24,0,0,0,88.359,311.851Z" transform="translate(-88.359 -306.611)"/><path class="f" d="M182.741,414.2H102.454a8.715,8.715,0,0,1,8.715-8.715h62.858a8.714,8.714,0,0,1,8.715,8.715Z" transform="translate(-93.643 -343.678)"/><g transform="translate(10.995 60.654)"><path class="g" d="M139.678,403.638a4.449,4.449,0,0,1-.125,1.456,5.909,5.909,0,0,1-4.69,4.439,8.156,8.156,0,0,1-1.546.106l-1.62.009-7.214.02-13.108-.034-3.972-.047-1.08-.029a1.614,1.614,0,0,1-.376-.033,1.682,1.682,0,0,1,.376-.033l1.08-.031,3.972-.056,13.108-.061,7.214.005,1.62.005a8,8,0,0,0,1.5-.085,5.646,5.646,0,0,0,2.445-1.042,5.835,5.835,0,0,0,2.169-3.163A14,14,0,0,0,139.678,403.638Z" transform="translate(-105.947 -403.638)"/></g><g transform="translate(44.982 70.534)"><path class="g" d="M170.168,419.607a37.424,37.424,0,0,1-4.925.162,37.416,37.416,0,0,1-4.925-.162,37.4,37.4,0,0,1,4.925-.163A37.4,37.4,0,0,1,170.168,419.607Z" transform="translate(-160.317 -419.444)"/></g><g transform="translate(38.389 35.726)"><path class="f" d="M190.642,394.976a2.245,2.245,0,0,1-.153-.606c-.079-.4-.183-.993-.312-1.757-.256-1.527-.606-3.74-1.025-6.476-.224-1.362-.405-2.882-.709-4.463q-.115-.591-.236-1.2l-.356-1.213q-.089-.308-.181-.62l-.24-.609c-.164-.408-.315-.827-.5-1.24a22.835,22.835,0,0,0-2.99-4.784,21.376,21.376,0,0,0-4.493-4.05A20.031,20.031,0,0,0,174,365.332a20.405,20.405,0,0,0-5.558-.954c-3.639-.079-6.951-.058-9.714-.1s-5.008-.064-6.556-.1c-.774-.019-1.375-.04-1.783-.061a2.275,2.275,0,0,1-.621-.066,2.274,2.274,0,0,1,.621-.066c.408-.021,1.009-.042,1.783-.061,1.548-.039,3.788-.074,6.556-.1s6.056-.086,9.734-.038a20.671,20.671,0,0,1,5.729.945,20.391,20.391,0,0,1,5.623,2.693,21.691,21.691,0,0,1,4.622,4.185,23.028,23.028,0,0,1,3.046,4.945c.183.426.334.86.5,1.28q.121.316.239.629.091.322.179.639.177.634.349,1.25.114.628.226,1.237c.286,1.62.437,3.117.633,4.491.361,2.745.641,4.967.821,6.506.089.769.154,1.367.191,1.773A2.293,2.293,0,0,1,190.642,394.976Z" transform="translate(-149.77 -363.762)"/></g></g></g><g transform="translate(46.448 207.727)"><g transform="translate(0)"><g transform="translate(0.004)"><path class="h" d="M52.909,317.858a5.088,5.088,0,0,0,.93,4.884H57.89S57.513,318.164,52.909,317.858Z" transform="translate(-49.969 -312.023)"/><path class="m" d="M52.909,317.858a5.088,5.088,0,0,0,.93,4.884H57.89S57.513,318.164,52.909,317.858Z" transform="translate(-49.969 -312.023)"/><path class="h" d="M62.7,308.53c-.166-.2-3.615,5.2-1.678,10.713h3.8S66.3,312.83,62.7,308.53Z" transform="translate(-52.887 -308.524)"/><path class="h" d="M72.064,317.858a4.947,4.947,0,0,0-4.615,4.884h3.8A5.987,5.987,0,0,0,72.064,317.858Z" transform="translate(-55.518 -312.023)"/><path class="f" d="M51.92,325.326a8.524,8.524,0,0,0-3.415,8.457c.976,5.611,6.912,8.051,6.912,8.051H62s6.7-2.945,6.536-9.044-4.155-7.373-4.155-7.373Z" transform="translate(-48.364 -314.823)"/></g><g transform="translate(0 15.74)"><path class="g" d="M68.515,335.25a3.31,3.31,0,0,0-.545-.678,2.946,2.946,0,0,0-2.2-.63,7.98,7.98,0,0,0-3.217,1.4,11.016,11.016,0,0,1-1.912.985,4.444,4.444,0,0,1-2.322.231,14.94,14.94,0,0,1-4.088-1.712,5.985,5.985,0,0,0-3.371-.811,3.2,3.2,0,0,0-2.054,1.042,3.861,3.861,0,0,0-.448.749c-.011,0,0-.081.041-.23a1.989,1.989,0,0,1,.307-.6,3.236,3.236,0,0,1,2.12-1.192,6.086,6.086,0,0,1,3.535.77,15.365,15.365,0,0,0,4.008,1.66,4.157,4.157,0,0,0,2.162-.21,11.094,11.094,0,0,0,1.866-.941,7.931,7.931,0,0,1,3.351-1.371,3,3,0,0,1,2.305.766,1.919,1.919,0,0,1,.391.547A.585.585,0,0,1,68.515,335.25Z" transform="translate(-48.357 -333.704)"/></g><g transform="translate(0.31 17.21)"><path class="g" d="M68.791,337.6a3.329,3.329,0,0,0-.536-.675,2.89,2.89,0,0,0-2.174-.633,7.832,7.832,0,0,0-3.182,1.4,10.9,10.9,0,0,1-1.89.985,4.36,4.36,0,0,1-2.3.233,14.7,14.7,0,0,1-4.045-1.713,5.859,5.859,0,0,0-3.337-.809,3.155,3.155,0,0,0-2.027,1.045,3.944,3.944,0,0,0-.44.745c-.011,0,0-.081.039-.228a2,2,0,0,1,.3-.594,3.187,3.187,0,0,1,2.094-1.2,5.95,5.95,0,0,1,3.5.768,15.159,15.159,0,0,0,3.965,1.661,4.072,4.072,0,0,0,2.141-.211,10.945,10.945,0,0,0,1.845-.941,7.791,7.791,0,0,1,3.317-1.371,2.945,2.945,0,0,1,2.281.77,1.9,1.9,0,0,1,.383.546C68.782,337.521,68.8,337.6,68.791,337.6Z" transform="translate(-48.853 -336.056)"/></g><g transform="translate(2.68 18.596)"><path class="g" d="M53.129,338.395c-.026-.036.173-.152.408.041a.45.45,0,0,1,.126.5.534.534,0,0,1-.526.351.547.547,0,0,1-.478-.409.484.484,0,0,1,.146-.483c.225-.189.419-.1.4-.066s-.14.074-.233.221a.259.259,0,0,0-.03.242.27.27,0,0,0,.213.171.258.258,0,0,0,.226-.139.217.217,0,0,0-.018-.227C53.277,338.449,53.137,338.439,53.129,338.395Z" transform="translate(-52.644 -338.273)"/></g><g transform="translate(10.139 16.221)"><path class="g" d="M65.062,334.594c-.026-.035.173-.151.409.041a.451.451,0,0,1,.126.5.535.535,0,0,1-.526.351.546.546,0,0,1-.478-.409.483.483,0,0,1,.146-.482c.225-.189.419-.1.4-.066,0,.046-.14.073-.233.22a.262.262,0,0,0-.029.243.27.27,0,0,0,.212.17.256.256,0,0,0,.226-.139.216.216,0,0,0-.018-.227C65.21,334.648,65.07,334.639,65.062,334.594Z" transform="translate(-64.577 -334.473)"/></g><g transform="translate(17.372 18.704)"><path class="g" d="M76.632,338.566c-.026-.035.173-.151.408.041a.451.451,0,0,1,.126.5.535.535,0,0,1-.526.351.546.546,0,0,1-.478-.409.483.483,0,0,1,.146-.482c.225-.189.419-.1.4-.066,0,.046-.139.073-.232.22a.26.26,0,0,0-.03.243.271.271,0,0,0,.213.17.256.256,0,0,0,.225-.139.216.216,0,0,0-.018-.227C76.78,338.62,76.64,338.611,76.632,338.566Z" transform="translate(-76.147 -338.445)"/></g></g></g><g transform="translate(253.572 207.557)"><path class="f" d="M381.318,316.152l2.145,22.243H394.3l2.6-22.243Z" transform="translate(-380.301 -311.214)"/><path class="g" d="M380.708,311.553a4.64,4.64,0,0,0-1.016,2.936h17.613a3.282,3.282,0,0,0-1.016-2.936Z" transform="translate(-379.692 -309.49)"/><path class="g" d="M384.174,308.278l-.6,2.2,13.295.1L396,308.253Z" transform="translate(-381.149 -308.253)"/><path class="h" d="M380.962,325.059c0,.206,1.29,11.195,1.29,11.195H395.5l1.262-11.195Z" transform="translate(-380.168 -314.553)"/></g></g></svg>