<svg id="Tools_Technology_cloud--download_32" data-name="Tools / Technology / cloud--download / 32" xmlns="http://www.w3.org/2000/svg" width="90" height="90" viewBox="0 0 90 90">
  <path id="Fill" d="M39.261,78.674l0,0L25.2,64.613l3.966-3.966L36.449,67.9V33.676h5.624V67.9l7.285-7.257,3.964,3.966L39.263,78.672Zm-19.688-22.5h0l-1.4,0A18.28,18.28,0,0,1,14.51,20.007a25.313,25.313,0,0,1,49.5,0,18.28,18.28,0,0,1-3.658,36.166h-1.4V50.549h1.4c.172.007.346.01.518.01a12.667,12.667,0,0,0,.495-25.323H58.949l-.283-2.306a19.687,19.687,0,0,0-39.037,0l-.056,2.306h-2.42a12.667,12.667,0,0,0,.5,25.323c.174,0,.343,0,.517-.01h1.407v5.627Z" transform="translate(5.74 5.7)" fill="#717171"/>
</svg>
