<svg
        xmlns="http://www.w3.org/2000/svg"
        width="230.306"
        height="179.709"
        viewBox="0 0 230.306 179.709"
      >
        <defs>
          <style>
            .a {
              fill: rgba(255, 255, 255, 0);
              stroke: rgba(0, 0, 0, 0);
            }
            .b {
              fill: #e7effe;
            }
            .c,
            .e {
              fill: #fff;
            }
            .c {
              stroke: #000;
            }
            .c,
            .f {
              stroke-miterlimit: 10;
            }
            .d {
              fill: #15C5F8;
            }
            .f,
            .h {
              fill: none;
            }
            .f {
              stroke: #fff;
            }
            .g {
              stroke: none;
            }
          </style>
        </defs>
        <g transform="translate(-1003 -349.29)">
          <g class="a" transform="translate(1193.306 349.29)">
            <rect class="g" width="40" height="179.709" />
            <rect class="h" x="0.5" y="0.5" width="39" height="178.709" />
          </g>
          <g transform="translate(802.536 68.579)">
            <path
              class="b"
              d="M244.869,431.48c-7.307-1.462-14.555-3.306-21.731-5.3-6.746-1.874-13.846-4.13-18.388-9.458-13.638-16,8.6-32.509,20.371-39.405,9.614-5.633,21.067-12.235,32.543-10.582,6.514.94,12.639,3.6,18.63,6.329,19.976,9.091,39.936,19.325,61.686,22.267,4.555.616,42.353,1.617,40.62,7.775a5.543,5.543,0,0,1-2.069,2.6c-7.947,6.438-17.846,9.869-27.542,13.123-24.479,8.217-49.607,16.163-75.427,15.9A154.583,154.583,0,0,1,244.869,431.48Z"
              transform="translate(0 25.689)"
            />
            <g transform="translate(234.479 280.711)">
              <path
                d="M245.21,385.612c-3.175,5.8,1.783,9.986,5.913,13.88a13.3,13.3,0,0,0,3.774,2.689c2.47,1.056,5.28.806,7.949.509,19.177-2.127,38.722-4.713,57.587-8.768,4.437-.954,8.826-2.118,13.249-3.118,5.752-1.3,11.752-3.81,17.238-6a55.4,55.4,0,0,0,15.376-9.259c.079-.068.157-.14.237-.209a5.4,5.4,0,0,0,2.034-2.025c2.37-2.7,4-6.07,2.641-9.219-1.57-3.628-6.16-4.663-10.1-4.975-11.763-.933-23.551.334-35.178,2.082-7.841,1.18-15.609,2.849-23.481,3.821-8.01.989-15.644.1-23.607.283A39.885,39.885,0,0,0,245.21,385.612Z"
                transform="translate(-221.379 -257.321)"
              />
              <path
                class="c"
                d="M282.362,373.22c-4.868-1.919-9.883-.121-12.564-5.659a53.993,53.993,0,0,1-2.136-6.314,26.979,26.979,0,0,0-13.188-15.217c4.79-4.516,11.211-6.768,17.051-9.807a66.206,66.206,0,0,0,14.727-10.444c4.053-3.8,10.334-11.97,6.973-17.892-2.7-4.767-9.412-3.281-13.75-2.174-6.039,1.543-11.312,1.831-16.759,5.39-5.245,3.427-9.57,8.061-13.8,12.678-6.613,7.212-21.043,21.313-11.61,31.437,5.34,5.73,10.846,11.217,17.293,15.7a34.587,34.587,0,0,0,5.711,3.358c4.005,1.767,5.552,5.024,9.561,6.824a29.528,29.528,0,0,0,10.559,2.763c2.711.133,7.12-.5,7.379-3.767C288.049,377.012,284.916,374.227,282.362,373.22Z"
                transform="translate(-224.376 -273.56)"
              />
              <path
                class="c"
                d="M330.235,361.168c-2.372,3.131-6.33,5.186-10.117,4.3-4.009-.937-6.651-4.667-8.8-8.175-3.424-5.575-6.62-11.38-8.334-17.694-1.888-6.949-2.773-18.007,4.126-22.626,4.907-3.285,12.929-1.423,16.722,2.777,8.188,9.068,13.609,28.829,7.284,40.081A11.813,11.813,0,0,1,330.235,361.168Z"
                transform="translate(-204.178 -270.353)"
              />
              <path
                d="M333.041,310.378c-6.07-6.425-13.282-11.143-22.739-10.909-2.548.064-5.077.481-7.624.57-8.937.317-17.794-1.915-26.409,1.527-9.194,3.674-17.709,8.924-25.775,14.617-.648.459,15.077,22.032,16.747,23.988,6.508-4.768,4.947,17.7,4.845,20.736-.255,7.565-.448,15.211,1.108,22.664a2.689,2.689,0,0,1,1.449-1.225c.767-.166,1.249.759,1.931.928,1.461.363,3.506-.016,5.019-.021,2.891-.01,5.784,0,8.676-.022a152.833,152.833,0,0,0,19.948-1.008,66.731,66.731,0,0,1,10.309-.92c1.813-6.277,1.177-13.833,1.355-20.072.187-6-.295-11.879.166-17.854a186.453,186.453,0,0,0,25.017-8.088c.49-.2-3.9-10.173-4.377-11.134a54.425,54.425,0,0,0-6.79-10.54C334.972,312.5,334.021,311.417,333.041,310.378Z"
                transform="translate(-219.5 -275.095)"
              />
              <path
                class="c"
                d="M284.09,397.509c-1.235,1.235-27.231,6.939-27.231,6.939l-1.225-13.215,24.191-8.659Z"
                transform="translate(-217.955 -250.201)"
              />
              <path
                d="M345.739,392.562a65.777,65.777,0,0,1,9.341-4.711c3.465-1.306,7.306-2.105,9.974-4.672,2.826-2.717,3.718-6.82,4.474-10.665a29.611,29.611,0,0,0-.35-13.289,17.576,17.576,0,0,0-12.663-12.436,16.626,16.626,0,0,0-11.052,1.355c-2.492,1.257-4.629,3.128-7.091,4.442a59.214,59.214,0,0,1-6.469,2.63c-6.6,2.569-12.664,6.409-18.67,10.041-6.038,3.653-11.444,8.238-17.284,12.184-2.305,1.558-26.526,13.316-26.523,13.324,3.141,6.994,5.884,14.186,8.757,21.317,15.663-2.121,30.757-7.047,45.99-11.141,3.021-.812,5.828-2.026,8.854-2.716a38.024,38.024,0,0,0,9.672-3.954C343.718,393.716,344.728,393.139,345.739,392.562Z"
                transform="translate(-213.823 -261.039)"
              />
              <path
                d="M264.416,405.511c-4.793.949-9.6-.077-14.774-.634-4.03-.434-8.165.308-12.17-.309-5.349-.824-9.506-4.608-9.9-9.957-.222-3.008-.333-6.372,1.652-8.644A8,8,0,0,1,236,383.711a30.938,30.938,0,0,1,7.123,1.971,104.311,104.311,0,0,0,12.238,3.237c3.345.711,6.221,2.373,9.537.73a.764.764,0,0,1,.567-.12c.2.07.295.3.366.5q1.774,4.982,3.189,10.083c.489,1.766,1.3,2.789-.147,3.883A11.755,11.755,0,0,1,264.416,405.511Z"
                transform="translate(-226.395 -249.874)"
              />
              <path
                class="c"
                d="M295.766,397.509C297,398.744,323,404.449,323,404.449l1.224-13.215-24.189-8.659Z"
                transform="translate(-205.934 -250.201)"
              />
              <path
                d="M249.808,394.289a88.172,88.172,0,0,1-14.46-6.878,14.654,14.654,0,0,1-4.184-3.374c-1.562-2.021-2.083-4.631-2.56-7.141-1.775-9.346-4.292-16.467,2.483-24.408,5.515-6.463,14.367-8.972,21.868-4.3,4.872,3.034,8.141,8.531,13.554,10.442,2.916,1.029,6.244.824,9.062,2.129,2.591,1.2,5.15,3.185,7.626,4.682,6.038,3.653,11.444,8.238,17.284,12.184,2.305,1.558,26.526,13.316,26.523,13.324-3.141,6.994-5.884,14.186-8.757,21.317-15.663-2.121-30.758-7.047-45.99-11.141C264.714,399.1,257.1,397.043,249.808,394.289Z"
                transform="translate(-226.639 -261.221)"
              />
              <path
                d="M318.681,405.555c4.793.949,9.6-.077,14.774-.634,4.03-.434,8.164.308,12.17-.309,5.067-.781,10.841-5.808,11.069-11.18a11.787,11.787,0,0,0-1-4.9,9.481,9.481,0,0,0-1.274-2.316,7.452,7.452,0,0,0-5.169-2.651c-3.036-.281-6.079.7-8.954,1.541a69.4,69.4,0,0,0-8.562,2.572,22.366,22.366,0,0,1-11.78,1.623,7.515,7.515,0,0,0-3.108-.057c-2.249.656-2.025,4.048-2.2,5.905-.261,2.8-.4,5.667-1.526,8.283A17.57,17.57,0,0,0,318.681,405.555Z"
                transform="translate(-200.735 -249.918)"
              />
              <path
                class="c"
                d="M313.268,326.539c0-.036,0-.073-.007-.11l-.2-3.289a7.717,7.717,0,0,1,.023-1.7c.277-1.71,1.635-3.012,2.917-4.178.968-.881,9.138-8.858,9.763-8.4,2.55,1.935,4.118.2,5.98-1.782a3.248,3.248,0,0,0,1.127-2.153c-.021-.832-1.02-1.61-1.693-1.12q2.22-2.456,4.317-5.02c1.232-1.5,2.451-2.428,1.611-4.42a14.687,14.687,0,0,0-7.292-7.149c-2.476-1.209-6.433-2.9-9.245-2.7-3.1.23-4.7,2.847-7.036,4.442a.568.568,0,0,1-.339.134.675.675,0,0,1-.37-.231,2.609,2.609,0,0,0-3.214.061,6.268,6.268,0,0,0-1.895,2.869,4.016,4.016,0,0,0-.37,2.173,1.556,1.556,0,0,0,1.53,1.336c-.582.09-1.546,4.513-1.7,5.076-.791,2.811-2.522,4.388-4.489,6.559-1.771,1.956-3.908,4.074-6.544,3.958-1.168-.052-2.624-.443-3.3.515a2.254,2.254,0,0,0-.322,1.128c-.469,5.784,3.253,10.915,7.91,13.956C302.88,328.1,313.495,332.45,313.268,326.539Z"
                transform="translate(-206.917 -279.573)"
              />
              <path
                class="d"
                d="M1.661,0H69.2a1.66,1.66,0,0,1,1.66,1.66V42.8a1.66,1.66,0,0,1-1.66,1.66H1.66A1.66,1.66,0,0,1,0,42.8V1.661A1.661,1.661,0,0,1,1.661,0Z"
                transform="translate(36.023 70.69)"
              />
              <path
                d="M286.751,352.107a4.168,4.168,0,1,1-4.168-4.169A4.168,4.168,0,0,1,286.751,352.107Z"
                transform="translate(-211.131 -260.575)"
              />
              <path
                d="M340.016,287.653a6.078,6.078,0,0,0-.339-1.277,4.839,4.839,0,0,0-2.212-2.6,6.928,6.928,0,0,0-2.615-.629,22.066,22.066,0,0,0-3.156-.043,25,25,0,0,1-3.038.118,15.867,15.867,0,0,1-4.566-1.235,16.609,16.609,0,0,0-4.561-1.262c-3.279-.255-5.6,2.243-7.575,4.554a47.976,47.976,0,0,0-5.5,8.561c-3.115,5.784-4.066,12.945,1.805,17.441,7.692,5.891,16.853-2.144,22.606-7.056a33.141,33.141,0,0,0,3.567-2.852,21.88,21.88,0,0,0,2.885-4.356,30.853,30.853,0,0,0,2.095-4.635A10.154,10.154,0,0,0,340.016,287.653Zm-26.184,19.471a9.132,9.132,0,0,1-3.461-1.4c-.7-.539.109-1.678.78-1.121a8.092,8.092,0,0,0,3.027,1.211C314.928,306.018,314.578,307.3,313.832,307.124Zm18.343-10.149a6.829,6.829,0,0,1-1.262,2.291c-2.426,3.212-5.949,7.259-9.481,9.268-.133.075-.27.139-.4.213-.955-3.3-2.155-6.568-5.182-8.514A12.91,12.91,0,0,0,307,298.665c1.089-4.576,4.585-11.59,9.932-11.657a9.618,9.618,0,0,1,5.489,2.03c1.626,1.137,3.077,2.511,4.739,3.592C329.037,293.85,332.947,294.067,332.175,296.974Z"
                transform="translate(-203.475 -280.711)"
              />
              <path
                class="c"
                d="M318.478,308.08q.244-.6.524-1.184c1.444-3.006,4.638-4.256,7.125-6.387,1.537-1.318,3.1-2.356,4.7-3.58.767-.586,1.4-1.472,2.2-1.962a1.45,1.45,0,0,1,1.687.034,1.873,1.873,0,0,1,.48,1.3c.2,3.1-1.523,5.494-3.033,7.988-1.32,2.179-3.394,3.546-4.774,5.662-1.357,2.079-1.136,4.774-.864,7.242q.684,6.22,1.368,12.438a79.97,79.97,0,0,0,2.331,10.9c1.428,5.775,1.333,12.487,1.445,18.405.113,5.94-3.814,13.061-9.987,14.308-12.4,2.505-9.7-15.015-10.036-22.053-.264-5.6,1.077-11.318,2.346-16.712,1.328-5.644,1.465-11.476,2.288-17.2A39.693,39.693,0,0,1,318.478,308.08Z"
                transform="translate(-201.189 -276.517)"
              />
              <path
                class="e"
                d="M319.142,353.9a7.367,7.367,0,0,1-.081,1.459,2.731,2.731,0,0,1-2.053,2.329c-1.166.178-2.223-.678-3.016-1.552a18.43,18.43,0,0,1-4.746-12.668,6.654,6.654,0,0,1,.92-3.812,2.739,2.739,0,0,1,3.475-1,4.1,4.1,0,0,1,1.437,2.216q1.579,4.255,3.157,8.509A15.621,15.621,0,0,1,319.142,353.9Z"
                transform="translate(-201.897 -263.443)"
              />
              <path
                d="M320.795,351.167a3,3,0,0,1-1.965.582c-.526-.059-.6.76-.121.9a2.4,2.4,0,0,0,2.743-.825C321.746,351.435,321.179,350.918,320.795,351.167Z"
                transform="translate(-199.158 -259.628)"
              />
              <path
                d="M238.582,339.594a2.269,2.269,0,0,1-.764-1.956,1.059,1.059,0,0,0-.715-1.261,1.03,1.03,0,0,0-1.259.716,4.387,4.387,0,0,0,1.289,3.949C238.092,341.946,239.544,340.5,238.582,339.594Z"
                transform="translate(-223.899 -264.048)"
              />
              <path
                class="f"
                d="M268,390.868q9.709,2.372,19.59,3.941"
                transform="translate(-214.251 -247.717)"
              />
              <path
                class="f"
                d="M306.625,390.9q1.324-3.088,2.787-6.11c-8.429-4.729-16.647-9.771-24.995-14.639"
                transform="translate(-209.333 -253.923)"
              />
              <path
                class="f"
                d="M263.848,388.865a128.5,128.5,0,0,1-18.014-5.75"
                transform="translate(-220.89 -250.039)"
              />
            </g>
          </g>
        </g>
      </svg>