<svg xmlns="http://www.w3.org/2000/svg" width="24" height="24" viewBox="0 0 24 24"><defs><style>.a{fill:#ffeff3;}.b{fill:#fa235d;}</style></defs><g transform="translate(-1273 -718)"><circle class="a" cx="12" cy="12" r="12" transform="translate(1273 718)"/><g transform="translate(1280.09 725.09)"><g transform="translate(0 0)"><path class="b" d="M24.232,15.881a.756.756,0,0,0,0-1.058.739.739,0,0,0-1.058,0L19.527,18.47l-3.647-3.647a.748.748,0,1,0-1.058,1.058l3.647,3.647-3.647,3.647a.739.739,0,0,0,0,1.058.756.756,0,0,0,1.058,0l3.647-3.647,3.647,3.647a.748.748,0,0,0,1.058-1.058l-3.647-3.647Z" transform="translate(-14.6 -14.6)"/></g></g></g></svg>