<svg xmlns="http://www.w3.org/2000/svg" width="46.499" height="46.499" viewBox="0 0 46.499 46.499"><defs><style>.a{fill:#003da7;}.b{fill:#e9eef2;}.c{fill:#216ef4;}.d{fill:#c3c6c7;}.e{fill:#fff;}</style></defs><path class="a" d="M4.116,0H37.559a4.116,4.116,0,0,1,4.116,4.116V29.584A4.116,4.116,0,0,1,37.559,33.7H4.116A4.116,4.116,0,0,1,0,29.584V4.116A4.116,4.116,0,0,1,4.116,0Z" transform="translate(4.824 12.799)"/><path class="b" d="M152.024,32.006V62.429a3.2,3.2,0,0,1-3.2,3.2H123.2a3.2,3.2,0,0,1-3.2-3.2V27.2a3.2,3.2,0,0,1,3.2-3.2h20.816Z" transform="translate(-110.393 -24)"/><path class="c" d="M64.03,142.429H27.2a3.2,3.2,0,0,1-3.2-3.2V107.2a3.2,3.2,0,0,1,3.2-3.2H36.81a3.2,3.2,0,0,1,3.2,3.2v6.4H57.625a3.2,3.2,0,0,1,3.2,3.2v22.417a3.2,3.2,0,0,0,3.2,3.2" transform="translate(-24 -95.994)"/><path class="d" d="M284.009,145.6H272.8a.8.8,0,0,1,0-1.6h11.208a.8.8,0,1,1,0,1.6Z" transform="translate(-247.181 -131.991)"/><path class="d" d="M222.4,97.6h-5.6a.8.8,0,1,1,0-1.6h5.6a.8.8,0,1,1,0,1.6Z" transform="translate(-196.786 -88.795)"/><path class="d" d="M368.006,32.006h-4.8a3.2,3.2,0,0,1-3.2-3.2V24Z" transform="translate(-326.375 -24)"/><path class="d" d="M226.4,145.6h-1.6a.8.8,0,1,1,0-1.6h1.6a.8.8,0,1,1,0,1.6Z" transform="translate(-203.985 -131.991)"/><path class="e" d="M133.6,264l-5.6,6.4h3.2v9.607h4.8V270.4h3.2Z" transform="translate(-117.592 -239.982)"/></svg>