<svg xmlns="http://www.w3.org/2000/svg" width="174.826" height="187.008" viewBox="0 0 174.826 187.008"><g transform="translate(-412.16 -405.827)"><path d="M412.16,443.318A420.409,420.409,0,0,0,446.6,405.827q.519.42,1.042.836a421.01,421.01,0,0,1-34.36,37.592Q412.72,443.787,412.16,443.318Z" fill="#008a87"/><path d="M413.244,444.224a420.749,420.749,0,0,0,34.367-37.588,359.353,359.353,0,0,0,92.057,53.094,457.753,457.753,0,0,1-27.932,44.912A404.476,404.476,0,0,1,413.244,444.224Z" fill="#5cb4b2"/><path d="M427.45,436.483q7.347-7.766,14.2-15.788a12.259,12.259,0,0,0,17.161-1.91,361.877,361.877,0,0,0,63.02,36.568c-3.434,5.766-1.043,12.911,5.775,15.791q-5.613,9.364-11.751,18.573c-6.967-3.027-15.616-1.111-19.753,4.433a401.748,401.748,0,0,1-66.9-40.986C433.852,448.271,432.867,440.829,427.45,436.483Z" fill="#abfffc"/><path d="M465.8,469.314c-8.138-4.962-9.736-14.551-4.314-21.252,5.443-6.71,15.545-8.345,23.3-3.822,7.734,4.528,10.5,13.822,5.443,20.967C485.188,472.345,473.914,474.276,465.8,469.314Z" fill="#5cb4b2"/><path d="M584.412,446,560.7,469.712a2.427,2.427,0,0,1-3.433,0h0l-14.939-14.939h0l25.427-25.428a2.427,2.427,0,0,1,3.432,0l13.224,13.223A2.429,2.429,0,0,1,584.412,446Z" fill="#00ba5d"/><path d="M586.275,447.865,560.844,473.3h0l-16.659-16.659h0l25.431-25.431a2.428,2.428,0,0,1,3.433,0l13.226,13.226A2.429,2.429,0,0,1,586.275,447.865Z" fill="#00c462"/><path d="M565.823,449.524a6.086,6.086,0,1,0,0-8.607,6.086,6.086,0,0,0,0,8.607Z" fill="#00ba5d"/><path d="M574.779,506.887l-73.9,73.9a14.378,14.378,0,0,1-20.334,0h0L430.72,530.631c-5.615-5.615-3.943-12.715,1.672-18.33l73.9-73.9a14.377,14.377,0,0,1,20.333,0h0l48.153,48.151a14.377,14.377,0,0,1,0,20.333Z" fill="#17bc69"/><path d="M565.968,507.378l-66.114,66.116a12.752,12.752,0,0,1-18.028.164l-43.77-44.064c-4.933-4.933-3.393-11.242,1.629-16.266L505.8,447.214a12.749,12.749,0,0,1,18.027-.163l42.3,42.3A12.751,12.751,0,0,1,565.968,507.378Z" fill="#06773c"/><rect width="91.683" height="46.959" rx="9.968" transform="translate(468.763 530.558) rotate(-45)" fill="#00c160"/><path d="M516.664,476.135A14.25,14.25,0,1,1,502.4,461.894h0A14.25,14.25,0,0,1,516.664,476.135Z" fill="#ffbf40"/><path d="M502.39,488.359a12.242,12.242,0,1,1,0-24.484h.007a12.242,12.242,0,1,1,.006,24.484h-.013Zm0-22.612h-.007a10.37,10.37,0,1,0,0,20.741h.007a10.37,10.37,0,0,0,0-20.741Z" fill="#ffdf67"/><path d="M577.364,538.62l-69.1,50.125a13.961,13.961,0,0,1-19.743,0v0L430.07,529.969l80.778-61.8a11.178,11.178,0,0,1,15.808,0l50.711,50.712a13.96,13.96,0,0,1,0,19.742Z" fill="#05a354"/><path d="M497.934,588.407a.674.674,0,0,1-.119-.011,8.673,8.673,0,0,1-3.8-1.7.671.671,0,1,1,.826-1.058,7.335,7.335,0,0,0,3.213,1.433.671.671,0,0,1-.118,1.331ZM504.066,587a.671.671,0,0,1-.4-1.213,7.454,7.454,0,0,0,.871-.746l2.207-1.611a.67.67,0,1,1,.787,1.085h0l-2.126,1.543a7.553,7.553,0,0,1-.947.813.687.687,0,0,1-.391.126Zm-14.253-4.686a.669.669,0,0,1-.474-.2l-2.744-2.744a.671.671,0,0,1,.949-.949l2.747,2.747a.671.671,0,0,1-.475,1.146Zm22.561-1.467a.671.671,0,0,1-.394-1.214l3.14-2.279a.671.671,0,0,1,.788,1.085l-3.14,2.279a.66.66,0,0,1-.392.129ZM482.5,575a.669.669,0,0,1-.474-.2l-2.744-2.744a.671.671,0,1,1,.949-.949l2.744,2.743a.671.671,0,0,1-.475,1.146Zm38.249-.228a.671.671,0,0,1-.394-1.214l3.14-2.277a.671.671,0,0,1,.788,1.087h0l-3.139,2.277a.669.669,0,0,1-.395.129Zm8.373-6.075a.67.67,0,0,1-.394-1.213l3.141-2.277a.671.671,0,0,1,.787,1.086h0l-3.14,2.277a.676.676,0,0,1-.394.13Zm-53.938-1.013a.671.671,0,0,1-.475-.2l-2.741-2.743a.671.671,0,1,1,.919-.978l.029.029,2.743,2.741a.671.671,0,0,1-.475,1.146Zm62.313-5.06a.671.671,0,0,1-.4-1.214l3.141-2.279a.671.671,0,1,1,.817,1.064l-.028.021-3.141,2.284a.665.665,0,0,1-.394.126Zm-69.627-2.256a.663.663,0,0,1-.475-.2l-2.743-2.743a.671.671,0,1,1,.949-.949h0l2.744,2.743a.678.678,0,0,1-.475,1.152Zm78-3.82a.67.67,0,0,1-.394-1.214l3.14-2.279a.672.672,0,0,1,.789,1.087l-3.141,2.279a.676.676,0,0,1-.394.13Zm-85.315-3.495a.667.667,0,0,1-.475-.2l-2.743-2.743a.671.671,0,0,1,.948-.948l2.743,2.743a.671.671,0,0,1,0,.949h0a.665.665,0,0,1-.473.2Zm93.69-2.579a.671.671,0,0,1-.394-1.214l3.139-2.277a.671.671,0,1,1,.817,1.064l-.028.021-3.14,2.277a.673.673,0,0,1-.394.132Zm-101-4.735a.663.663,0,0,1-.475-.2l-2.743-2.743a.671.671,0,1,1,.949-.95h0l2.743,2.744a.672.672,0,0,1,0,.948.664.664,0,0,1-.478.2Zm109.377-1.34a.671.671,0,0,1-.394-1.214l3.139-2.277a.672.672,0,1,1,.789,1.087l-3.14,2.276a.664.664,0,0,1-.4.129Zm-116.693-5.976a.663.663,0,0,1-.475-.2l-1.494-1.494a8.657,8.657,0,0,1-1.2-1.491.671.671,0,0,1,1.134-.717,7.338,7.338,0,0,0,1.01,1.26l1.494,1.494a.671.671,0,0,1,0,.949h0a.665.665,0,0,1-.473.2Zm125.066-.1a.671.671,0,0,1-.394-1.214l3.14-2.279.234.323.22.16.429.52a.68.68,0,0,1-.094.084l-3.14,2.279a.67.67,0,0,1-.4.132Zm5.481-8.2a.671.671,0,0,1-.67-.651,7.382,7.382,0,0,0-.95-3.388.67.67,0,0,1,1.165-.663,8.725,8.725,0,0,1,1.125,4.009.671.671,0,0,1-.649.693h-.021ZM442.32,529.34a.661.661,0,0,1-.16-.019.67.67,0,0,1-.492-.81,8.667,8.667,0,0,1,1.938-3.684.671.671,0,0,1,1,.892,7.315,7.315,0,0,0-1.638,3.111.674.674,0,0,1-.652.515Zm6.88-7.375a.671.671,0,0,1-.407-1.2l3.087-2.35a.671.671,0,0,1,.849,1.039l-.035.027-3.087,2.351a.68.68,0,0,1-.416.138Zm121.889-.3a.659.659,0,0,1-.474-.2l-2.744-2.744a.671.671,0,0,1,.948-.948l2.744,2.744a.68.68,0,0,1-.479,1.154ZM457.426,515.7a.671.671,0,0,1-.407-1.205l3.086-2.35a.671.671,0,0,1,.814,1.067l-3.085,2.35A.678.678,0,0,1,457.426,515.7Zm106.343-1.347a.672.672,0,0,1-.475-.2l-2.742-2.743a.671.671,0,1,1,.919-.977l.03.029,2.743,2.743a.671.671,0,0,1-.475,1.145Zm-98.114-4.921a.671.671,0,0,1-.407-1.2l3.086-2.351a.671.671,0,0,1,.814,1.067l-3.086,2.35a.681.681,0,0,1-.407.139Zm90.8-2.394a.672.672,0,0,1-.475-.2l-2.742-2.738a.671.671,0,0,1,.949-.949h0l2.742,2.743a.671.671,0,0,1-.475,1.145Zm-82.57-3.875a.671.671,0,0,1-.407-1.2l3.086-2.351a.671.671,0,0,1,.814,1.067l-3.087,2.352a.672.672,0,0,1-.407.137Zm75.256-3.439a.671.671,0,0,1-.475-.2l-2.743-2.744a.671.671,0,1,1,.949-.949l2.743,2.744a.671.671,0,0,1-.474,1.145Zm-67.026-2.83a.67.67,0,0,1-.407-1.2l3.087-2.351a.671.671,0,0,1,.814,1.067l-3.087,2.351a.674.674,0,0,1-.409.139Zm59.712-4.485a.672.672,0,0,1-.475-.2l-2.743-2.744a.671.671,0,0,1,.948-.949l2.743,2.744a.671.671,0,0,1-.474,1.145Zm-51.483-1.784a.671.671,0,0,1-.407-1.2l3.087-2.35a.671.671,0,0,1,.844,1.043l-.031.024-3.086,2.35a.678.678,0,0,1-.408.138Zm44.165-5.525a.672.672,0,0,1-.475-.2l-2.743-2.741a.671.671,0,1,1,.95-.949l2.741,2.741a.671.671,0,0,1-.474,1.146Zm-35.938-.737a.67.67,0,0,1-.407-1.2l3.086-2.35a.671.671,0,0,1,.844,1.043l-.031.024-3.086,2.35a.681.681,0,0,1-.4.132Zm8.23-6.268a.671.671,0,0,1-.407-1.2l3.085-2.35a.671.671,0,0,1,.813,1.067l-3.084,2.35a.685.685,0,0,1-.406.137Zm20.393-.31a.672.672,0,0,1-.475-.2l-2.743-2.743a.671.671,0,1,1,.95-.949l2.741,2.741a.671.671,0,0,1-.474,1.146Zm-12-5.661a.671.671,0,0,1-.214-1.306,8.743,8.743,0,0,1,4.145-.36.67.67,0,0,1,.558.766h0a.679.679,0,0,1-.764.56,7.38,7.38,0,0,0-3.508.3.709.709,0,0,1-.214.034Z" fill="#d8ffd4"/><path d="M430.394,467.192c7.135,2.091,13.608,1.437,14.657-2.141.024-.085.5-1.776.517-1.862.749-3.537-4.573-6.359-11.54-8.4-6.779-1.987-12.751-2.28-14.264.892-.079.166-.5,1.62-.552,1.8C418.166,461.055,423.259,465.1,430.394,467.192Z" fill="#e2a700"/><path d="M431.085,464.925c7.135,2.091,13.642,1.323,14.532-1.717s-4.171-7.2-11.307-9.289-13.642-1.323-14.532,1.717S423.95,462.834,431.085,464.925Z" fill="#ffbf40"/><path d="M438.39,465.146a25.893,25.893,0,0,1-7.067-1.118h0c-5.576-1.634-11.029-4.991-10.149-7.992.411-1.406,2.049-2.224,4.734-2.369a25.716,25.716,0,0,1,8.123,1.119,24.393,24.393,0,0,1,7.345,3.415c2.118,1.548,3.018,3.111,2.6,4.519s-2.013,2.237-4.63,2.4C439.039,465.136,438.716,465.146,438.39,465.146Zm-6.744-2.225a23.62,23.62,0,0,0,7.631,1.046c2.029-.125,3.34-.7,3.6-1.57s-.538-2.064-2.177-3.265a23.6,23.6,0,0,0-6.99-3.238,24.361,24.361,0,0,0-7.735-1.075c-2.092.111-3.436.674-3.69,1.541-.548,1.872,3.828,4.938,9.365,6.561Z" fill="#ffdf67"/></g></svg>