<svg xmlns="http://www.w3.org/2000/svg" xmlns:xlink="http://www.w3.org/1999/xlink" width="205" height="234" viewBox="0 0 205 234"><defs><style>.a{fill:#fff;stroke:rgba(5,92,193,0.23);stroke-width:0.4px;}.b{clip-path:url(#a);}.c{fill:#008a87;}.d{fill:#5cb4b2;}.e{fill:#abfffc;}.f{fill:#187a39;}.g{fill:#40a964;}.h{fill:#46af69;}.i{fill:#ffbf40;}.j{fill:#ffdf67;}.k{fill:#4dbc72;}.l{fill:#b5e5c6;}.m{fill:#e2a700;}</style><clipPath id="a"><rect class="a" width="205" height="234" rx="4" transform="translate(0.018 0)"/></clipPath></defs><g class="b" transform="translate(-0.018 0)"><g transform="translate(35.978 55.777)"><g transform="translate(0 0)"><path class="c" d="M484.2,284.926a446.714,446.714,0,0,0,36.61-39.854q.553.446,1.108.889a447.381,447.381,0,0,1-36.529,39.963Q484.795,285.425,484.2,284.926Z" transform="translate(-484.203 -245.072)"/><g transform="translate(1.149 0.86)"><path class="d" d="M485.095,285.7a447.145,447.145,0,0,0,36.533-39.957,382.017,382.017,0,0,0,97.86,56.441A486.445,486.445,0,0,1,589.8,349.924,429.962,429.962,0,0,1,485.095,285.7Z" transform="translate(-485.095 -245.74)"/></g><g transform="translate(16.251 13.774)"><path class="e" d="M496.822,274.583q7.81-8.256,15.1-16.784a13.032,13.032,0,0,0,18.243-2.031,384.69,384.69,0,0,0,66.993,38.873c-3.651,6.13-1.109,13.725,6.139,16.786q-5.967,9.954-12.492,19.744c-7.406-3.218-16.6-1.181-21,4.712a427.141,427.141,0,0,1-71.121-43.57C503.628,287.114,502.581,279.2,496.822,274.583Z" transform="translate(-496.822 -255.768)"/></g><g transform="translate(49.062 38.12)"><path class="d" d="M530.256,304.037c-8.651-5.275-10.35-15.469-4.586-22.592,5.786-7.133,16.525-8.872,24.767-4.063,8.221,4.814,11.161,14.694,5.786,22.289C550.868,307.264,538.887,309.317,530.256,304.037Z" transform="translate(-522.301 -274.674)"/></g></g><g transform="translate(16.045 23.173)"><g transform="translate(122.32 0)"><g transform="translate(0)"><path class="f" d="M2.428,0H38.386a2.428,2.428,0,0,1,2.428,2.428V25.045a0,0,0,0,1,0,0H2.428A2.428,2.428,0,0,1,0,22.617V2.428A2.428,2.428,0,0,1,2.428,0Z" transform="matrix(-0.707, 0.707, -0.707, -0.707, 46.569, 17.709)"/></g><g transform="translate(1.98 1.98)"><path class="g" d="M2.428,0H40.814a0,0,0,0,1,0,0V25.045a0,0,0,0,1,0,0H2.428A2.428,2.428,0,0,1,0,22.617V2.428A2.428,2.428,0,0,1,2.428,0Z" transform="translate(46.569 17.709) rotate(135)"/></g><g transform="translate(23.088 12.233)"><path class="f" d="M601.285,306.528a6.47,6.47,0,1,0,0-9.15A6.47,6.47,0,0,0,601.285,306.528Z" transform="translate(-599.391 -295.484)"/></g></g><g transform="translate(0 6.974)"><path class="h" d="M643.3,368.681l-78.556,78.556a15.285,15.285,0,0,1-21.616,0l-52.967-53.318c-5.969-5.969-4.192-13.517,1.777-19.486L570.5,295.876a15.285,15.285,0,0,1,21.616,0l51.19,51.19A15.285,15.285,0,0,1,643.3,368.681Z" transform="translate(-486.477 -291.4)"/></g><g transform="translate(8.279 16.762)"><path class="f" d="M632.084,367.018,561.8,437.3a13.555,13.555,0,0,1-19.165.174L496.107,390.63c-5.244-5.244-3.607-11.951,1.732-17.291l70.284-70.282a13.553,13.553,0,0,1,19.163-.174l44.971,44.971A13.554,13.554,0,0,1,632.084,367.018Z" transform="translate(-492.906 -299)"/></g><g transform="translate(44.124 40.505)"><rect class="h" width="97.463" height="49.92" rx="9.968" transform="translate(0 68.916) rotate(-45)"/></g><g transform="translate(64.748 36.429)"><path class="i" d="M567.051,329.411A15.148,15.148,0,1,1,551.9,314.272,15.147,15.147,0,0,1,567.051,329.411Z" transform="translate(-536.755 -314.272)"/><g transform="translate(2.112 2.106)"><path class="j" d="M551.405,341.934a13.014,13.014,0,0,1,0-26.028h.008a13.014,13.014,0,0,1,.006,26.028Zm0-24.038H551.4a11.024,11.024,0,0,0,.005,22.048h.008a11.024,11.024,0,0,0-.005-22.048Z" transform="translate(-538.395 -315.907)"/></g></g><g transform="translate(2.988 39.614)"><path class="k" d="M645.38,395.123l-73.461,53.29a14.84,14.84,0,0,1-20.988,0L488.8,385.927l85.871-65.7a11.883,11.883,0,0,1,16.8,0l53.908,53.909A14.84,14.84,0,0,1,645.38,395.123Z" transform="translate(-488.797 -316.746)"/><g transform="translate(12.308 5.805)"><path class="l" d="M558.192,446.751a.706.706,0,0,1-.126-.012,9.22,9.22,0,0,1-4.042-1.8.713.713,0,1,1,.878-1.124,7.8,7.8,0,0,0,3.415,1.523.713.713,0,0,1-.125,1.415Zm6.519-1.5a.713.713,0,0,1-.421-1.289,7.914,7.914,0,0,0,.926-.793l2.346-1.713a.713.713,0,1,1,.837,1.154l-2.26,1.641a7.988,7.988,0,0,1-1.007.864A.72.72,0,0,1,564.711,445.256Zm-15.151-4.981a.711.711,0,0,1-.5-.209l-2.917-2.917a.713.713,0,0,1,1.008-1.008l2.917,2.916a.713.713,0,0,1-.5,1.218Zm23.984-1.56a.713.713,0,0,1-.419-1.29L576.463,435a.713.713,0,0,1,.837,1.154l-3.338,2.422A.7.7,0,0,1,573.544,438.716Zm-31.76-6.216a.711.711,0,0,1-.5-.209l-2.917-2.917a.713.713,0,0,1,1.008-1.008l2.917,2.916a.713.713,0,0,1-.5,1.218Zm40.661-.242a.713.713,0,0,1-.419-1.29l3.338-2.421a.713.713,0,0,1,.837,1.155l-3.337,2.421A.715.715,0,0,1,582.445,432.257Zm8.9-6.458a.712.712,0,0,1-.419-1.289l3.339-2.421a.713.713,0,0,1,.837,1.154l-3.338,2.421A.715.715,0,0,1,591.346,425.8Zm-57.339-1.077a.714.714,0,0,1-.5-.209l-2.914-2.916a.713.713,0,0,1,1.008-1.008l2.916,2.914a.713.713,0,0,1-.5,1.218Zm66.241-5.379a.713.713,0,0,1-.42-1.29l3.339-2.422a.713.713,0,1,1,.838,1.154l-3.339,2.422A.706.706,0,0,1,600.249,419.344Zm-74.017-2.4a.708.708,0,0,1-.5-.209l-2.916-2.915a.713.713,0,0,1,1.008-1.008l2.917,2.916a.716.716,0,0,1,0,1.008A.708.708,0,0,1,526.232,416.946Zm82.918-4.06a.712.712,0,0,1-.419-1.29l3.338-2.422a.714.714,0,0,1,.838,1.155l-3.339,2.422A.714.714,0,0,1,609.15,412.885Zm-90.694-3.715a.709.709,0,0,1-.5-.209l-2.916-2.916a.713.713,0,1,1,1.008-1.008l2.915,2.916a.713.713,0,0,1,0,1.008A.706.706,0,0,1,518.456,409.17Zm99.6-2.742a.713.713,0,0,1-.418-1.29l3.337-2.421a.713.713,0,1,1,.838,1.154l-3.338,2.421A.715.715,0,0,1,618.052,406.428Zm-107.372-5.034a.709.709,0,0,1-.5-.209l-2.916-2.916a.713.713,0,1,1,1.008-1.01l2.915,2.917a.713.713,0,0,1,0,1.008A.706.706,0,0,1,510.681,401.394Zm116.273-1.424a.713.713,0,0,1-.419-1.29l3.337-2.421a.714.714,0,0,1,.838,1.155l-3.338,2.42A.706.706,0,0,1,626.954,399.97ZM502.9,393.617a.709.709,0,0,1-.5-.209l-1.588-1.588a9.242,9.242,0,0,1-1.271-1.585.713.713,0,0,1,1.205-.762,7.836,7.836,0,0,0,1.074,1.339l1.588,1.588a.713.713,0,0,1,0,1.008A.706.706,0,0,1,502.9,393.617Zm132.951-.1a.713.713,0,0,1-.419-1.29l3.338-2.422.249.344.233.17.456.552a.656.656,0,0,1-.1.089l-3.338,2.422A.711.711,0,0,1,635.855,393.513Zm5.826-8.716a.714.714,0,0,1-.712-.692,7.846,7.846,0,0,0-1.01-3.6.713.713,0,1,1,1.239-.7,9.261,9.261,0,0,1,1.2,4.261.714.714,0,0,1-.69.737Zm-142.613-.831a.705.705,0,0,1-.17-.021.713.713,0,0,1-.523-.862,9.229,9.229,0,0,1,2.06-3.916.713.713,0,1,1,1.066.948,7.79,7.79,0,0,0-1.741,3.307A.714.714,0,0,1,499.067,383.967Zm7.313-7.84a.713.713,0,0,1-.433-1.28l3.281-2.5a.713.713,0,1,1,.865,1.133l-3.281,2.5A.718.718,0,0,1,506.381,376.127Zm129.573-.318a.706.706,0,0,1-.5-.209l-2.917-2.917a.713.713,0,1,1,1.008-1.008l2.917,2.917a.716.716,0,0,1,0,1.008A.708.708,0,0,1,635.954,375.809ZM515.13,369.464a.714.714,0,0,1-.433-1.281l3.28-2.5a.714.714,0,0,1,.866,1.135l-3.28,2.5A.72.72,0,0,1,515.13,369.464Zm113.047-1.432a.714.714,0,0,1-.5-.209l-2.914-2.915a.713.713,0,0,1,1.008-1.008l2.916,2.916a.713.713,0,0,1-.5,1.217Zm-104.3-5.231a.713.713,0,0,1-.433-1.28l3.28-2.5a.713.713,0,0,1,.865,1.135l-3.28,2.5A.719.719,0,0,1,523.878,362.8Zm96.523-2.545a.714.714,0,0,1-.5-.209l-2.914-2.916a.713.713,0,1,1,1.008-1.008l2.916,2.916a.713.713,0,0,1-.5,1.217Zm-87.776-4.12a.713.713,0,0,1-.433-1.28l3.28-2.5a.713.713,0,0,1,.865,1.135l-3.28,2.5A.718.718,0,0,1,532.626,356.136Zm80-3.656a.714.714,0,0,1-.5-.209l-2.916-2.917a.713.713,0,0,1,1.008-1.008l2.916,2.917a.713.713,0,0,1-.5,1.217Zm-71.252-3.008a.713.713,0,0,1-.433-1.28l3.281-2.5a.713.713,0,0,1,.865,1.135l-3.281,2.5A.718.718,0,0,1,541.374,349.472ZM604.85,344.7a.714.714,0,0,1-.5-.209l-2.916-2.917a.713.713,0,0,1,1.008-1.008l2.916,2.917a.713.713,0,0,1-.5,1.217Zm-54.728-1.9a.713.713,0,0,1-.433-1.28l3.281-2.5a.713.713,0,1,1,.864,1.135l-3.28,2.5A.717.717,0,0,1,550.122,342.808Zm46.951-5.88a.714.714,0,0,1-.5-.209l-2.915-2.916a.713.713,0,0,1,1.01-1.008l2.914,2.914a.713.713,0,0,1-.5,1.218Zm-38.2-.783a.712.712,0,0,1-.433-1.28l3.281-2.5a.713.713,0,1,1,.864,1.135L559.3,336A.718.718,0,0,1,558.87,336.145Zm8.749-6.663a.714.714,0,0,1-.433-1.281l3.28-2.5a.713.713,0,1,1,.864,1.134l-3.279,2.5A.719.719,0,0,1,567.619,329.482Zm21.679-.33a.712.712,0,0,1-.5-.209l-2.916-2.916a.713.713,0,1,1,1.01-1.008l2.914,2.914a.713.713,0,0,1-.5,1.218Zm-12.754-6.018a.713.713,0,0,1-.228-1.388,9.294,9.294,0,0,1,4.407-.382.712.712,0,0,1,.594.814.722.722,0,0,1-.813.595,7.847,7.847,0,0,0-3.729.324A.755.755,0,0,1,576.543,323.134Z" transform="translate(-498.354 -321.254)"/></g></g></g><g transform="translate(7.348 49.873)"><g transform="translate(0 0.587)"><path class="m" d="M501.942,299.03c7.585,2.223,14.466,1.527,15.581-2.276.026-.09.531-1.888.55-1.979.8-3.76-4.861-6.76-12.267-8.93-7.206-2.112-13.555-2.424-15.164.948-.084.176-.532,1.722-.587,1.911C488.939,292.506,494.357,296.807,501.942,299.03Z" transform="translate(-489.909 -284.256)"/></g><g transform="translate(0.639)"><path class="i" d="M502.533,296.751c7.585,2.223,14.5,1.406,15.448-1.825s-4.434-7.652-12.02-9.875-14.5-1.406-15.448,1.825S494.948,294.529,502.533,296.751Z" transform="translate(-490.405 -283.8)"/></g><g transform="translate(2.131 0.961)"><path class="j" d="M509.965,296.771a27.493,27.493,0,0,1-7.513-1.189h0c-5.928-1.737-11.724-5.306-10.789-8.5.437-1.5,2.178-2.364,5.033-2.519a27.332,27.332,0,0,1,8.635,1.19,25.931,25.931,0,0,1,7.808,3.63c2.251,1.646,3.208,3.307,2.769,4.8s-2.14,2.379-4.922,2.55C510.656,296.761,510.314,296.771,509.965,296.771Zm-7.169-2.366a25.1,25.1,0,0,0,8.112,1.111c2.157-.133,3.55-.742,3.822-1.669s-.572-2.194-2.314-3.471a25.11,25.11,0,0,0-7.431-3.442,25.911,25.911,0,0,0-8.222-1.142c-2.224.118-3.652.716-3.923,1.638-.582,1.99,4.069,5.249,9.956,6.975Z" transform="translate(-491.564 -284.546)"/></g></g></g></g></svg>