<svg xmlns="http://www.w3.org/2000/svg" width="60" height="80" viewBox="0 0 60 80"><defs><style>.a,.c{fill:#fff;}.a,.b{stroke:#e7e7e7;stroke-miterlimit:10;}.b{fill:#2050e0;}.d{fill:#f8d12e;}.e,.f{fill:#2b3945;}.f{font-size:7.4px;font-family:HelveticaNeue-Medium, Helvetica Neue;font-weight:500;letter-spacing:0.025em;}.g{stroke:none;}.h{fill:none;}</style></defs><g class="a"><rect class="g" width="60" height="80" rx="6"/><rect class="h" x="0.5" y="0.5" width="59" height="79" rx="5.5"/></g><g class="b"><path class="g" d="M6,0H54a6,6,0,0,1,6,6V50a0,0,0,0,1,0,0H0a0,0,0,0,1,0,0V6A6,6,0,0,1,6,0Z"/><path class="h" d="M6,.5H54A5.5,5.5,0,0,1,59.5,6V49a.5.5,0,0,1-.5.5H1A.5.5,0,0,1,.5,49V6A5.5,5.5,0,0,1,6,.5Z"/></g><g transform="translate(12 7)"><path class="c" d="M9.184,12.155H1.1A1.122,1.122,0,0,1,0,11.016V6.457A1.122,1.122,0,0,1,1.1,5.318h.552V3.609A3.555,3.555,0,0,1,5.143,0a3.555,3.555,0,0,1,3.49,3.609V5.318h.551a1.123,1.123,0,0,1,1.1,1.139v4.558A1.123,1.123,0,0,1,9.184,12.155ZM5.143,1.9A1.684,1.684,0,0,0,3.49,3.609V5.318H6.8V3.609A1.684,1.684,0,0,0,5.143,1.9Z" transform="translate(12.857 11.571)"/><path class="d" d="M2.471,0l.583,1.887H4.941L3.414,3.054,4,4.941,2.471,3.774.944,4.941l.583-1.887L0,1.887H1.887Z" transform="translate(15.529)"/><path class="d" d="M2.471,0l.583,1.888H4.941L3.414,3.054,4,4.941,2.471,3.775.944,4.941l.583-1.887L0,1.888H1.887Z" transform="translate(15.529 31.059)"/><path class="d" d="M2.471,0l.583,1.887H4.941L3.414,3.054,4,4.941,2.471,3.774.944,4.941l.583-1.887L0,1.887H1.888Z" transform="translate(23.294 2.824)"/><path class="d" d="M2.471,0l.583,1.888H4.941L3.414,3.054,4,4.941,2.471,3.775.944,4.941l.583-1.887L0,1.888H1.888Z" transform="translate(29.571 23.143)"/><path class="d" d="M2.471,0l.583,1.887H4.941L3.414,3.054,4,4.941,2.471,3.775.944,4.941l.584-1.888L0,1.887H1.887Z" transform="translate(31.059 15.529)"/><path class="d" d="M2.471,0l.583,1.887H4.941L3.414,3.054,4,4.941,2.471,3.775.944,4.941l.583-1.888L0,1.887H1.888Z" transform="translate(0 15.529)"/><path class="d" d="M2.471,0l.583,1.888H4.941L3.414,3.054,4,4.941,2.471,3.775.944,4.941l.583-1.887L0,1.888H1.888Z" transform="translate(1.286 23.143)"/><path class="d" d="M2.471,0l.583,1.888H4.941L3.414,3.054,4,4.941,2.471,3.775.944,4.941l.583-1.887L0,1.888H1.888Z" transform="translate(29.571 7.714)"/><path class="d" d="M2.471,0l.583,1.888H4.941L3.414,3.054,4,4.941,2.471,3.775.944,4.941l.583-1.887L0,1.888H1.888Z" transform="translate(1.929 7.714)"/><path class="d" d="M2.471,0l.583,1.887H4.941L3.414,3.054,4,4.941,2.471,3.775.943,4.941l.584-1.887L0,1.887H1.888Z" transform="translate(24.706 29.647)"/><path class="d" d="M2.471,0l.583,1.887H4.941L3.414,3.054,4,4.941,2.471,3.774.944,4.941l.583-1.887L0,1.887H1.887Z" transform="translate(7.765 2.824)"/><path class="d" d="M2.47,0l.583,1.888H4.941L3.414,3.054,4,4.941,2.47,3.776.944,4.941l.583-1.887L0,1.888H1.887Z" transform="translate(6.353 29.647)"/></g><path class="e" d="M3.671,7a3.821,3.821,0,0,1-2.595-.943A3.356,3.356,0,0,1,0,3.5,3.356,3.356,0,0,1,1.077.943,3.821,3.821,0,0,1,3.671,0a3.219,3.219,0,0,1,2.9,1.572L5.1,2.344a1.693,1.693,0,0,0-1.434-.8A1.863,1.863,0,0,0,1.779,3.5,1.862,1.862,0,0,0,3.671,5.458a2.1,2.1,0,0,0,1.282-.405V4.484H3.4V3.033H6.671V5.681A3.91,3.91,0,0,1,3.671,7ZM23.379,6.88H21.631V.112h3.4a2.184,2.184,0,0,1,2.359,2.252,2.063,2.063,0,0,1-1.353,2.029l1.382,2.484h-2L24.274,4.586h-.895V6.879Zm0-5.3V3.1h1.383a.779.779,0,0,0,.844-.761.779.779,0,0,0-.844-.761Zm-6.539,5.3h-1.75V.112h3.4a2.184,2.184,0,0,1,2.36,2.252,2.172,2.172,0,0,1-2.36,2.222H16.841V6.878Zm0-5.3V3.1h1.413a.75.75,0,0,0,.814-.751.759.759,0,0,0-.814-.771Zm-6.285,5.3H7.7V.112h2.847a3.874,3.874,0,0,1,2.636.9A3.214,3.214,0,0,1,14.216,3.49,3.344,3.344,0,0,1,10.556,6.879ZM9.447,1.634V5.357h1.1A1.793,1.793,0,0,0,12.427,3.49a1.729,1.729,0,0,0-1.871-1.857Z" transform="translate(16 55)"/><text class="f" transform="translate(30 72)"><tspan x="-22.466" y="0">COMPLIANT</tspan></text></svg>