<svg xmlns="http://www.w3.org/2000/svg" width="198.134" height="172.02" viewBox="0 0 198.134 172.02"><g transform="translate(-512.593 -547.593)"><ellipse cx="99.067" cy="5.786" rx="99.067" ry="5.786" transform="translate(512.593 708.041)" fill="#fceede"/><path d="M560.755,703.416l3,2.687,5.714-5.951-3-2.687Z" fill="#ce7a63"/><path d="M571.039,709.01h3.788l.492-8.772h-3.788Z" fill="#ce7a63"/><path d="M575.027,708.571h-4.256a.272.272,0,0,0-.281.259l-.206,3.367a.671.671,0,0,0,.663.673c1.482-.026,2.189-.112,4.061-.112,1.151,0,6.046.12,7.636.12,1.555,0,1.545-1.572.871-1.715-3.021-.638-6.766-1.518-7.835-2.359A1.067,1.067,0,0,0,575.027,708.571Z" fill="#382105"/><path d="M564.587,705.025l-3.651-2.458a.341.341,0,0,0-.418.012l-2.79,2.816a.561.561,0,0,0,.047.791.531.531,0,0,0,.087.063,38.438,38.438,0,0,1,5.337,4.639c1.55,1.744,2.363,1.99,5.94,1.99,1.654,0,2.59-1.393,1.916-1.607-5.961-1.887-4.368-2.708-5.815-5.472A2.062,2.062,0,0,0,564.587,705.025Z" fill="#382105"/><path d="M589.329,583.232c.07.223.184.565.288.854l.327.912c.226.609.471,1.214.732,1.808a35.611,35.611,0,0,0,1.716,3.458,16.9,16.9,0,0,0,4.583,5.459l.317.219a.02.02,0,0,1,0,.021c-.007.011,0,.034.075.044a2.073,2.073,0,0,0,.987-.267,12.8,12.8,0,0,0,2.861-2.079,38.407,38.407,0,0,0,2.8-2.85c.914-1,1.806-2.078,2.65-3.115l2.434,1.471a36.26,36.26,0,0,1-4.733,7.5,15.919,15.919,0,0,1-3.631,3.293,7.177,7.177,0,0,1-2.982,1.089,5.272,5.272,0,0,1-2.014-.185,5.2,5.2,0,0,1-.971-.4l-.586-.332a16.78,16.78,0,0,1-3.841-3.168,24.5,24.5,0,0,1-2.84-3.78,32.423,32.423,0,0,1-2.13-4.066q-.453-1.044-.849-2.112c-.131-.357-.262-.715-.379-1.081s-.223-.708-.347-1.161Z" fill="#ce7a63"/><path d="M594.612,592.255l-6.535,3.618s-.194-.281-.511-.766c-.23-.358-.526-.828-.869-1.38-1.921-3.122-5.1-8.824-4.277-11.22,1.272-3.72,5.963-3.658,8.267.654a67.407,67.407,0,0,1,2.989,6.611c.24.6.439,1.129.593,1.538C594.489,591.906,594.612,592.255,594.612,592.255Z" fill="#ea8e12"/><path d="M594.269,591.314l-6.7,3.8c-.23-.358-.526-.828-.869-1.38l6.98-3.955C593.917,590.379,594.116,590.905,594.269,591.314Z" fill="#896840"/><path d="M582.323,582.938c1.461-.7,3.147-.115,4.916,2.684a30.894,30.894,0,0,1,3.447,8.812l-2.611,1.444S581.784,586.662,582.323,582.938Z" fill="#896840"/><path d="M606.232,588.317l1.3-4.166,3.383,2.48s-1.847,3.712-3.1,3.375Z" fill="#ce7a63"/><path d="M611.1,582.557l1.9,2.334-2.086,1.74-3.383-2.479Z" fill="#ce7a63"/><path d="M569.471,700.152l-2.945,3.068-3-2.688,2.945-3.068Z" fill="#bc6753"/><path d="M571.531,700.241h3.79l-.255,4.522h-3.79Z" fill="#bc6753"/><path d="M588.383,612.851H568.124c-.143-1.809.276-7.7-.036-15.19a96.2,96.2,0,0,0-2.013-16.524c-.092-.409-.184-.813-.281-1.221,0,0,1.027-.21,2.5-.424,1.221-.179,2.754-.363,4.256-.434a75.86,75.86,0,0,1,8.609,0c1.323.123,2.616.342,3.648.542,1.318.266,2.217.511,2.217.511S591.893,591.55,588.383,612.851Z" fill="#ea8e12"/><path d="M568.091,597.661a96.3,96.3,0,0,0-2.013-16.524c1.354-.118,3.669.015,4.052,2.2C570.542,585.69,570.02,591.222,568.091,597.661Z" fill="#896840"/><path d="M588.19,612.657s3.99,27.621,5.352,42.656c1.093,12.06-24.991,48.045-24.991,48.045l-5.046-4.748s19.052-32.246,17.586-45.673c-1.42-13.005-6.236-40.281-6.236-40.281Z" fill="#382105"/><path d="M581.088,652.936c-.731-6.7-2.366-17.193-3.771-25.787.736-1.441,2.8-4.357,2.8-4.357,1.85,6.392,5.87,30.487.134,63.029-5.978,9.636-11.7,17.536-11.7,17.536l-.782-12.426C573.291,680.538,582.1,662.23,581.088,652.936Z" fill="#33230f"/><path d="M563.2,698.322l5.659,5.325,1.822-1.957-6.472-5.9Z" fill="#e0b177"/><path d="M580.986,612.657s.361,28.948-.254,39.793c-.673,11.876-4.042,51.22-4.042,51.22h-6.938s.207-38.385-.211-50.144c-.454-12.762-1.629-40.87-1.629-40.87Z" fill="#382105"/><path d="M569.472,703.67h7.5l.416-2.633-8.275.412Z" fill="#e0b177"/><path d="M569.468,585.415l-.9,1.55q-.456.8-.889,1.612c-.58,1.081-1.143,2.17-1.678,3.266s-1.026,2.2-1.476,3.31a33.6,33.6,0,0,0-1.15,3.323l-.061.207-.03.1c-.01.035,0,.014-.009.023a.3.3,0,0,0-.029.091,2.223,2.223,0,0,0,0,.475,7.094,7.094,0,0,0,.3,1.42,24.8,24.8,0,0,0,1.295,3.24c1.033,2.194,2.262,4.429,3.5,6.588l-2.241,1.751a43.048,43.048,0,0,1-5.048-6.2,24.388,24.388,0,0,1-2.041-3.686,12.132,12.132,0,0,1-.746-2.277,7.322,7.322,0,0,1-.155-1.439,5.841,5.841,0,0,1,.065-.865l.035-.213.027-.13.052-.261a37.63,37.63,0,0,1,2.533-7.84q.807-1.851,1.752-3.622.474-.883.974-1.756c.335-.592.67-1.137,1.07-1.756Z" fill="#ce7a63"/><path d="M570.822,586.813a71.027,71.027,0,0,1-3.285,7.689c-.271.563-.521,1.063-.726,1.467-.358.71-.582,1.139-.582,1.139l-7.674-4.251s.1-.322.271-.863c.133-.409.307-.945.521-1.564,1.277-3.643,3.888-10.142,6.448-10.515C569.621,579.358,572.375,582.219,570.822,586.813Z" fill="#ea8e12"/><path d="M567.537,594.5c-.271.563-.521,1.063-.726,1.467l-7.986-3.975c.133-.409.307-.945.521-1.564Z" fill="#896840"/><path d="M584.659,582.005c-.409,1.354-1.553,3.163-4.675,4.088l-.818.246-.833-.148c-6.412-1.15-8.773-4.589-9.182-5.268l-.858-1.43c1.221-.179,2.754-.363,4.256-.434a75.832,75.832,0,0,1,8.609,0c1.323.123,2.616.342,3.648.542A5.259,5.259,0,0,1,584.659,582.005Z" fill="#896840"/><path d="M578.962,582.666c-5.138-.92-6.745-3.589-6.745-3.589,1.875-1.85,1.155-6.9.516-9.677l2.3,1.911,3.137,2.605a10.272,10.272,0,0,0-.2,1.268c-.169,1.7.271,3.25,2.774,3.842C580.75,579.029,582.823,581.519,578.962,582.666Z" fill="#ce7a63"/><path d="M578.174,573.916a10.249,10.249,0,0,0-.2,1.268,4,4,0,0,1-2.9-2.677,5.472,5.472,0,0,1-.041-1.2Z" fill="#bc6753"/><path d="M580.3,559.719c1.867.845,2.907,6.1.53,7.235S576.767,558.121,580.3,559.719Z" fill="#382105"/><path d="M571.783,565.41c.8,3.683,1.082,5.873,3.258,7.554a4.9,4.9,0,0,0,7.928-3.528c.286-3.429-1.072-8.877-4.947-9.92a4.959,4.959,0,0,0-6.239,5.894Z" fill="#ce7a63"/><path d="M567.506,561.754c-1.789.8-.773,3.248.445,4.806,1.691,2.165,3.48,3.178,4.7,2.179,1.094-.549,1.814-3.77.86-5.759,1.685-1.1,5.173.262,6.262-1.543s1.862-1.643,3.781-.459,3.449-3.5-1.542-4.371c2.76,1.239,2.125,3.658.106,1.18-1.426-1.75-4.841-3.68-7.218-1.074C573.155,558.626,567,555.689,567.506,561.754Z" fill="#382105"/><path d="M570.935,569.253a4.041,4.041,0,0,0,2.338,1.39c1.161.2,1.423-.878.833-1.918-.531-.936-1.776-2.166-2.813-1.892S570.182,568.348,570.935,569.253Z" fill="#ce7a63"/><path d="M577.595,565.775c.047.3.245.528.444.5s.321-.288.275-.59-.245-.528-.443-.5S577.548,565.473,577.595,565.775Z" fill="#382105"/><path d="M581.024,565.367c.047.3.245.528.443.5s.321-.288.274-.59-.245-.528-.443-.5S580.977,565.065,581.024,565.367Z" fill="#382105"/><path d="M579.957,565.647a11.442,11.442,0,0,0,1.848,2.412,1.736,1.736,0,0,1-1.408.443Z" fill="#ba4d3c"/><path d="M579.283,569.462a2.627,2.627,0,0,1-1.907-.786.089.089,0,0,1,.134-.118h0a2.521,2.521,0,0,0,2.107.7.09.09,0,0,1,.021.178A2.785,2.785,0,0,1,579.283,569.462Z" fill="#382105"/><path d="M576.364,564.8a.18.18,0,0,1-.178-.181.183.183,0,0,1,.022-.086,1.726,1.726,0,0,1,1.342-.908.179.179,0,0,1,.018.358h0a1.367,1.367,0,0,0-1.046.725A.178.178,0,0,1,576.364,564.8Z" fill="#382105"/><path d="M582.317,564.017a.179.179,0,0,1-.149-.079,1.5,1.5,0,0,0-1.134-.686.18.18,0,0,1,0-.359,1.835,1.835,0,0,1,1.429.843.179.179,0,0,1-.148.281Z" fill="#382105"/><path d="M576.37,709.231a4.711,4.711,0,0,1-1.009-.135.089.089,0,0,1-.064-.108.091.091,0,0,1,.033-.05c.121-.084,1.2-.814,1.656-.636a.331.331,0,0,1,.206.25.485.485,0,0,1-.111.479A1.018,1.018,0,0,1,576.37,709.231Zm-.766-.263c.677.133,1.177.113,1.354-.063a.315.315,0,0,0,.063-.315.156.156,0,0,0-.1-.124c-.251-.094-.879.222-1.318.5Z" fill="#d3974f"/><path d="M575.38,709.1a.082.082,0,0,1-.04-.01.089.089,0,0,1-.048-.071c0-.046-.089-1.136.293-1.5a.435.435,0,0,1,.375-.123.337.337,0,0,1,.32.267c.087.413-.477,1.2-.855,1.429A.078.078,0,0,1,575.38,709.1Zm.518-1.535a.265.265,0,0,0-.19.078,1.964,1.964,0,0,0-.249,1.2c.33-.278.706-.879.648-1.15-.011-.052-.04-.113-.168-.129Z" fill="#d3974f"/><path d="M567.04,707.078a4.72,4.72,0,0,1-1.891-.728.088.088,0,0,1-.032-.12.09.09,0,0,1,.07-.044c.2-.015,2-.135,2.34.276a.272.272,0,0,1,.056.252.442.442,0,0,1-.27.316A.708.708,0,0,1,567.04,707.078Zm-1.543-.733c.817.448,1.461.644,1.749.523a.272.272,0,0,0,.167-.2.093.093,0,0,0-.02-.1,3.748,3.748,0,0,0-1.9-.228Z" fill="#d3974f"/><path d="M565.193,706.362a.088.088,0,0,1-.088-.089.1.1,0,0,1,.008-.038c.029-.059.714-1.448,1.586-1.031.241.115.266.258.245.357-.088.41-1.227.788-1.749.8Zm1.182-1.057c-.468,0-.867.591-1.027.868.544-.07,1.372-.408,1.424-.649.012-.054-.038-.108-.148-.161a.579.579,0,0,0-.249-.057Z" fill="#d3974f"/><path d="M567.333,609.786l3.771-.657-1.935,4.366s-3.442-.02-3.285-1.794Z" fill="#ce7a63"/><path d="M573.918,611.323l-1.772,3.527-2.978-1.356,1.936-4.365Z" fill="#ce7a63"/><path d="M635.642,623.129h0a6.034,6.034,0,0,1,5.4-3.793h45.042a4.03,4.03,0,0,1,4.163,3.893,3.976,3.976,0,0,1-.091,1L675.922,709.3a6.017,6.017,0,0,1-5.708,4.89H557.268a4.03,4.03,0,0,1-4.072-4.89l12.117-72.422a6.017,6.017,0,0,1,5.708-4.89H623.03A14.089,14.089,0,0,0,635.642,623.129Z" fill="#e0b177"/><path d="M617.712,547.593,583.631,666.032,661.6,688.467,695.68,570.028Z" fill="#fcf7f2" opacity="0.9" style="isolation:isolate"/><circle cx="14.056" cy="14.056" r="14.056" transform="translate(619.169 561.58)" fill="#d3974f"/><path d="M630.146,586.344a11.137,11.137,0,1,1,13.782-7.623h0A11.137,11.137,0,0,1,630.146,586.344Z" fill="#fff"/><rect width="5.803" height="25.822" transform="translate(612.221 596.513) rotate(-73.947)" fill="#d3974f"/><rect width="22.561" height="14.235" transform="translate(594.081 659.559) rotate(-73.947)" fill="#d3974f"/><rect width="22.561" height="14.235" transform="translate(642.487 673.488) rotate(-73.947)" fill="#d3974f"/><rect width="22.561" height="14.235" transform="translate(618.284 666.523) rotate(-73.947)" fill="#d3974f"/><rect width="5.803" height="17.47" transform="translate(640.303 604.593) rotate(-73.947)" fill="#d3974f"/><rect width="2.39" height="63.922" transform="translate(609.68 605.347) rotate(-73.947)" fill="#fff"/><rect width="2.39" height="31.785" transform="translate(608.274 610.23) rotate(-73.947)" fill="#fff"/><rect width="2.39" height="21.265" transform="translate(644.046 620.524) rotate(-73.921)" fill="#fff"/><rect width="2.39" height="51.099" transform="translate(606.869 615.114) rotate(-73.947)" fill="#fff"/><rect width="2.39" height="58.736" transform="translate(605.464 619.998) rotate(-73.947)" fill="#fff"/><rect width="2.39" height="6.789" transform="translate(604.057 624.882) rotate(-73.921)" fill="#fff"/><rect width="2.39" height="29.98" transform="translate(615.808 628.263) rotate(-73.947)" fill="#fff"/><rect width="2.39" height="63.922" transform="translate(602.653 629.766) rotate(-73.947)" fill="#fff"/><path d="M616.2,552.84l-32.57,113.191L658.948,687.7l30.528-117.151Z" fill="#fcf7f2" opacity="0.9" style="isolation:isolate"/><path d="M608.64,551.719,578.675,671.265l78.7,19.726L687.337,571.45Z" fill="#fcf7f2" opacity="0.9" style="isolation:isolate"/><circle cx="14.056" cy="14.056" r="14.056" transform="translate(611.059 565.16)" fill="#d3974f"/><circle cx="11.137" cy="11.137" r="11.137" transform="translate(613.978 568.078)" fill="#fff"/><rect width="5.803" height="25.822" transform="translate(604.844 600.799) rotate(-75.929)" fill="#d3974f"/><rect width="22.56" height="14.235" transform="matrix(0.243, -0.97, 0.97, 0.243, 588.897, 664.434)" fill="#d3974f"/><rect width="22.56" height="14.235" transform="matrix(0.243, -0.97, 0.97, 0.243, 637.757, 676.681)" fill="#d3974f"/><rect width="22.56" height="14.235" transform="matrix(0.243, -0.97, 0.97, 0.243, 613.327, 670.558)" fill="#d3974f"/><rect width="5.803" height="17.47" transform="matrix(0.243, -0.97, 0.97, 0.243, 633.189, 607.903)" fill="#d3974f"/><rect width="2.39" height="63.922" transform="translate(602.61 609.716) rotate(-75.929)" fill="#fff"/><rect width="2.39" height="31.784" transform="matrix(0.243, -0.97, 0.97, 0.243, 601.374, 614.645)" fill="#fff"/><rect width="2.39" height="21.262" transform="translate(637.481 623.696) rotate(-75.929)" fill="#fff"/><rect width="2.39" height="51.099" transform="translate(600.138 619.575) rotate(-75.929)" fill="#fff"/><rect width="2.39" height="58.735" transform="matrix(0.243, -0.97, 0.97, 0.243, 598.903, 624.505)" fill="#fff"/><rect width="2.39" height="6.788" transform="translate(597.667 629.434) rotate(-75.929)" fill="#fff"/><rect width="2.39" height="29.98" transform="translate(609.527 632.407) rotate(-75.929)" fill="#fff"/><rect width="2.39" height="63.92" transform="matrix(0.243, -0.97, 0.97, 0.243, 596.432, 634.364)" fill="#fff"/><path d="M605.561,640.892h0c.092-1.916,1.772-3.273,4.051-3.273h45.047c2.7,0,5.3,1.889,5.811,4.219l13.513,68.137c.508,2.33-1.269,4.218-3.969,4.218H557.062c-2.7,0-5.3-1.888-5.811-4.218l-11.13-57.22c-.508-2.33,1.269-4.219,3.969-4.219H596.1C601.421,648.532,605.345,645.365,605.561,640.892Z" fill="#dd8a26"/></g></svg>