<svg xmlns="http://www.w3.org/2000/svg" width="20" height="32.999" viewBox="0 0 20 32.999"><path d="M-373,11385h-18a1,1,0,0,1-1-1v-24.747a1,1,0,0,1,1-1h1.667V11353a1,1,0,0,1,1-1h13a1,1,0,0,1,1,1v5.253H-373a1,1,0,0,1,1,1V11384A1,1,0,0,1-373,11385Zm-5.167-4.515a.5.5,0,0,0-.5.5v1.085a.5.5,0,0,0,.5.5h3a.5.5,0,0,0,.5-.5v-1.085a.5.5,0,0,0-.5-.5Zm-5.333,0a.5.5,0,0,0-.5.5v1.085a.5.5,0,0,0,.5.5h3a.5.5,0,0,0,.5-.5v-1.085a.5.5,0,0,0-.5-.5Zm-5.332,0a.5.5,0,0,0-.5.5v1.085a.5.5,0,0,0,.5.5h3a.5.5,0,0,0,.5-.5v-1.085a.5.5,0,0,0-.5-.5Zm10.666-3.475a.5.5,0,0,0-.5.5v1.084a.5.5,0,0,0,.5.5h3a.5.5,0,0,0,.5-.5v-1.084a.5.5,0,0,0-.5-.5Zm-5.333,0a.5.5,0,0,0-.5.5v1.084a.5.5,0,0,0,.5.5h3a.5.5,0,0,0,.5-.5v-1.084a.5.5,0,0,0-.5-.5Zm-5.332,0a.5.5,0,0,0-.5.5v1.084a.5.5,0,0,0,.5.5h3a.5.5,0,0,0,.5-.5v-1.084a.5.5,0,0,0-.5-.5Zm10.666-3.473a.5.5,0,0,0-.5.5v1.084a.5.5,0,0,0,.5.5h3a.5.5,0,0,0,.5-.5v-1.084a.5.5,0,0,0-.5-.5Zm-5.333,0a.5.5,0,0,0-.5.5v1.084a.5.5,0,0,0,.5.5h3a.5.5,0,0,0,.5-.5v-1.084a.5.5,0,0,0-.5-.5Zm-5.332,0a.5.5,0,0,0-.5.5v1.084a.5.5,0,0,0,.5.5h3a.5.5,0,0,0,.5-.5v-1.084a.5.5,0,0,0-.5-.5Zm.5-9.031a1,1,0,0,0-1,1v5.294a1,1,0,0,0,1,1h13a1,1,0,0,0,1-1v-5.294a1,1,0,0,0-1-1Zm.334-10.769v8.684h12v-8.684Zm9.972,6.6h-1.277a.7.7,0,0,1-.695-.7.7.7,0,0,1,.695-.694h1.277a.7.7,0,0,1,.695.694A.7.7,0,0,1-378.029,11360.335Zm-4.666,0h-3.278a.7.7,0,0,1-.695-.7.7.7,0,0,1,.695-.694h3.278a.7.7,0,0,1,.695.694A.7.7,0,0,1-382.7,11360.335Zm4.666-2.779h-1.277a.7.7,0,0,1-.695-.694.7.7,0,0,1,.695-.694h1.277a.7.7,0,0,1,.695.694A.7.7,0,0,1-378.029,11357.556Zm-4.666,0h-3.278a.7.7,0,0,1-.695-.694.7.7,0,0,1,.695-.694h3.278a.7.7,0,0,1,.695.694A.7.7,0,0,1-382.7,11357.556Z" transform="translate(392.001 -11351.998)"/></svg>