<svg xmlns="http://www.w3.org/2000/svg" width="26.682" height="34.092" viewBox="0 0 26.682 34.092"><defs><style>.a{fill:#104f55;}.b{fill:#dbe3ee;}.c{fill:#fff;}</style></defs><g transform="translate(12799.134 5745.853)"><path class="a" d="M491.781,222.156v-29.9H508.47v.273q0,2.463,0,4.925c0,.456.166.62.627.62h5.171v24.081Zm6.052-10.969a2.5,2.5,0,0,0-1.355.551,2.354,2.354,0,0,0,.383,3.749,4.63,4.63,0,0,0,.792.354.22.22,0,0,1,.178.248c-.007.652,0,1.3,0,1.955a1.634,1.634,0,0,1-.019.169,1.809,1.809,0,0,1-.865-1.219l-1.432.157a3.1,3.1,0,0,0,.564,1.459,2.55,2.55,0,0,0,1.759.95v.987h.8v-1.011c.09-.02.165-.037.242-.053a2.44,2.44,0,0,0,2.043-2.218,2.114,2.114,0,0,0-1.3-2.325,5.476,5.476,0,0,0-.793-.292.233.233,0,0,1-.2-.277c.01-.573,0-1.146,0-1.719,0-.066.009-.132.015-.221a1.172,1.172,0,0,1,.662.873l1.387-.183a2.343,2.343,0,0,0-.481-1.131,2.377,2.377,0,0,0-1.592-.806v-.524h-.787Zm5.384-7.02h8.036a2.027,2.027,0,0,0,.259-.006.47.47,0,0,0,.4-.4.451.451,0,0,0-.31-.5,1,1,0,0,0-.3-.034q-8.071,0-16.142,0a1.875,1.875,0,0,0-.235,0,.469.469,0,0,0,.02.933c.078.007.157,0,.236,0Zm-.012,5.232h8.059c.071,0,.142,0,.212,0a.469.469,0,0,0,0-.936c-.07-.007-.141,0-.212,0h-16.1a2.263,2.263,0,0,0-.235,0,.469.469,0,0,0,0,.934,2.263,2.263,0,0,0,.235,0Zm.012-8.785H495.3a3.722,3.722,0,0,0-.377.007.448.448,0,0,0-.411.485c.013.3.222.448.625.448h16.141a1.316,1.316,0,0,0,.281-.022.462.462,0,0,0-.047-.909,3.167,3.167,0,0,0-.353-.009Zm0,6.17h8.035a1.484,1.484,0,0,0,.3-.02.462.462,0,0,0-.028-.906,1.473,1.473,0,0,0-.235-.011H495.181a2.318,2.318,0,0,0-.259.006.464.464,0,0,0-.017.92,1.866,1.866,0,0,0,.282.012Zm4.587,6.055c1.2,0,2.4,0,3.606,0a.47.47,0,1,0,.011-.938c-.133,0-.267,0-.4,0q-3.382,0-6.764,0a.507.507,0,0,0-.511.263.471.471,0,0,0,.477.679C505.42,212.84,506.614,212.839,507.808,212.838Zm-9.183-14.892h2.545c.369,0,.739.007,1.108,0a.459.459,0,0,0,.449-.456.473.473,0,0,0-.428-.479,1.714,1.714,0,0,0-.188,0h-7a1.234,1.234,0,0,0-.212.008.462.462,0,0,0-.387.488.457.457,0,0,0,.413.44,1.8,1.8,0,0,0,.212.005Z" transform="translate(-13290.915 -5933.917)"/><path class="b" d="M551.939,135.42v-3.2h16.688v.271q0,2.451,0,4.9c0,.473.163.635.638.635h5.158v24.087h-3.2v-.336q0-9.932,0-19.865a.84.84,0,0,0-.265-.646q-2.8-2.784-5.582-5.582a.844.844,0,0,0-.647-.266q-6.221.007-12.442,0Z" transform="translate(-13346.874 -5878.07)"/><path class="a" d="M749.032,207.556H745v-4.039Z" transform="translate(-13526.453 -5944.393)"/><path class="b" d="M805.229,147.127v-4.053l4.052,4.053Z" transform="translate(-13582.481 -5888.169)"/><path class="c" d="M547.535,456.418v-.528h.787v.524a2.377,2.377,0,0,1,1.592.806,2.343,2.343,0,0,1,.481,1.131l-1.387.183a1.172,1.172,0,0,0-.662-.873c-.006.089-.015.155-.015.221,0,.573.005,1.146,0,1.719a.233.233,0,0,0,.2.277,5.485,5.485,0,0,1,.793.292,2.114,2.114,0,0,1,1.3,2.325,2.44,2.44,0,0,1-2.043,2.218c-.076.016-.152.033-.242.053v1.011h-.8v-.987a2.55,2.55,0,0,1-1.759-.95,3.1,3.1,0,0,1-.564-1.459l1.432-.157a1.809,1.809,0,0,0,.865,1.219,1.651,1.651,0,0,0,.019-.169c0-.652,0-1.3,0-1.955a.22.22,0,0,0-.178-.248,4.632,4.632,0,0,1-.792-.354,2.354,2.354,0,0,1-.383-3.749A2.5,2.5,0,0,1,547.535,456.418Zm.806,4.98v2.111a1.071,1.071,0,0,0,.929-1.051A1.023,1.023,0,0,0,548.342,461.4Zm-.823-1.871v-1.864a.959.959,0,0,0-.7.873A.988.988,0,0,0,547.519,459.526Z" transform="translate(-13340.616 -6179.148)"/><path class="c" d="M539.6,350.338h-8.036c-.078,0-.158,0-.236,0a.469.469,0,0,1-.02-.934,1.884,1.884,0,0,1,.235,0q8.071,0,16.142,0a1,1,0,0,1,.3.034.451.451,0,0,1,.31.5.47.47,0,0,1-.4.4,2.033,2.033,0,0,1-.259.006Z" transform="translate(-13327.302 -6080.088)"/><path class="c" d="M539.6,425.28h-8.036a2.267,2.267,0,0,1-.235,0,.469.469,0,0,1,0-.934,2.267,2.267,0,0,1,.235,0h16.1c.071,0,.142,0,.212,0a.469.469,0,0,1,0,.936c-.07.006-.141,0-.212,0Z" transform="translate(-13327.307 -6149.799)"/><path class="c" d="M539.613,311.977h7.941a3.164,3.164,0,0,1,.353.009.462.462,0,0,1,.047.909,1.315,1.315,0,0,1-.281.022H531.533c-.4,0-.612-.151-.625-.448a.448.448,0,0,1,.411-.485,3.722,3.722,0,0,1,.377-.007Z" transform="translate(-13327.311 -6045.28)"/><path class="c" d="M539.606,387.87h-8.035a1.864,1.864,0,0,1-.282-.012.464.464,0,0,1,.017-.92,2.315,2.315,0,0,1,.259-.006h16.118a1.469,1.469,0,0,1,.235.011.462.462,0,0,1,.028.906,1.485,1.485,0,0,1-.3.02Z" transform="translate(-13327.3 -6115.003)"/><path class="c" d="M666.563,474.559c-1.194,0-2.388,0-3.582,0a.471.471,0,0,1-.477-.679.507.507,0,0,1,.511-.263q3.382,0,6.764,0c.134,0,.267,0,.4,0a.47.47,0,1,1-.011.938C668.966,474.561,667.765,474.559,666.563,474.559Z" transform="translate(-13449.669 -6195.638)"/><path class="c" d="M535.016,261.221h-3.488a1.8,1.8,0,0,1-.212-.005.457.457,0,0,1-.413-.44.462.462,0,0,1,.387-.488,1.233,1.233,0,0,1,.212-.008h7a1.713,1.713,0,0,1,.188,0,.473.473,0,0,1,.428.479.459.459,0,0,1-.449.456c-.369.01-.738,0-1.107,0Z" transform="translate(-13327.307 -5997.192)"/><path d="M590.031,534.785a1.023,1.023,0,0,1,.929,1.06,1.071,1.071,0,0,1-.929,1.051Z" transform="translate(-13382.306 -6252.536)"/><path d="M568.886,483.145a.988.988,0,0,1-.7-.99.959.959,0,0,1,.7-.873Z" transform="translate(-13361.983 -6202.767)"/></g></svg>