<svg xmlns="http://www.w3.org/2000/svg" width="8.897" height="11.163" viewBox="0 0 8.897 11.163"><defs><style>.a{fill:#ea8e12;}</style></defs><path class="a" d="M8.55,91.343H8.175V83.422a.363.363,0,0,0-.362-.362H6.829v-.636a.363.363,0,0,0-.362-.362H2.43a.363.363,0,0,0-.362.362v.636H1.084a.363.363,0,0,0-.362.362v7.922H.346A.347.347,0,0,0,0,91.689v1.188a.347.347,0,0,0,.346.346h8.2a.347.347,0,0,0,.346-.346V91.689A.347.347,0,0,0,8.55,91.343ZM3.068,89.852a.1.1,0,0,1-.1.1H1.652a.1.1,0,0,1-.1-.1V88.536a.1.1,0,0,1,.1-.1H2.967a.1.1,0,0,1,.1.1Zm0-2.1a.1.1,0,0,1-.1.1H1.652a.1.1,0,0,1-.1-.1V86.436a.1.1,0,0,1,.1-.1H2.967a.1.1,0,0,1,.1.1Zm0-2.122a.1.1,0,0,1-.1.1H1.652a.1.1,0,0,1-.1-.1V84.314a.1.1,0,0,1,.1-.1H2.967a.1.1,0,0,1,.1.1Zm2.139,6a.1.1,0,0,1-.1.1H3.791a.1.1,0,0,1-.1-.1V88.536a.1.1,0,0,1,.1-.1H5.106a.1.1,0,0,1,.1.1Zm0-3.876a.1.1,0,0,1-.1.1H3.791a.1.1,0,0,1-.1-.1V86.436a.1.1,0,0,1,.1-.1H5.106a.1.1,0,0,1,.1.1Zm0-2.122a.1.1,0,0,1-.1.1H3.791a.1.1,0,0,1-.1-.1V84.314a.1.1,0,0,1,.1-.1H5.106a.1.1,0,0,1,.1.1Zm2.145,4.222a.1.1,0,0,1-.1.1H5.935a.1.1,0,0,1-.1-.1V88.536a.1.1,0,0,1,.1-.1H7.251a.1.1,0,0,1,.1.1Zm0-2.1a.1.1,0,0,1-.1.1H5.935a.1.1,0,0,1-.1-.1V86.436a.1.1,0,0,1,.1-.1H7.251a.1.1,0,0,1,.1.1Zm0-2.122a.1.1,0,0,1-.1.1H5.935a.1.1,0,0,1-.1-.1V84.314a.1.1,0,0,1,.1-.1H7.251a.1.1,0,0,1,.1.1Z" transform="translate(0 -82.061)"/></svg>