<svg xmlns="http://www.w3.org/2000/svg" width="10.051" height="11.726" viewBox="0 0 10.051 11.726"><defs><style>.a{fill:#104f55;}</style></defs><path class="a" d="M47.184,0H39.367A1.12,1.12,0,0,0,38.25,1.117V8.934a1.12,1.12,0,0,0,1.117,1.117H41.6l1.675,1.675,1.675-1.675h2.234A1.12,1.12,0,0,0,48.3,8.934V1.117A1.12,1.12,0,0,0,47.184,0Zm-3.35,8.934H42.717V7.817h1.117Zm1.173-4.3-.5.5a1.739,1.739,0,0,0-.67,1.563H42.717V6.421a2.028,2.028,0,0,1,.67-1.563l.67-.726a.937.937,0,0,0,.335-.782,1.117,1.117,0,0,0-2.234,0H41.042a2.234,2.234,0,0,1,4.467,0A2.033,2.033,0,0,1,45.006,4.635Z" transform="translate(-38.25 0)"/></svg>