<svg xmlns="http://www.w3.org/2000/svg" width="11.168" height="11.163" viewBox="0 0 11.168 11.163"><defs><style>.a{fill:#eb5959;}</style></defs><g transform="translate(0)"><g transform="translate(0)"><path class="a" d="M303.3,151.022a.47.47,0,0,0-.1-.152l-1.4-1.4a.465.465,0,1,0-.658.658l.6.6h-2.6a.465.465,0,0,0,0,.931h2.6l-.6.6a.465.465,0,1,0,.658.658l1.4-1.4a.461.461,0,0,0,.1-.152A.466.466,0,0,0,303.3,151.022Z" transform="translate(-292.165 -146.082)"/><path class="a" d="M7.921,6.512a.465.465,0,0,0-.465.465V9.3H5.6V1.86a.466.466,0,0,0-.332-.446L3.648.93H7.456V3.256a.465.465,0,0,0,.93,0V.465A.465.465,0,0,0,7.921,0H.479A.415.415,0,0,0,.431.009a.459.459,0,0,0-.2.069C.224.084.211.085.2.092S.2.1.193.1A.461.461,0,0,0,.069.25.38.38,0,0,0,.056.289.441.441,0,0,0,.019.4a.29.29,0,0,0,0,.04C.02.447.014.456.014.465v9.3a.465.465,0,0,0,.374.456l4.651.93a.433.433,0,0,0,.091.009A.465.465,0,0,0,5.6,10.7v-.465H7.921a.465.465,0,0,0,.465-.465V6.977A.465.465,0,0,0,7.921,6.512Z" transform="translate(-0.014)"/></g></g></svg>