<svg xmlns="http://www.w3.org/2000/svg" width="27.034" height="24.331" viewBox="0 0 27.034 24.331"><defs><style>.a{fill:#a2f8c2;}.b{fill:#48b971;}</style></defs><g transform="translate(-2 -3)"><path class="a" d="M22.758,7H17.352a1.352,1.352,0,0,0,0,2.7h5.407a1.352,1.352,0,1,0,0-2.7Z" transform="translate(4.924 1.407)"/><path class="a" d="M3.352,5.7h24.33a1.352,1.352,0,0,0,0-2.7H3.352a1.352,1.352,0,0,0,0,2.7Z" transform="translate(0 0)"/><path class="a" d="M22.055,11h-2.7a1.352,1.352,0,1,0,0,2.7h2.7a1.352,1.352,0,0,0,0-2.7Z" transform="translate(5.627 2.814)"/><path class="a" d="M22.055,15h-2.7a1.352,1.352,0,1,0,0,2.7h2.7a1.352,1.352,0,1,0,0-2.7Z" transform="translate(5.627 4.22)"/><path class="a" d="M22.758,19H17.352a1.352,1.352,0,1,0,0,2.7h5.407a1.352,1.352,0,1,0,0-2.7Z" transform="translate(4.924 5.627)"/><path class="b" d="M6876.829,4048.255a9.462,9.462,0,1,1,9.462-9.462A9.473,9.473,0,0,1,6876.829,4048.255Zm0-13.518a1.354,1.354,0,0,0-1.352,1.353v2.148l-.959.959a1.352,1.352,0,0,0,.563,2.342,1.287,1.287,0,0,0,.314.038,1.353,1.353,0,0,0,1.028-.473l1.352-1.352a1.361,1.361,0,0,0,.406-.959v-2.7A1.355,1.355,0,0,0,6876.829,4034.736Z" transform="translate(-6865.367 -4020.924)"/></g></svg>