<svg xmlns="http://www.w3.org/2000/svg" width="31.541" height="20.686" viewBox="0 0 31.541 20.686"><defs><style>.a{fill:#48b971;}.b{fill:#a2f8c2;}</style></defs><g transform="translate(-7.459 -22.1)"><circle class="a" cx="4.226" cy="4.226" r="4.226" transform="translate(19.003 22.1)"/><circle class="b" cx="3.151" cy="3.151" r="3.151" transform="translate(29.568 24.139)"/><path class="b" d="M76.076,53.939c-.63-3.967-2.706-6.339-6.265-6.339a5.631,5.631,0,0,0-3.411,1,3.342,3.342,0,0,0,.371.334,12.668,12.668,0,0,1,3.04,6.821c0,.111.037.222.037.3C73.3,56.089,76.335,55.5,76.076,53.939Z" transform="translate(-37.091 -16.047)"/><circle class="b" cx="3.151" cy="3.151" r="3.151" transform="translate(10.588 24.139)"/><path class="b" d="M16.816,48.935l.334-.334a5.709,5.709,0,0,0-3.411-1c-3.522,0-5.6,2.335-6.265,6.339-.259,1.557,2.817,2.15,6.265,2.15a.723.723,0,0,1,.037-.3A12.387,12.387,0,0,1,16.816,48.935Z" transform="translate(0 -16.047)"/><path class="a" d="M35.746,58.707c-4.634,0-8.712-.816-8.378-2.854.89-5.338,3.67-8.452,8.378-8.452s7.488,3.151,8.378,8.452C44.457,57.891,40.38,58.707,35.746,58.707Z" transform="translate(-12.516 -15.921)"/></g></svg>