<svg xmlns="http://www.w3.org/2000/svg" width="46" height="46" viewBox="0 0 46 46">
	<defs>
		<style>
			.a{fill:#ddd;}
			.b{fill:#48b971;}
		</style>
	</defs>

	<linearGradient id="fillAnim" x1="0.5" y1="1" x2="0.5" y2="0">
		<stop offset="100%" stop-opacity="1" stop-color="#48b971">
			<animate attributeName="offset" values="0;1" repeatCount="indefinite" dur="3s" begin="0s"/>
		</stop>
		<stop offset="100%" stop-opacity="1" stop-color="#ddd">
			<animate attributeName="offset" values="0;1" repeatCount="indefinite" dur="3s"  begin="0s"/>
		</stop>
	</linearGradient>

	<g transform="translate(-121 -88)">
		<path fill="url(#fillAnim)" d="M44.257,14.183,34.123,20.067a11.267,11.267,0,0,1,.381,2.942,11.528,11.528,0,1,1-3.959-8.681h.036a5.747,5.747,0,0,0,7.5-8.681h0c-.054-.054-.109-.091-.163-.145l-.381-.327a22.885,22.885,0,1,0,6.719,9.008Z" transform="translate(121 88)"/>
		<path class="b" d="M830.47,986l2.779,7.682,2.8-7.682h2.379l-4.05,10.188h-2.379L828,986Z" transform="translate(-691.963 -880.094)"/>
		<path class="b" d="M1444.831,1111v2.107c-1.6-.145-2.6.727-2.6,2.052v3.759H1440v-7.827h2.234v1.416A2.879,2.879,0,0,1,1444.831,1111Z" transform="translate(-1292.85 -1002.824)"/>
	</g>
</svg>