<svg xmlns="http://www.w3.org/2000/svg" width="35" height="35" viewBox="0 0 35 35"><defs><style>.a{fill:#DA4167;}</style></defs><path class="a" d="M1.546,26.249h0L0,24.7l6.11-6.11H2.187V16.406H9.844v7.656H7.656V20.139L1.547,26.248Zm26.891-2.187H14.218V2.187H2.187V13.125H0V2.187A2.192,2.192,0,0,1,2.187,0h26.25a2.192,2.192,0,0,1,2.187,2.187V21.875A2.192,2.192,0,0,1,28.438,24.062ZM16.407,2.187V21.875H28.44l0-19.688ZM26.25,18.593H18.594V16.406H26.25v2.186Zm0-5.468H18.594V10.937H26.25v2.186Zm0-5.469H18.594V5.468H26.25V7.654Z" transform="translate(2.187 5.469)"/></svg>