<svg xmlns="http://www.w3.org/2000/svg" width="27.928" height="26.594" viewBox="0 0 27.928 26.594"><defs><style>.a{fill:#aebbd0;}.b{fill:red;stroke:#fff;}.c{stroke:none;}.d{fill:none;}</style></defs><g transform="translate(-1716.072 -29.76)"><path class="a" d="M18.057,1.937a.831.831,0,0,0-.822.848V5.32a9.995,9.995,0,0,0-8.8,9.274l-.45,6.367a.831.831,0,1,0,1.652.121l.459-6.376a8.3,8.3,0,0,1,7.968-7.769,8.3,8.3,0,0,1,7.968,7.769l.459,6.376a.831.831,0,1,0,1.652-.121l-.45-6.367A9.995,9.995,0,0,0,18.9,5.32V2.785a.831.831,0,0,0-.839-.848ZM6.628,22.995a.832.832,0,1,0,.087,1.661h7.207a4.153,4.153,0,0,0,8.288,0h7.207a.831.831,0,1,0,0-1.661H6.715a.831.831,0,0,0-.087,0Zm8.954,1.661h4.966a2.5,2.5,0,0,1-4.966,0Z" transform="translate(1710.232 27.822)"/><g class="b" transform="translate(1732 31)"><circle class="c" cx="5.5" cy="5.5" r="5.5"/><circle class="d" cx="5.5" cy="5.5" r="6"/></g></g></svg>