<svg xmlns="http://www.w3.org/2000/svg" width="40.696" height="53" viewBox="0 0 40.696 53"><defs><style>.a{fill:#e9e9e0;}.b{fill:#d9d7ca;}.c{fill:#cc4b4c;}.d{fill:#fff;}</style></defs><g transform="translate(-6.5)"><path class="a" d="M35.352,0H7.885C7.12,0,6.5.62,6.5,1.823V52.054A1.425,1.425,0,0,0,7.885,53H45.812a1.425,1.425,0,0,0,1.385-.946V12.283c0-.659-.088-.871-.243-1.027L35.941.243A.836.836,0,0,0,35.352,0Z" transform="translate(0)"/><path class="b" d="M37.5.151V11.365H48.714Z" transform="translate(-1.661 -0.008)"/><path class="c" d="M19.4,31.909h0a1.519,1.519,0,0,1-.915-.309,2.268,2.268,0,0,1-1.055-2.122c.172-1.541,2.077-3.154,5.664-4.8a63.53,63.53,0,0,0,3.585-10.174c-.945-2.056-1.863-4.723-1.193-6.287a1.815,1.815,0,0,1,1.073-1.15,4.646,4.646,0,0,1,.962-.163c.477,0,.9.614,1.193.993.279.356.912,1.11-.353,6.438A30.242,30.242,0,0,0,33.178,21.5a18.413,18.413,0,0,1,3.178-.339c1.482,0,2.38.345,2.747,1.057a1.916,1.916,0,0,1-.369,2.044,2.515,2.515,0,0,1-2.1,1.127c-1.151,0-2.491-.727-3.985-2.163a45.348,45.348,0,0,0-8.355,2.671,26.853,26.853,0,0,1-2.255,4.023C21.066,31.275,20.23,31.909,19.4,31.909Zm2.519-4.851c-2.023,1.137-2.847,2.071-2.906,2.6-.009.087-.035.316.408.655C19.564,30.265,20.387,29.889,21.921,27.057Zm12.906-4.2c.771.593.96.893,1.464.893a1.427,1.427,0,0,0,1.145-.417,1.5,1.5,0,0,0,.218-.393c-.116-.062-.271-.186-1.112-.186A13.839,13.839,0,0,0,34.828,22.853Zm-7.07-6.229a67.472,67.472,0,0,1-2.531,7.159,47.288,47.288,0,0,1,6.148-1.912A32.4,32.4,0,0,1,27.758,16.624Zm-.574-8.009a2.27,2.27,0,0,0,.091,3.044C28.172,9.657,27.224,8.6,27.183,8.615Z" transform="translate(-0.585 -0.37)"/><path class="c" d="M45.812,55.089H7.885A1.385,1.385,0,0,1,6.5,53.7V39H47.2V53.7A1.385,1.385,0,0,1,45.812,55.089Z" transform="translate(0 -2.089)"/><g transform="translate(15.249 40.625)"><path class="d" d="M17.3,52.46H15.744V42.924h2.743a3.85,3.85,0,0,1,1.2.194,3.271,3.271,0,0,1,1.068.582,3.039,3.039,0,0,1,.764.938,2.6,2.6,0,0,1,.292,1.236,3.381,3.381,0,0,1-.246,1.314,2.745,2.745,0,0,1-.686.99,3.092,3.092,0,0,1-1.061.621,4.083,4.083,0,0,1-1.371.22H17.3V52.46Zm0-8.359V47.88h1.423a1.692,1.692,0,0,0,.563-.1,1.419,1.419,0,0,0,.511-.317,1.55,1.55,0,0,0,.375-.614,2.91,2.91,0,0,0,.142-.977,2.642,2.642,0,0,0-.064-.537,1.55,1.55,0,0,0-.265-.582,1.568,1.568,0,0,0-.563-.466,2.092,2.092,0,0,0-.958-.187H17.3Z" transform="translate(-15.744 -42.924)"/><path class="d" d="M31.783,47.427a7.006,7.006,0,0,1-.253,2.012,5,5,0,0,1-.641,1.4,3.291,3.291,0,0,1-.874.887,4.381,4.381,0,0,1-.938.486,3.875,3.875,0,0,1-.828.207,5.515,5.515,0,0,1-.556.044h-3.61V42.924h2.872a5.458,5.458,0,0,1,2.115.381,4.392,4.392,0,0,1,1.514,1.016,4.168,4.168,0,0,1,.9,1.442A4.777,4.777,0,0,1,31.783,47.427Zm-4.606,3.895a2.571,2.571,0,0,0,2.277-1.009,5.122,5.122,0,0,0,.7-2.924,4.953,4.953,0,0,0-.142-1.177,2.519,2.519,0,0,0-.55-1.054,2.9,2.9,0,0,0-1.106-.764,4.764,4.764,0,0,0-1.811-.291h-.906v7.22h1.54Z" transform="translate(-16.191 -42.924)"/><path class="d" d="M36.177,44.1v3h3.985v1.061H36.177v4.3H34.6V42.924h5.964V44.1Z" transform="translate(-16.754 -42.924)"/></g></g></svg>