<svg xmlns="http://www.w3.org/2000/svg" width="69" height="69" viewBox="0 0 69 69"><defs><style>.a,.b{fill:#c40031;}.a{opacity:0.224;}.c{fill:#fafafa;}</style></defs><g transform="translate(-152 -149)"><ellipse class="a" cx="34.5" cy="34.5" rx="34.5" ry="34.5" transform="translate(152 149)"/><ellipse class="b" cx="18.818" cy="18.818" rx="18.818" ry="18.818" transform="translate(167.682 164.682)"/><path class="c" d="M6264.054-5971.34l-5.71-5.712-5.711,5.712a1.844,1.844,0,0,1-2.605,0,1.846,1.846,0,0,1,0-2.607l5.71-5.71-5.71-5.711a1.837,1.837,0,0,1,0-2.6,1.837,1.837,0,0,1,2.605,0l5.71,5.711,5.711-5.711a1.838,1.838,0,0,1,2.606,0,1.841,1.841,0,0,1,0,2.6l-5.712,5.712,5.709,5.709a1.839,1.839,0,0,1,0,2.607,1.83,1.83,0,0,1-1.3.539A1.837,1.837,0,0,1,6264.054-5971.34Z" transform="translate(-6071.57 6162.689)"/></g></svg>