<svg xmlns="http://www.w3.org/2000/svg" xmlns:xlink="http://www.w3.org/1999/xlink" width="205.913" height="217.138" viewBox="0 0 205.913 217.138"><defs><style>.a{fill:none;}.b{fill:#0f054c;}.c{fill:#160a5b;}.af,.d{fill:#24126a;}.e{fill:url(#a);}.f,.y{fill:#453c9e;}.g{fill:url(#b);}.h{fill:url(#c);}.i{fill:url(#d);}.j{fill:#4846a5;}.k{fill:#fcd1c5;}.l{fill:#e2b1a6;}.m{fill:#aa8383;}.n{fill:#936d6d;}.o{fill:#f0f6ff;}.p{fill:#c4ccd6;}.q{fill:url(#e);}.r{fill:url(#f);}.s{fill:#722318;}.t{fill:url(#g);}.u{fill:url(#h);}.ag,.v{fill:#42e8e0;}.w{fill:url(#i);}.x{fill:#fff;}.y{opacity:0.51;}.z{opacity:0.8;fill:url(#j);}.ae,.z{mix-blend-mode:lighten;isolation:isolate;}.aa{opacity:0.6;}.ab{clip-path:url(#k);}.ac{fill:#263649;}.ad{opacity:0.3;}.ae{opacity:0.5;fill:url(#l);}.af,.ag{opacity:0.4;}</style><linearGradient id="a" x1="113.062" y1="1.208" x2="114.29" y2="1.208" gradientUnits="objectBoundingBox"><stop offset="0" stop-color="#5761d7"/><stop offset="0.073" stop-color="#5471d8"/><stop offset="0.279" stop-color="#4d9bda"/><stop offset="0.48" stop-color="#48bddd"/><stop offset="0.672" stop-color="#44d4de"/><stop offset="0.849" stop-color="#42e3df"/><stop offset="1" stop-color="#42e8e0"/></linearGradient><linearGradient id="b" x1="654.604" y1="22.695" x2="655.569" y2="22.695" xlink:href="#a"/><linearGradient id="c" x1="37.766" y1="2.528" x2="38.756" y2="2.528" xlink:href="#a"/><linearGradient id="d" x1="235.572" y1="2.144" x2="236.881" y2="2.144" xlink:href="#a"/><linearGradient id="e" x1="44.948" y1="1.374" x2="45.95" y2="1.374" xlink:href="#a"/><linearGradient id="f" x1="369.88" y1="20.758" x2="370.919" y2="20.758" xlink:href="#a"/><linearGradient id="g" x1="367.589" y1="20.953" x2="368.627" y2="20.953" xlink:href="#a"/><linearGradient id="h" x1="57.71" y1="1.339" x2="58.864" y2="1.339" xlink:href="#a"/><linearGradient id="i" x1="1.346" y1="-1.091" x2="3.949" y2="-1.091" gradientUnits="objectBoundingBox"><stop offset="0" stop-color="#bcbeff"/><stop offset="0.151" stop-color="#a2a6f5"/><stop offset="0.387" stop-color="#8188e8"/><stop offset="0.612" stop-color="#6a72de"/><stop offset="0.822" stop-color="#5b65d8"/><stop offset="1" stop-color="#5761d7"/></linearGradient><linearGradient id="j" x1="3.266" y1="-1.008" x2="2.484" y2="-1.404" gradientUnits="objectBoundingBox"><stop offset="0" stop-color="#42e8e0"/><stop offset="0.106" stop-color="#36b5bf"/><stop offset="0.22" stop-color="#2c87a0"/><stop offset="0.338" stop-color="#235f86"/><stop offset="0.459" stop-color="#1b3e71"/><stop offset="0.582" stop-color="#162560"/><stop offset="0.711" stop-color="#121355"/><stop offset="0.846" stop-color="#0f084e"/><stop offset="1" stop-color="#0f054c"/></linearGradient><clipPath id="k"><ellipse class="a" cx="31.348" cy="18.099" rx="31.348" ry="18.099" transform="translate(0 62.545) rotate(-86.019)"/></clipPath><radialGradient id="l" cx="0.72" cy="0.277" r="1.68" gradientTransform="translate(-0.814) scale(2.628 1)" gradientUnits="objectBoundingBox"><stop offset="0" stop-color="#42e8e0"/><stop offset="0.118" stop-color="#35b0bb"/><stop offset="0.189" stop-color="#2f93a9"/><stop offset="0.221" stop-color="#2c86a0"/><stop offset="0.338" stop-color="#235f87"/><stop offset="0.459" stop-color="#1b3e71"/><stop offset="0.582" stop-color="#162561"/><stop offset="0.71" stop-color="#121355"/><stop offset="0.846" stop-color="#0f084e"/><stop offset="1" stop-color="#0f054c"/></radialGradient></defs><g transform="translate(-174.182 -44.172)"><path class="b" d="M310.7,298l-37.379,33.788H200.528L301.26,287.215l3.977,1.209-45.6,31.25,3.017-.089,42.479-23.953Z" transform="translate(-26.345 -70.482)"/><g transform="translate(272.311 103.781)"><path class="c" d="M356.418,292a27.654,27.654,0,0,0,4.192-.246c2.044-.3,7.672-.37,7.716,1.421.045,1.808-2.6,4.91-6.21,5.964s-8.413,1.02-10.8,1.517-4.2-1.3-3.434-3.472C348.643,295.033,356.418,292,356.418,292Z" transform="translate(-341.337 -175.532)"/><path class="c" d="M342.776,280.346s-.8,1.41-.414,2.243,1.414,2.914,4.8.738c3.359-2.156,9.814-5.284,9.814-5.284s3.676-2.262,3.453-4.758c-.221-2.47-3.6-1.982-3.6-1.982Z" transform="translate(-339.758 -169.638)"/><path class="d" d="M364.422,232.9s-1.221,15.767-4.157,21.928c-3.014,6.324-3.8,17.9-4.432,20.15-.64,2.271-2.643,5.592-5.824,6.406s-3.711-1.536-3.551-2.964,1.044-3.735,1.056-5.26a16.982,16.982,0,0,0-.359-2.907s-3.63,1.294-4.169-1.733a9.379,9.379,0,0,0,.347-1.349c.05-.453-.26-11.325-.342-12.629a59.032,59.032,0,0,1,1.6-11.767c.986-3.4.682-10.511.682-10.511l10.012-1.775Z" transform="translate(-339.97 -157.813)"/><path class="e" d="M344.6,243.437c.986-3.4.682-10.512.682-10.512l.877-.155c.037.98.233,7.225-.667,10.35a58.981,58.981,0,0,0-1.579,11.75c.085,1.3.415,12.159.366,12.611a9.458,9.458,0,0,1-.344,1.346c.544,3.023,4.168,1.731,4.168,1.731a17.023,17.023,0,0,1,.363,2.9c-.011,1.524-.89,3.835-1.046,5.252s.363,3.776,3.553,2.96c.1-.026.187-.074.284-.1a6.076,6.076,0,0,1-1.243.479c-3.194.818-3.711-1.536-3.551-2.964s1.044-3.735,1.057-5.26a19.15,19.15,0,0,0-.36-3.044s-3.629,1.432-4.168-1.6a9.379,9.379,0,0,0,.347-1.349c.05-.453-.26-11.325-.342-12.629A59.032,59.032,0,0,1,344.6,243.437Z" transform="translate(-339.97 -158.474)"/><path class="c" d="M349.371,234.118a12.406,12.406,0,0,0,1,4.462s-.018,8.391.8,12.653c0,0-1.316,8.74-2.152,11.533-.846,2.826-.741,8.3-.741,8.3a3.375,3.375,0,0,1-1,.227c-.591.045-.606-10.774.3-12.7.9-1.908,1.58-10.2,1.247-12.686-.329-2.464-.208-9.5-.643-10.719a1.638,1.638,0,0,1,.55-1.895Z" transform="translate(-341.092 -158.628)"/><path class="c" d="M361.833,158.229a6.951,6.951,0,0,1,2.691,5.55l-2.083-.411S363.033,159.422,361.833,158.229Z" transform="translate(-345.435 -136.857)"/><path class="c" d="M356.5,236.48c-6.659.423-10.251-2.589-10.251-2.589-.012-.985-.039-1.626-.039-1.626l10.012-1.775,9.133,2.413s-.239,3.079-.76,7.05c-1.63.239-3.27-3.964-3.27-3.964l-4.555.448S363.14,236.058,356.5,236.48Z" transform="translate(-340.905 -157.813)"/><path class="f" d="M361.916,209.808s-14.426,6.707-21.4-4.924a2.092,2.092,0,0,1-.271-1.147l.1-2.731a2.922,2.922,0,0,0-.133-1h0a4.467,4.467,0,0,1-.131-2.163c.554-3.036,2.04-11.217,2.387-13.467.422-2.733-.922-13.486-3.226-18.05-2.256-4.471,3.649-14.644,3.649-14.644a3.84,3.84,0,0,1,4.217-1.611s-2.663,1.93-1.208,3.89c1.469,1.978,5.855,3.492,5.855,3.492s8.137,4.109,10.972,9.29a22.5,22.5,0,0,1,1.119,6.2c.131,3.541-.145,12.137.015,13.335s.706,9.509.664,9.9S361.916,209.808,361.916,209.808Z" transform="translate(-338.737 -134.449)"/><g transform="translate(0.011 15.494)"><path class="g" d="M348.65,151.538a2.031,2.031,0,0,1,.052-1.58,3.882,3.882,0,0,1,1.25.118A5.144,5.144,0,0,0,348.65,151.538Z" transform="translate(-341.584 -149.95)"/><path class="d" d="M361.919,222.455s-8.532-23.638-8.146-32.112c.372-8.158,12.286,16.483,12.286,16.483l.214,14.223A25.233,25.233,0,0,1,361.919,222.455Z" transform="translate(-343.105 -161.184)"/><path class="h" d="M340.99,216a2.9,2.9,0,0,1,.133.994l-.1,2.7a2.055,2.055,0,0,0,.27,1.135c6.938,11.51,21.285,4.878,21.285,4.878s1.852-9.482,2.425-12.522c.04.736.062,1.25.053,1.338-.042.393-2.617,13.626-2.617,13.626s-14.426,6.707-21.4-4.924a2.092,2.092,0,0,1-.271-1.147l.1-2.731a2.923,2.923,0,0,0-.133-1,4.467,4.467,0,0,1-.131-2.163l.2-1.12A4.234,4.234,0,0,0,340.99,216Z" transform="translate(-339.27 -168.29)"/><path class="i" d="M339.491,169.046c2.3,4.521,3.637,15.17,3.22,17.876-.039.25-.093.58-.157.959.027-3.894-1.255-12.772-3.3-16.821a7.764,7.764,0,0,1-.258-4.8A5.788,5.788,0,0,0,339.491,169.046Z" transform="translate(-338.753 -154.68)"/></g><path class="j" d="M366.161,191.049a38.874,38.874,0,0,1-.556-5.668c-.07-3.271-1.013-8.641-6.723-7.575-8.105,1.514-4.611,13.2-3.709,15.255.911,2.072,4.555,11.5,4.749,12.042.182.508,6.016,12.438,8.105,15.307a.486.486,0,0,0,.752.077c.824-.779,2.671-2.628,2.9-3.767.293-1.46-.979-6.662-.979-6.662s-3.371-12.821-3.647-13.409C366.847,196.21,366.683,194.119,366.161,191.049Z" transform="translate(-343.062 -142.495)"/><path class="k" d="M357.739,150.1a2.888,2.888,0,0,1,2.092-1.661c1.463-.182,2.29-.611,2.433-1.164a10.687,10.687,0,0,1,.488-2.036,15.191,15.191,0,0,0,.617-2.864c-.006-.048,1.1-.405,1.145-.9s-.543-2.229-.482-2.365a4.439,4.439,0,0,0,.552-2.046,10.165,10.165,0,0,0-.659-3.025c-.448-1-3.561-7.048-11.51-3.774-8.1,3.337-1.933,10.061-2.741,14.549,0,0-.728.96.606,2.543S355.5,149.228,357.739,150.1Z" transform="translate(-341.477 -128.47)"/><path class="l" d="M350.809,152c-1.333-1.583-.606-2.543-.606-2.543a6.244,6.244,0,0,0-.015-2l3.194.552s4.686-4.3,4.365-2.046c-.324,2.284.821,2.654.821,2.654l-.958,1.262c-.247.325-.1.7.107,1.046,1.36,2.32,4.627,1.546,4.634,1.547a4.659,4.659,0,0,1-1.99.6,2.888,2.888,0,0,0-2.092,1.661C356.029,153.87,352.151,153.6,350.809,152Z" transform="translate(-342.005 -133.112)"/><g transform="translate(6.297)"><path class="m" d="M364.077,131.366s.576,1.628-.318,2.334-1.711,1.379-1.711,1.379l.023,2.091a1.576,1.576,0,0,1-.241.856l-1.128,1.8a2.189,2.189,0,0,0-.333,1.167v.863a.5.5,0,0,1-.427.5l-.3.04a.48.48,0,0,1-.536-.432l-.133-1.2s-.607-.95-1.922.222l-1.184.514a1.318,1.318,0,0,0-.714.771c-.33.932-1.038,2.776-1.571,3.091-.721.427-3.519-.977-3.893-1.615s-1.308-4.9-1.886-6.917c-.572-2-.223-6.953,5.725-8.311C359.426,127.172,363.245,129.6,364.077,131.366Z" transform="translate(-347.607 -128.128)"/><path class="n" d="M349.768,146.814c-.372-.636-1.308-4.9-1.886-6.917a14.34,14.34,0,0,0,5.324,1.911c3.01.405,8.929-3.1,8.929-3.1l.017,1.534a1.576,1.576,0,0,1-.241.856l-1.128,1.8a2.189,2.189,0,0,0-.333,1.167v.863a.5.5,0,0,1-.427.5l-.3.04a.48.48,0,0,1-.536-.432l-.133-1.2s-.607-.95-1.922.222l-1.714.744s-1.035,3.207-1.756,3.632S350.142,147.453,349.768,146.814Z" transform="translate(-347.687 -131.195)"/></g><path class="o" d="M349.758,150.418s-2.345,1.5-1.179,3.551c1.177,2.069,9.709,5.619,10.134,6.163,0,0,.315-3.138-.818-4.169,0,0-6.516-1.151-7.528-2.813A3.385,3.385,0,0,1,349.758,150.418Z" transform="translate(-341.497 -134.592)"/><path class="p" d="M349.758,150.418a3.385,3.385,0,0,0,.609,2.733c.765,1.257,4.68,2.222,6.543,2.618h0a7.085,7.085,0,0,0-1.84,2.439c-2.625-1.325-5.806-3.032-6.491-4.238C347.412,151.921,349.758,150.418,349.758,150.418Z" transform="translate(-341.497 -134.592)"/><path class="d" d="M348.126,159.813s3.8,2.132,5.657,3.093,3.9,2.258,3.9,2.258l.707-.739.867,1.9a24.963,24.963,0,0,1,4.32,3.2,15.15,15.15,0,0,1,2.608,3.876s-3.71-4.835-6.6-6.226l-.777-.382-.447-1.509-.7.777S349.283,161.105,348.126,159.813Z" transform="translate(-341.46 -137.317)"/><g transform="translate(16.694 74.896)"><path class="q" d="M362.413,249.8v0h0a2.235,2.235,0,0,1,.528-.936l16.092-15.067c.417-.391.834-.115.931.618L382.2,251.3a2.926,2.926,0,0,1-.594,2.2l-13.648,13.423.535,5.091-4.2-1.94v-.009a1.1,1.1,0,0,1-.369-.852l-1.66-18.171A3.262,3.262,0,0,1,362.413,249.8Z" transform="translate(-362.25 -233.615)"/><path class="f" d="M383.526,235.309l-3.848-1.633-.124-.052a.509.509,0,0,0-.455.168L363.007,248.86a2.242,2.242,0,0,0-.529.935l.589.285h0l3.357,1.62,14.1-13.517h0Z" transform="translate(-362.316 -233.615)"/><path class="d" d="M387.3,255.972l-16.611,16.545c-.462.461-.907.138-.992-.717l-1.815-18.3a2.993,2.993,0,0,1,.665-2.2l16.01-15.172c.415-.393.835-.116.939.622l2.382,17A2.937,2.937,0,0,1,387.3,255.972Z" transform="translate(-363.881 -234.293)"/><path class="c" d="M366.682,270.42l-1.735-18.231a2.986,2.986,0,0,1,.672-2.19l16.051-15.117a.56.56,0,0,1,.378-.178.478.478,0,0,0-.514.151L365.48,249.97a2.983,2.983,0,0,0-.673,2.19l1.73,18.229c.056.589.27.947.559.948C366.878,271.241,366.729,270.9,366.682,270.42Z" transform="translate(-362.989 -233.923)"/><g transform="translate(6.728 0.397)"><g transform="translate(0 8.628)"><path class="c" d="M374.906,246.854l-.857-.426a.763.763,0,0,0-.532-.084l-.068.018c-.085.023-.128.122-.113.26l.018.165,2.415,1.2-.019-.165a.793.793,0,0,0-.188-.41l-.08-.092A1.945,1.945,0,0,0,374.906,246.854Z" transform="translate(-372.192 -246.326)"/><path class="c" d="M374.187,249.1l1.139-1.077-2.4-1.568-1.124,1.05Z" transform="translate(-371.748 -246.365)"/><path class="r" d="M373.3,248.363l-.858-.428a.768.768,0,0,0-.533-.084l-.069.018c-.085.023-.128.122-.113.261l.017.165,2.419,1.207-.018-.166a.8.8,0,0,0-.187-.412l-.081-.092A1.932,1.932,0,0,0,373.3,248.363Z" transform="translate(-371.726 -246.763)"/><path class="s" d="M373.2,248.916l-.082-.749.073.036.082.75Z" transform="translate(-372.13 -246.86)"/><path class="s" d="M373.118,247.737l1.171-1.054.062.031-1.161,1.06Z" transform="translate(-372.13 -246.43)"/></g><g transform="translate(5.131 3.851)"><path class="c" d="M382.084,240.117l-.852-.417a.764.764,0,0,0-.527-.082l-.067.018c-.084.022-.125.119-.109.254l.019.161,2.4,1.179-.02-.162a.793.793,0,0,0-.19-.4l-.081-.091A1.953,1.953,0,0,0,382.084,240.117Z" transform="translate(-379.409 -239.599)"/><path class="c" d="M381.4,242.321l1.114-1.054-2.389-1.537-1.1,1.027Z" transform="translate(-378.973 -239.637)"/><path class="t" d="M380.514,241.593l-.853-.42a.765.765,0,0,0-.528-.083l-.067.018c-.084.022-.125.119-.109.256l.019.162,2.4,1.184-.02-.163a.786.786,0,0,0-.19-.4l-.081-.092A1.955,1.955,0,0,0,380.514,241.593Z" transform="translate(-378.952 -240.026)"/><path class="s" d="M380.418,242.135l-.089-.734.073.036.089.734Z" transform="translate(-379.352 -240.121)"/><path class="s" d="M380.329,240.98l1.147-1.032.062.03-1.136,1.037Z" transform="translate(-379.352 -239.7)"/></g><g transform="translate(0.474)"><path class="f" d="M372.409,240.571l.342,3.154.763-.716-.337-3.059a1.724,1.724,0,0,1,.444-1.3l3.262-3.032c.29-.27.567-.134.62.3l.362,3.006.746-.7-.376-3.079c-.117-.961-.728-1.259-1.367-.667l-3.475,3.223A3.811,3.811,0,0,0,372.409,240.571Z" transform="translate(-372.394 -234.174)"/><path class="f" d="M378.138,235.815l-1.36-.1-3.882,4.016-.143,2.42.1,2.023.891.444,0-2.526.026-1.721.8-1.267s1.458-1.312,1.473-1.348S378.138,235.815,378.138,235.815Z" transform="translate(-372.498 -234.62)"/><path class="f" d="M380.876,240.4l-.885-.435-.267-2.216.838.044.249.038Z" transform="translate(-374.519 -235.209)"/><path class="f" d="M380.811,234.681l-.949-.46s.256.537.261.533.312.106.317.105Z" transform="translate(-374.56 -234.188)"/><path class="c" d="M373.655,241.184l.349,3.159.762-.718-.344-3.065a1.73,1.73,0,0,1,.442-1.3l3.258-3.037c.29-.271.567-.135.621.3l.368,3.012.746-.7-.382-3.085c-.119-.963-.731-1.26-1.369-.667l-3.472,3.228A3.817,3.817,0,0,0,373.655,241.184Z" transform="translate(-372.755 -234.349)"/></g></g></g><path class="k" d="M377.581,232.5a20.309,20.309,0,0,1,.457,3.812,5.094,5.094,0,0,1-2.339,2.607c-.831.3-.5-.769-.7-1.427a10.07,10.07,0,0,1-.181-2.1Z" transform="translate(-349.201 -158.397)"/><path class="l" d="M374.818,235.4l2.763-2.894s.123.621.244,1.373a7.415,7.415,0,0,1-2.9,3.271A12.834,12.834,0,0,1,374.818,235.4Z" transform="translate(-349.201 -158.397)"/><path class="j" d="M377.6,232.559s-.946,3.323-3.435,3.714l.8-3.634s2.092-.691,2.156-.7S377.6,232.559,377.6,232.559Z" transform="translate(-349.013 -158.233)"/><path class="u" d="M355.335,180.557c-2.246,7.133,3.48,18.14,4.321,21.407.853,3.316,9.766,18.725,9.767,18.729l-.009.009.085.154a5.132,5.132,0,0,1-.569.433,1.715,1.715,0,0,1-.394.168h0a.48.48,0,0,1-.51-.209c-2.09-2.869-7.924-14.8-8.105-15.307-.194-.54-3.838-9.97-4.749-12.043C354.448,192.25,352.042,184.342,355.335,180.557Z" transform="translate(-343.06 -143.333)"/></g><g transform="translate(312.471 44.172)"><path class="v" d="M464.585,194.484a3.345,3.345,0,0,1-1.65-.494l-49.141-28.37c-2.227-1.287-4.04-4.744-4.04-7.708l0-110.123a3.67,3.67,0,0,1,1.443-3.333,2.692,2.692,0,0,1,2.739.209l49.142,28.371c2.227,1.287,4.039,4.744,4.039,7.708l0,110.123a3.671,3.671,0,0,1-1.442,3.332A2.157,2.157,0,0,1,464.585,194.484Zm-52.3-150.031a1.873,1.873,0,0,0-.949.247,3.41,3.41,0,0,0-1.3,3.088l0,110.123c0,2.874,1.749,6.222,3.9,7.463l49.142,28.37a2.428,2.428,0,0,0,2.457.21,3.41,3.41,0,0,0,1.3-3.088l0-110.123c0-2.874-1.749-6.222-3.9-7.463L413.793,44.909A3.055,3.055,0,0,0,412.285,44.453Z" transform="translate(-399.493 -44.171)"/><g transform="translate(0 1.511)"><g transform="translate(0.24)"><path class="w" d="M454.034,201.85l-2.567-6.969L406.3,168.8c-2.266-1.308-4.1-4.817-4.1-7.838l.009-99.771-4.539-12.319,3.972-2.294,0,.006a2.612,2.612,0,0,1,2.7.2L455.293,76.21c2.266,1.309,4.1,4.818,4.1,7.839l-.011,112.213A3.664,3.664,0,0,1,458,199.549l0,.007Z" transform="translate(-396.23 -46.298)"/><path class="d" d="M450.7,79.461,399.753,50.039c-2.266-1.309-4.1.08-4.1,3.1l-.011,112.213c0,3.021,1.836,6.531,4.1,7.839l50.951,29.422c2.266,1.309,4.1-.08,4.1-3.1L454.806,87.3C454.806,84.279,452.97,80.77,450.7,79.461Z" transform="translate(-395.64 -47.24)"/><path class="x" d="M455.485,199.392,455.5,87.179c0-3.021-1.836-6.531-4.1-7.839L400.443,49.918a2.746,2.746,0,0,0-2.425-.336,2.514,2.514,0,0,1,2.941.038L451.91,79.043c2.266,1.309,4.1,4.818,4.1,7.839L456,199.094c0,1.809-.662,3.027-1.677,3.436A3.894,3.894,0,0,0,455.485,199.392Z" transform="translate(-396.33 -47.119)"/><path class="y" d="M450.182,80.823,401.04,52.452c-2.192-1.266-3.97.078-3.97,3l0,110.123c0,2.924,1.777,6.32,3.97,7.586l49.142,28.37c2.192,1.266,3.97-.077,3.97-3l0-110.124C454.152,85.485,452.374,82.089,450.182,80.823Z" transform="translate(-396.055 -47.945)"/></g><g transform="translate(0 4.507)"><path class="z" d="M450.153,202.994a3.344,3.344,0,0,1-1.658-.5l-49.142-28.37c-2.232-1.289-4.048-4.753-4.048-7.723l0-110.123a3.688,3.688,0,0,1,1.451-3.348,2.706,2.706,0,0,1,2.756.209l49.142,28.371c2.232,1.289,4.048,4.753,4.048,7.723l0,110.123a3.685,3.685,0,0,1-1.452,3.347A2.17,2.17,0,0,1,450.153,202.994Zm-52.3-150.031a1.845,1.845,0,0,0-.94.245,3.389,3.389,0,0,0-1.294,3.073l0,110.123c0,2.868,1.744,6.209,3.89,7.448l49.142,28.37a2.409,2.409,0,0,0,2.439.21,3.4,3.4,0,0,0,1.294-3.073l0-110.123c0-2.868-1.745-6.21-3.89-7.449L399.351,53.417A3.042,3.042,0,0,0,397.852,52.963Z" transform="translate(-395.302 -52.646)"/></g><g class="aa" transform="translate(10.694 32.73)"><g class="ab"><g transform="translate(-36.111 15.44)"><path class="c" d="M395.77,243.791a35.846,35.846,0,0,0-5.112,3.9c-1.292,1.446-3.851,4.4-2.8,5.81s4.609,2.2,8.429-1.323,2.736-3.728,5.99-5.472,4.15-3.642,3.759-4.728-2-3-2.877-2.591S395.77,243.791,395.77,243.791Z" transform="translate(-367.654 -150.447)"/><path class="c" d="M423.255,257.824a39.067,39.067,0,0,1-2.078,4.019c-.707,1-4.134,6.776-2.345,8.1s5.182.96,7.863-1.952,3.277-6.455,3.938-7.619,2.308-4.269,1.527-6.061-.955-2.1-.955-2.1Z" transform="translate(-376.56 -154.184)"/><path class="d" d="M400.279,199.377s-11.352,11.2-13.213,16.826a6.235,6.235,0,0,0,1.409,5.422c2.194,2.384,6.854,10.175,6.854,10.175s3.478,4.207,7.968.843c0,0,2.031-3.245.783-5.4s-4.569-9.047-4.569-9.047,7.28-5.008,10.872-6.274a49.739,49.739,0,0,0,5.51-2.243,17.214,17.214,0,0,1-3.282,6.7c-2.628,3.307-7.029,8.621-5.564,12.319a31.1,31.1,0,0,0,3.691,6.971c1.377,2.129,2.68,6.569,3.854,7.03s6.6.994,7.483-2.54-1.852-10.4-3.083-12.728c0,0,14.681-16.938,16.079-18.8S404.822,196.5,400.279,199.377Z" transform="translate(-367.456 -138.715)"/><path class="c" d="M407.918,227.241c-1.248-2.157-4.569-9.047-4.569-9.047s7.28-5.008,10.872-6.274a49.739,49.739,0,0,0,5.51-2.243,37.188,37.188,0,0,0,3.917-7.478c-8.279-2.425-17.269-4.254-19.531-2.823.8,1.983,5.023,1.966,5.023,1.966s1.577,3.837,2.621,4.327,3.549-.046,3.549-.046a9.305,9.305,0,0,1-2.188,1.92c-1.784,1.288-12.956,10.44-12.956,10.44s.636.363,3.611,5.74,3.358,8.919,3.358,8.919S409.167,229.4,407.918,227.241Z" transform="translate(-371.295 -138.715)"/><path class="c" d="M441.226,207.819c-6.564-.626-14.208-.682-12.487,2.765a11.012,11.012,0,0,0,8.789,6.107c-.038,2.148-9.045,12.521-9.045,12.521l2.1,4.082c2.1,4.082,1.835,11.513,1.835,11.513a3.3,3.3,0,0,0,1.709-2.153c.88-3.535-1.852-10.4-3.083-12.728,0,0,14.681-16.938,16.079-18.8C447.537,210.574,445.049,209.286,441.226,207.819Z" transform="translate(-379.507 -141.213)"/><path class="f" d="M385.925,151.72l1.746-1.355s9.412-5.226,12.544-6.92a21.368,21.368,0,0,0,4.712-3.867,6.544,6.544,0,0,1,4.7-2l16.49-.082a35.716,35.716,0,0,0,2.568,3.683c.476.445,4.951,4.2,8.16,7.283a13.886,13.886,0,0,1,3.74,6.222c1.837,6.476,1.81,19.526,2.088,28.856a29.3,29.3,0,0,1-3.96,1.047c-2.805.6-2.459.216-2.459.216s-4.208,9.466-9.915,10.381-13.4-1.755-14.769-10.717c0,0-11.128-1.667-14.146-2.906a.456.456,0,0,1-.195-.7c1.345-1.786,6.363-8.709,6.84-13.219a73.93,73.93,0,0,0-.031-14.852s-8.392,3.162-11.067,3.723c0,0-10.215,11.226-14.483,14.281,0,0,1.461-2.3-1.474-3.858Z" transform="translate(-364.58 -120.916)"/><path class="d" d="M452.858,202.572c.428-.092.813-.179,1.166-.262l-.593-1.164-15.481-1.638-9.041.466-3.109,2.954a14.711,14.711,0,0,0,.736,2.658,22.951,22.951,0,0,0,5.621.173c1.779-.381,15.555,1.645,15.583,1.649a31.7,31.7,0,0,0,2.647-4.592C450.374,202.893,450.541,203.067,452.858,202.572Z" transform="translate(-378.729 -138.899)"/><path class="k" d="M428.107,195.625a.134.134,0,0,0-.126-.1c-.745-.018-5.583-.161-7.412-.792a8.865,8.865,0,0,0-4.193-.444c-.107.115-3.409,1.517-3.606,2.086-.175.506-.492,2.258-.055,2.905a9.4,9.4,0,0,1,.645,1.081l.344.036a9.973,9.973,0,0,0,.7,1.184,2.064,2.064,0,0,1,.27.444c.209.45.575,1.193.728,1.21a8.162,8.162,0,0,0,1.5.159c.213-.055.4-.7.317-.99a.12.12,0,0,1,.1-.163,14.217,14.217,0,0,1,3.514-.077c2.152.2,5.194-1.21,5.469-1.34a.143.143,0,0,1,.045-.011l3.035-.274a.138.138,0,0,0,.12-.177Z" transform="translate(-374.871 -137.36)"/><path class="o" d="M428.887,147.658a40.641,40.641,0,0,0,.148,19.3s9.934-18.533,11.012-21.541,1.469-5.143.461-6.223-9.982,4.5-9.982,4.5Z" transform="translate(-379.303 -121.367)"/><path class="p" d="M432.276,166.413s1.892-5.791,1.563-7.661a22.38,22.38,0,0,0-.8-3.206l1.706-1.574.753,1.56a37.027,37.027,0,0,0,4.006-3.269,31.36,31.36,0,0,1-3.976,2.386,2.788,2.788,0,0,0-1.044-1c-.6-.253-2.075,1.774-2.075,1.774l-.277,3.514-1.485,8.2.515,1.218Z" transform="translate(-380.134 -125.198)"/><path class="d" d="M430.53,151.253s-.359,3.74-.049,4a2.466,2.466,0,0,0,2.006-.02,14.146,14.146,0,0,0,1.913-1.928S432.719,150.344,430.53,151.253Z" transform="translate(-380.05 -124.855)"/><path class="d" d="M431.768,156a10.672,10.672,0,0,1,.041,6.184,52.143,52.143,0,0,0-1.343,6.922l-1.475,2.768a28.612,28.612,0,0,1-1.236-10.854,9.885,9.885,0,0,1,2.134-4.606Z" transform="translate(-379.26 -126.281)"/><path class="k" d="M422.668,125.922a12.047,12.047,0,0,0-.291,2.753c.164.439.75.733.607,1.636a16.966,16.966,0,0,0,.647,4.5s-.2.96.073,1.257.618.287.87.741.338,2.789,1.284,3.569a3.492,3.492,0,0,0,2.813.772,4.558,4.558,0,0,0,1.287-.655l1.424.594s7.388-2.092,7.156-7.284l-.005-.549a5.924,5.924,0,0,0,.677-1.215c.152-.482,1.376-2.638.757-3.569,0,0,2.862-11.3-5.967-11.979S423.843,122,422.668,125.922Z" transform="translate(-377.726 -114.809)"/><path class="l" d="M441.65,139.96V139.9a1.617,1.617,0,0,0-1.015-.308c-1.01.178-.777-1.918-.777-1.918a19.421,19.421,0,0,0-.7,3.058c-.515,2.677-6.084,5.921-6.084,5.921l1.424.594S441.882,145.153,441.65,139.96Z" transform="translate(-380.837 -120.967)"/><path class="m" d="M422.556,120.351c-.863,1.833-1.276,4.036.53,5.514,0,0,1.517.413,4.4-.927a6.729,6.729,0,0,1,4.947-.146,1.173,1.173,0,0,1,.8,1.147l-.043,1.608a1.018,1.018,0,0,0,.619.964l1.341.571.266,1.564a.752.752,0,0,0,.995.582l.339-.121s.2-3.48,3.07-3.3c0,0,2.325-5.027-.057-9.624s-8.911-4.269-10.3-3.747a9.131,9.131,0,0,0-2.626,1.233A11.164,11.164,0,0,0,422.556,120.351Z" transform="translate(-377.575 -114.143)"/><path class="d" d="M453.412,172.815s-1.338,9.855-1.886,12.644l-4.32,2.278,7.672-.468Z" transform="translate(-384.936 -131.158)"/><path class="n" d="M444.46,131.738a13.113,13.113,0,0,0,.975-4.031,10.414,10.414,0,0,1-7.561,2.165l-.043,1.608a1.018,1.018,0,0,0,.619.964l1.34.571.266,1.564a.752.752,0,0,0,.995.582l.339-.121S441.59,131.561,444.46,131.738Z" transform="translate(-382.218 -118.077)"/><path class="d" d="M444.067,145.578s-2.287,7.853-2.763,9.367l-1.84-.195.332,2.485L429.887,170.3l11-12.63-.436-2.214,1.671.177Z" transform="translate(-379.914 -123.259)"/><path class="ac" d="M435.985,193.585s23.24-.757,23.833-1.179.7-6.4.643-9.866c-.039-2.431-.011-11.941-2.085-18.613,1.63,5.649.772,25.627.033,26.643s-22.846,1.6-22.846,1.6h0C435.8,193,435.985,193.585,435.985,193.585Z" transform="translate(-381.56 -128.581)"/><path class="k" d="M368.263,178.891s-.088.586-1.1,1.159-3.6,1.85-4.015,2.217a24.424,24.424,0,0,0-2.339,2.221c-.054.215-.614,2.07-.611,2.181s.182.968.182.968l-.575,2.739s-.728,1.062.063,1.351a1.009,1.009,0,0,0,1.256-.657,13.26,13.26,0,0,0,2.078-1.252c.879-.682,4.406-3.52,5-3.346s.048,1.191-.239,1.367-2.158,2-1.375,3.271,1.294-.717,1.811-1.121,1.635-1.994,2.32-2.19,1.931-2.754,2.094-3.9a4.471,4.471,0,0,1,1.272-2.249c.292-.37-.631-3.209-.631-3.209l-3.491-1.087-1.225.8Z" transform="translate(-359.502 -132.475)"/></g></g></g><g class="ad" transform="translate(0.158 4.664)"><path class="ae" d="M448.637,81.715,399.495,53.344c-2.192-1.266-3.97.078-3.97,3l0,110.123c0,2.923,1.777,6.32,3.969,7.586l49.142,28.37c2.192,1.266,3.97-.077,3.97-3l0-110.124C452.606,86.377,450.829,82.981,448.637,81.715Z" transform="translate(-395.525 -52.868)"/></g><g transform="translate(5.818 14.459)"><path class="af" d="M468.133,103.566a3,3,0,0,0-1.358-2.352c-.75-.433-1.358-.082-1.358.784a3,3,0,0,0,1.358,2.353C467.525,104.784,468.133,104.433,468.133,103.566Z" transform="translate(-421.454 -76.63)"/><path class="v" d="M465.808,104.909a3,3,0,0,0-1.357-2.353c-.75-.433-1.358-.082-1.358.784a3,3,0,0,0,1.358,2.353C465.2,106.126,465.808,105.775,465.808,104.909Z" transform="translate(-420.78 -77.019)"/><path class="af" d="M452.248,95.937l5.316,3.07c.65.375,1.176-.023,1.176-.889h0a2.816,2.816,0,0,0-1.176-2.247L452.248,92.8c-.65-.375-1.176.023-1.176.889h0A2.818,2.818,0,0,0,452.248,95.937Z" transform="translate(-417.294 -74.203)"/><path class="v" d="M449.923,97.279l5.316,3.07c.65.375,1.176-.023,1.176-.889h0a2.816,2.816,0,0,0-1.176-2.247l-5.316-3.071c-.65-.375-1.176.023-1.176.89h0A2.818,2.818,0,0,0,449.923,97.279Z" transform="translate(-416.62 -74.592)"/><path class="af" d="M407,69.941l5.316,3.07c.65.376,1.176-.023,1.176-.889h0a2.816,2.816,0,0,0-1.176-2.247L407,66.805c-.65-.376-1.176.023-1.176.889h0A2.816,2.816,0,0,0,407,69.941Z" transform="translate(-404.171 -66.664)"/><path class="v" d="M404.673,71.283l5.316,3.07c.65.376,1.176-.023,1.176-.889h0a2.816,2.816,0,0,0-1.176-2.247l-5.316-3.07c-.65-.375-1.176.023-1.176.889h0A2.816,2.816,0,0,0,404.673,71.283Z" transform="translate(-403.497 -67.053)"/></g><path class="af" d="M435.526,82.817c0,1-.7,1.405-1.568.905a3.467,3.467,0,0,1-1.568-2.716c0-1,.7-1.406,1.568-.905A3.466,3.466,0,0,1,435.526,82.817Z" transform="translate(-406.058 -56.039)"/><path class="v" d="M435.013,82.774c0,.447-.313.628-.7.4a1.549,1.549,0,0,1-.7-1.213c0-.447.314-.628.7-.4A1.546,1.546,0,0,1,435.013,82.774Z" transform="translate(-406.412 -56.497)"/></g><g transform="translate(16.556 50.598)"><path class="v" d="M443.224,158.8l-3.181-1.837.177-.308,2.649,1.53v-3.059h.355Z" transform="translate(-424.833 -126.946)"/><path class="v" d="M443.224,133.15h-.355v-3.264l-2.826-1.632.177-.308,3,1.734Z" transform="translate(-424.833 -119.064)"/><path class="v" d="M418.975,119.109h-.355v-3.673l3.182,1.836-.178.308-2.649-1.53Z" transform="translate(-418.62 -115.436)"/><path class="v" d="M421.625,145.663l-3-1.735v-3.469h.355v3.264l2.827,1.632Z" transform="translate(-418.62 -122.692)"/></g><g transform="translate(4.288 102.576)"><path class="af" d="M444.792,209.872l-35.746-20.7c-2.435-1.41-4.411.081-4.415,3.329h0c0,3.248,1.967,7.024,4.4,8.433l35.747,20.7c2.435,1.409,4.411-.081,4.415-3.329h0C449.2,215.058,447.226,211.282,444.792,209.872Z" transform="translate(-402.296 -188.645)"/><path class="ag" d="M441.666,211.672l-35.747-20.7c-2.435-1.409-4.411.082-4.415,3.33h0c0,3.248,1.967,7.024,4.4,8.433l35.747,20.7c2.435,1.409,4.411-.082,4.415-3.33h0C446.071,216.857,444.1,213.081,441.666,211.672Z" transform="translate(-401.389 -189.167)"/><path class="v" d="M443.361,224.034a3.658,3.658,0,0,1-1.813-.545l-35.747-20.7c-2.462-1.425-4.462-5.253-4.459-8.533,0-1.75.58-3.086,1.587-3.666a2.948,2.948,0,0,1,3,.236l35.747,20.695c2.462,1.426,4.462,5.254,4.459,8.534,0,1.75-.581,3.085-1.588,3.665A2.342,2.342,0,0,1,443.361,224.034Zm-39.244-33.519a2.124,2.124,0,0,0-1.073.278c-.933.537-1.469,1.8-1.472,3.466,0,3.206,1.945,6.944,4.344,8.333l35.747,20.7a2.728,2.728,0,0,0,2.77.236c.934-.537,1.47-1.8,1.473-3.465,0-3.207-1.946-6.946-4.344-8.335l-35.746-20.695A3.432,3.432,0,0,0,404.117,190.515Z" transform="translate(-401.342 -189.12)"/><g transform="translate(1.761 9.648)"><path class="ag" d="M459.042,228.491a3.341,3.341,0,0,0-1.509-2.621c-.835-.484-1.512-.094-1.514.87a3.342,3.342,0,0,0,1.509,2.621C458.364,229.845,459.041,229.455,459.042,228.491Z" transform="translate(-418.96 -209.028)"/><path class="v" d="M458.173,229.617a1.457,1.457,0,0,1-.717-.218,3.439,3.439,0,0,1-1.549-2.691,1,1,0,0,1,1.634-.942,3.44,3.44,0,0,1,1.55,2.692h0a1.137,1.137,0,0,1-.485,1.048A.853.853,0,0,1,458.173,229.617Zm-1.349-3.908a.7.7,0,0,0-.354.09.989.989,0,0,0-.4.909,3.255,3.255,0,0,0,1.468,2.55.844.844,0,0,0,1.393-.8,3.259,3.259,0,0,0-1.469-2.551A1.289,1.289,0,0,0,456.824,225.71Z" transform="translate(-418.928 -208.995)"/><path class="ag" d="M451.937,224.415a3.344,3.344,0,0,0-1.509-2.621c-.835-.483-1.512-.093-1.514.872a3.342,3.342,0,0,0,1.509,2.621C451.259,225.769,451.937,225.379,451.937,224.415Z" transform="translate(-416.9 -207.846)"/><path class="v" d="M449.9,226.216a1.453,1.453,0,0,1-.716-.219,3.435,3.435,0,0,1-1.55-2.691,1,1,0,0,1,1.634-.941,3.436,3.436,0,0,1,1.548,2.691,1.14,1.14,0,0,1-.484,1.049A.864.864,0,0,1,449.9,226.216Zm-1.348-3.909a.692.692,0,0,0-.353.09.988.988,0,0,0-.4.909,3.255,3.255,0,0,0,1.469,2.551.844.844,0,0,0,1.392-.8,3.259,3.259,0,0,0-1.468-2.551A1.3,1.3,0,0,0,448.549,222.307Z" transform="translate(-416.527 -208.008)"/><path class="v" d="M427.79,217.695a1.456,1.456,0,0,1-.716-.218,3.437,3.437,0,0,1-1.549-2.691,1,1,0,0,1,1.634-.941,3.436,3.436,0,0,1,1.549,2.691h0a1.138,1.138,0,0,1-.485,1.049A.852.852,0,0,1,427.79,217.695Zm-1.348-3.909a.686.686,0,0,0-.353.091.985.985,0,0,0-.4.909,3.256,3.256,0,0,0,1.47,2.55.843.843,0,0,0,1.392-.8,3.255,3.255,0,0,0-1.468-2.551A1.291,1.291,0,0,0,426.442,213.786Z" transform="translate(-410.116 -205.537)"/><path class="ag" d="M433.833,213.59a3.341,3.341,0,0,0-1.509-2.621c-.835-.484-1.512-.093-1.513.871a3.339,3.339,0,0,0,1.509,2.621C433.154,214.945,433.832,214.555,433.833,213.59Z" transform="translate(-411.65 -204.707)"/><path class="v" d="M417.654,215.364a1.452,1.452,0,0,1-.716-.218,3.435,3.435,0,0,1-1.55-2.691,1,1,0,0,1,1.634-.942,3.438,3.438,0,0,1,1.548,2.692h0a1.139,1.139,0,0,1-.484,1.049A.857.857,0,0,1,417.654,215.364Zm-1.348-3.909a.693.693,0,0,0-.353.09.989.989,0,0,0-.4.91,3.258,3.258,0,0,0,1.47,2.55.843.843,0,0,0,1.392-.8,3.255,3.255,0,0,0-1.469-2.551A1.291,1.291,0,0,0,416.306,211.455Z" transform="translate(-407.177 -204.861)"/><path class="ag" d="M427.021,209.346a3.341,3.341,0,0,0-1.509-2.621c-.834-.484-1.512-.093-1.513.871a3.344,3.344,0,0,0,1.509,2.621C426.343,210.7,427.02,210.31,427.021,209.346Z" transform="translate(-409.674 -203.476)"/><path class="v" d="M406.089,213.857a1.458,1.458,0,0,1-.716-.219,3.438,3.438,0,0,1-1.549-2.692,1,1,0,0,1,1.634-.941,3.435,3.435,0,0,1,1.55,2.691,1.138,1.138,0,0,1-.484,1.048A.857.857,0,0,1,406.089,213.857Zm-1.348-3.909a.7.7,0,0,0-.353.09.987.987,0,0,0-.4.908,3.259,3.259,0,0,0,1.468,2.552.844.844,0,0,0,1.393-.8,3.255,3.255,0,0,0-1.469-2.551A1.289,1.289,0,0,0,404.741,209.948Z" transform="translate(-403.823 -204.424)"/><path class="ag" d="M420.027,205.062a3.341,3.341,0,0,0-1.509-2.621c-.835-.484-1.512-.093-1.514.871a3.342,3.342,0,0,0,1.509,2.621C419.349,206.417,420.026,206.027,420.027,205.062Z" transform="translate(-407.646 -202.234)"/><path class="ag" d="M438.32,218.015l4.372,2.531c.723.418,1.309-.024,1.311-.988h0a3.135,3.135,0,0,0-1.306-2.5l-4.372-2.531c-.723-.419-1.309.024-1.311.988h0A3.135,3.135,0,0,0,438.32,218.015Z" transform="translate(-413.448 -205.752)"/><path class="v" d="M440.694,222.184a1.129,1.129,0,0,1-.562-.169l-4.372-2.53a3.229,3.229,0,0,1-1.347-2.574,1.242,1.242,0,0,1,.495-1.128.919.919,0,0,1,.937.07l4.371,2.531a3.229,3.229,0,0,1,1.347,2.574,1.24,1.24,0,0,1-.494,1.128A.74.74,0,0,1,440.694,222.184Zm-4.854-2.839,4.372,2.53a.767.767,0,0,0,.777.071,1.1,1.1,0,0,0,.413-.989,3.048,3.048,0,0,0-1.266-2.433l-4.371-2.532a.767.767,0,0,0-.777-.07,1.1,1.1,0,0,0-.414.989,3.053,3.053,0,0,0,1.266,2.434Z" transform="translate(-412.694 -206.134)"/></g></g></g></g></svg>