<svg xmlns="http://www.w3.org/2000/svg" width="48.44" height="45.413" viewBox="0 0 48.44 45.413"><defs><style>.a{fill:#dbe3ee;}.b{fill:#104f55;}</style></defs><path class="a" d="M3.506,5.494A3.516,3.516,0,0,0,0,9.013v8.109a3.417,3.417,0,0,0,.7,2A3.435,3.435,0,0,0,0,21.126v8.109a3.417,3.417,0,0,0,.7,2A3.435,3.435,0,0,0,0,33.24v8.109a3.511,3.511,0,0,0,3.506,3.513H38.8a3.594,3.594,0,0,0,3.6-3.513V33.24a3.435,3.435,0,0,0-.7-2.005,3.417,3.417,0,0,0,.7-2v-6.37a14.01,14.01,0,0,1-4.541.81,13.615,13.615,0,0,1-13.6-13.627,13.484,13.484,0,0,1,.844-4.554H3.506ZM6.045,11.55H18.134v3.028H6.045Zm0,12.113H18.134v3.028H6.045Zm27.124,0h3.075v3.028H33.169ZM6.045,35.777H18.134v3.028H6.045Zm27.124,0h3.075v3.028H33.169Z" transform="translate(0 0.551)"/><path class="b" d="M30.862,1A10.6,10.6,0,1,0,41.44,11.6,10.589,10.589,0,0,0,30.862,1Zm4.221,5.063L37.219,8.2l-8.211,8.233a1.523,1.523,0,0,1-2.137,0L23.3,12.859l2.137-2.141,2.5,2.5Z" transform="translate(7 -1)"/></svg>