<svg xmlns="http://www.w3.org/2000/svg" xmlns:xlink="http://www.w3.org/1999/xlink" width="158" height="158" viewBox="0 0 158 158">
  <defs>
    <clipPath id="clip-path">
      <circle id="Ellipse_1328" data-name="Ellipse 1328" cx="79" cy="79" r="79" fill="#fff" stroke="#707070" stroke-width="1"/>
    </clipPath>
    <linearGradient id="linear-gradient" x1="0.408" y1="0.014" x2="0.897" y2="1.9" gradientUnits="objectBoundingBox">
      <stop offset="0" stop-color="#104f55"/>
      <stop offset="1" stop-color="#48b971"/>
    </linearGradient>
    <linearGradient id="linear-gradient-2" x1="0.405" y1="0.485" x2="0.605" y2="0.994" gradientUnits="objectBoundingBox">
      <stop offset="0" stop-color="#fcb18e"/>
      <stop offset="1" stop-color="#f19a73"/>
    </linearGradient>
    <linearGradient id="linear-gradient-3" x1="-0.315" y1="-0.892" x2="0.99" y2="1.4" gradientUnits="objectBoundingBox">
      <stop offset="0" stop-color="#f8f8f8"/>
      <stop offset="1" stop-color="#f5d2c9"/>
    </linearGradient>
    <linearGradient id="linear-gradient-4" x1="-1.005" y1="-0.037" x2="0.465" y2="0.46" gradientUnits="objectBoundingBox">
      <stop offset="0" stop-color="#eea886"/>
      <stop offset="0.308" stop-color="#e7a282"/>
      <stop offset="0.793" stop-color="#dc9a7c"/>
      <stop offset="0.921" stop-color="#c68163"/>
      <stop offset="1" stop-color="#bf795b"/>
    </linearGradient>
    <linearGradient id="linear-gradient-5" x1="-0.291" y1="-0.029" x2="0.457" y2="0.441" gradientUnits="objectBoundingBox">
      <stop offset="0" stop-color="#dc9a7c"/>
      <stop offset="1" stop-color="#ab735a"/>
    </linearGradient>
    <linearGradient id="linear-gradient-6" x1="0.334" y1="-0.795" x2="0.539" y2="0.613" xlink:href="#linear-gradient-2"/>
    <linearGradient id="linear-gradient-7" x1="1.912" y1="0.527" x2="-1.871" y2="0.463" xlink:href="#linear-gradient-3"/>
    <linearGradient id="linear-gradient-8" x1="0.463" y1="-0.982" x2="0.548" y2="2.651" gradientUnits="objectBoundingBox">
      <stop offset="0" stop-color="#f5ac8a"/>
      <stop offset="1" stop-color="#c58568"/>
    </linearGradient>
    <linearGradient id="linear-gradient-9" x1="-0.676" y1="-0.07" x2="0.637" y2="0.555" gradientUnits="objectBoundingBox">
      <stop offset="0" stop-color="#fab18d"/>
      <stop offset="0.308" stop-color="#f8ae8c"/>
      <stop offset="0.793" stop-color="#f5ac8a"/>
      <stop offset="0.796" stop-color="#f4ab89"/>
      <stop offset="0.923" stop-color="#e09270"/>
      <stop offset="1" stop-color="#d98a68"/>
    </linearGradient>
    <linearGradient id="linear-gradient-10" x1="0.06" y1="-2.829" x2="0.537" y2="0.589" xlink:href="#linear-gradient-9"/>
    <linearGradient id="linear-gradient-11" x1="0.626" y1="-0.901" x2="0.458" y2="0.999" xlink:href="#linear-gradient-2"/>
    <linearGradient id="linear-gradient-12" x1="1.931" y1="0.062" x2="-2.612" y2="1.245" xlink:href="#linear-gradient-3"/>
    <linearGradient id="linear-gradient-13" x1="0.49" y1="-3.709" x2="0.502" y2="0.916" xlink:href="#linear-gradient-9"/>
    <linearGradient id="linear-gradient-14" x1="0.073" y1="-2.872" x2="0.539" y2="0.626" xlink:href="#linear-gradient-9"/>
    <linearGradient id="linear-gradient-15" x1="0.558" y1="-0.437" x2="0.483" y2="0.845" xlink:href="#linear-gradient-2"/>
    <linearGradient id="linear-gradient-16" x1="1.669" y1="-0.01" x2="-2.047" y2="1.432" xlink:href="#linear-gradient-3"/>
    <linearGradient id="linear-gradient-17" x1="0.504" y1="-0.302" x2="0.499" y2="0.809" xlink:href="#linear-gradient-2"/>
    <linearGradient id="linear-gradient-18" x1="1.38" y1="0.17" x2="-1.728" y2="1.55" xlink:href="#linear-gradient-3"/>
    <linearGradient id="linear-gradient-19" x1="0.413" y1="-0.499" x2="0.521" y2="0.595" xlink:href="#linear-gradient-9"/>
    <linearGradient id="linear-gradient-20" x1="0.409" y1="-1.429" x2="0.518" y2="0.676" xlink:href="#linear-gradient-9"/>
    <linearGradient id="linear-gradient-21" x1="0.083" y1="-2.678" x2="0.481" y2="0.659" xlink:href="#linear-gradient-9"/>
    <linearGradient id="linear-gradient-22" x1="0.071" y1="-2.624" x2="0.543" y2="0.677" xlink:href="#linear-gradient-9"/>
    <linearGradient id="linear-gradient-23" x1="2.239" y1="0.335" x2="0.191" y2="0.531" xlink:href="#linear-gradient-4"/>
    <linearGradient id="linear-gradient-24" x1="1.059" y1="0.813" x2="0.146" y2="0.302" xlink:href="#linear-gradient-5"/>
    <linearGradient id="linear-gradient-25" x1="-0.057" y1="1.414" x2="0.704" y2="-0.327" xlink:href="#linear-gradient"/>
  </defs>
  <g id="Group_36835" data-name="Group 36835" transform="translate(-1064 -190)">
    <circle id="Ellipse_1329" data-name="Ellipse 1329" cx="79" cy="79" r="79" transform="translate(1064 190)" fill="#48b971" opacity="0.069"/>
    <g id="Mask_Group_125" data-name="Mask Group 125" transform="translate(1064 190)" clip-path="url(#clip-path)">
      <g id="Group_36834" data-name="Group 36834" transform="translate(-0.084 21.793)">
        <path id="Path_13357" data-name="Path 13357" d="M244.5,945.127s5.723-20.151,9.486-67.819S234.167,862.174,244.5,945.127Z" transform="translate(-216.884 -782.027)" fill="url(#linear-gradient)"/>
        <g id="Group_36833" data-name="Group 36833" transform="translate(23.716 0)">
          <path id="Path_13358" data-name="Path 13358" d="M332.459,201.633c0,.052,0,.105-.009.156s-.007.115-.013.172-.01.111-.018.166c-.007.079-.018.158-.031.234-.006.044-.013.089-.02.133s-.013.076-.021.112a.291.291,0,0,1-.009.038c-.012.061-.023.121-.038.179s-.026.115-.042.172-.023.093-.038.139-.023.08-.035.12l0,.013c-.016.054-.033.108-.052.16s-.031.092-.048.136c-.022.06-.045.117-.069.174a5.524,5.524,0,0,1-.423.835c-.022.036-.045.073-.069.109s-.061.093-.092.139a.02.02,0,0,1,0,.006c-.028.042-.057.082-.086.123s-.045.064-.07.095-.051.069-.079.1a6.279,6.279,0,0,1-.5.565c-.067.067-.136.133-.2.2a6.919,6.919,0,0,1-.582.482l-.114.083a7.754,7.754,0,0,1-.776.489q-.052.031-.1.057c-.206.111-.4.2-.572.279l-.085.036a.121.121,0,0,1-.025.01c-.045.02-.089.038-.131.055-.074.029-.141.055-.2.077l-.1.036-.1.034-.036.012-.029.009-.025.007-.031.009a5.817,5.817,0,0,1,3.7,5.739c0,.106-.012.211-.021.315,0,.042-.006.085-.01.125s-.01.1-.016.155-.014.127-.023.19-.017.121-.026.181c-.018.112-.038.223-.061.331-.009.045-.019.091-.031.136-.026.121-.057.238-.089.352-.026.095-.055.187-.086.276a5.274,5.274,0,0,1-1.474,2.275c-.034.031-.067.06-.1.089s-.068.06-.1.088c-.07.057-.141.112-.213.165s-.128.093-.194.137l-.032.022c-.068.045-.136.089-.206.13a6.26,6.26,0,0,1-.772.4q-.085.039-.171.074l-.05.019c-.063.026-.125.051-.19.074a.314.314,0,0,1-.05.017c-.058.024-.117.044-.177.063-.029.012-.06.022-.09.031s-.091.031-.137.044-.069.022-.1.032l-.2.056c-.06.017-.12.032-.179.047s-.095.025-.141.035c-.076.019-.152.035-.226.051-.225.048-.448.089-.667.123,0,0,3.21,1.653,2.918,4.571-.2,2.021-.965,4.974-6.293,7.472l-.007,0q-.2.092-.4.184l-.015.006,0,0h0c-2.327,1.032-5.533,1.674-9.713,2.737-13.945,3.55-21.357,4.757-23.54,4.913-9.71.7-36.081,2.758-49.929,3.845l-3.652.286-5.11.4L231.25,229.8l2.075-18.423s5.626.226,12.548.219c10.634-.01,24.328-.569,25.388-3.338,1.738-4.536,9.877-23.531,13.615-29.529l.087-.139a127,127,0,0,0,8.512-15.823c.709-1.612,1.376-3.252,1.963-4.884h0a38.125,38.125,0,0,0,2.364-10.031,4.749,4.749,0,0,1,1.258-.28c1.647-.155,4.477.365,5.746,5.241a15.489,15.489,0,0,1,.407,2.45c.718,7.755-2.413,20.757-5.466,25.467-1.982,3.057-1.491,3.973.146,3.859l0,0a19.46,19.46,0,0,0,4.811-1.426c4.052-1.586,20.385-2.374,24.447,1.03A2.478,2.478,0,0,1,330,185.4c.045.156.086.312.125.467s.076.309.109.461q.026.114.048.228c.047.228.086.451.12.673.017.122.035.245.049.366.012.1.022.194.031.29.007.071.013.143.019.214.012.146.02.292.025.435,0,.044,0,.086,0,.128s0,.111,0,.165h0a8.409,8.409,0,0,1-.4,2.765,6.291,6.291,0,0,1-1.525,2.508c-.111.114-.226.22-.347.324-.067.057-.134.114-.2.168-.118.095-.242.185-.369.271-.1.069-.2.134-.308.2-.128.077-.26.152-.4.222-.156.082-.318.159-.484.231,0,0,5.448-.341,5.934,5.13.009.108.016.213.022.318h0C332.467,201.2,332.467,201.418,332.459,201.633Z" transform="translate(-229.677 -147.444)" fill="url(#linear-gradient-2)"/>
          <path id="Path_13359" data-name="Path 13359" d="M864.961,156.951a2.862,2.862,0,0,0,2.632-1.885c.656-1.9,1.835-6.858.99-8.426,0,0-.516-.438-1.611.292C866.972,146.932,864.022,157,864.961,156.951Z" transform="translate(-799.197 -146.51)" fill="url(#linear-gradient-3)"/>
          <path id="Path_13360" data-name="Path 13360" d="M788.995,615s.025,12.093-10.773,17.385,19.789,11.206,26.431,10.827S802.394,610.61,788.995,615Z" transform="translate(-719.53 -566.255)" opacity="0.39" fill="url(#linear-gradient-4)"/>
          <path id="Path_13361" data-name="Path 13361" d="M898.158,624.712s1.279,2.455-.161,4.29-.828,6.729.342,7.113-4.029,8.178,3,9.26,9.878,3.41,9.878,3.41S923.834,613.116,898.158,624.712Z" transform="translate(-828.236 -573.255)" fill="url(#linear-gradient-5)"/>
          <path id="Path_13362" data-name="Path 13362" d="M972.16,830.549c-.2,2.021-.965,4.974-6.293,7.472.562-.3,1.274-.918-.436-1.538-1.266-.46-6.3-1.642-10.694-3.337a21.589,21.589,0,0,1-5.565-2.9c-1.075-.874-1.682-1.814-1.525-2.807a2.866,2.866,0,0,1,.964-1.732c1.186-1.061,3.317-1.535,5.816-1.647a55.152,55.152,0,0,1,14.814,1.92S972.452,827.631,972.16,830.549Z" transform="translate(-873.489 -754.072)" fill="url(#linear-gradient-6)"/>
          <path id="Path_13363" data-name="Path 13363" d="M949.175,844.757c-1.075-.874-1.682-1.814-1.525-2.807a2.866,2.866,0,0,1,.964-1.732c1.45-.034,4.954.112,5.262,2.266C954.165,844.514,951.619,844.9,949.175,844.757Z" transform="translate(-873.492 -768.584)" fill="url(#linear-gradient-7)"/>
          <path id="Path_13364" data-name="Path 13364" d="M927.18,532.26s7.635-5.081,11.839-5.446,5.845-1.222,5.845-1.222,3.714,6-6.94,7.059S927.18,532.26,927.18,532.26Z" transform="translate(-855.157 -486.449)" fill="url(#linear-gradient-8)"/>
          <path id="Path_13365" data-name="Path 13365" d="M885.363,251.582c-3.776,1.03-3.517-1.121-.54-6.7,4.448-8.341,5.858-22.622,5.858-22.622h0c.718,7.755-2.413,20.757-5.466,25.467C883.236,250.779,883.726,251.7,885.363,251.582Z" transform="translate(-815.144 -214.434)" opacity="0.39" fill="url(#linear-gradient-9)"/>
          <path id="Path_13366" data-name="Path 13366" d="M959.573,826.352c-4.151-2.059-5.127,4.515-4.836,7.03a21.589,21.589,0,0,1-5.565-2.9c-1.075-.874-1.682-1.814-1.525-2.807a2.865,2.865,0,0,1,.964-1.732c1.186-1.061,3.317-1.535,5.816-1.647A51.82,51.82,0,0,1,959.573,826.352Z" transform="translate(-873.489 -754.307)" opacity="0.39" fill="url(#linear-gradient-10)"/>
          <path id="Path_13367" data-name="Path 13367" d="M934.191,734.635a8.47,8.47,0,0,1-.1.966c-.578,3.6-3.409,4.707-5.74,5.066a89,89,0,0,1-15.345-.239c-.486-.045-.981-.1-1.483-.15-3.786-.411-6.149-1.142-7.57-1.99a3.745,3.745,0,0,1-1.817-2.02.035.035,0,0,1,0-.012,2.869,2.869,0,0,1,.226-2.107,8.144,8.144,0,0,1,.775-1.407c.924-1.233,2.826-2.246,9-2.559l.457-.022c8.852-.389,16.879-.862,17.9-1.265A5.816,5.816,0,0,1,934.191,734.635Z" transform="translate(-832.602 -668.76)" fill="url(#linear-gradient-11)"/>
          <path id="Path_13368" data-name="Path 13368" d="M909.386,767.588c-.2,2.165-2.507,3.473-5.429,3.7-2.267-1.351-2.143-3-1.593-4.138a8.159,8.159,0,0,1,.775-1.406C905.263,765.619,909.57,765.607,909.386,767.588Z" transform="translate(-832.601 -701.762)" fill="url(#linear-gradient-12)"/>
          <path id="Path_13369" data-name="Path 13369" d="M935.082,793.831c-.578,3.6-3.409,4.707-5.74,5.066a90.824,90.824,0,0,1-16.828-.39c-3.786-.411-6.149-1.142-7.57-1.99a3.744,3.744,0,0,1-1.817-2.019c.057.146.964,1.722,14.177,2.019C930.869,796.822,933.479,795.487,935.082,793.831Z" transform="translate(-833.588 -726.99)" opacity="0.39" fill="url(#linear-gradient-13)"/>
          <path id="Path_13370" data-name="Path 13370" d="M913.009,751.6q-.729-.068-1.483-.15c-3.786-.411-6.149-1.142-7.57-1.99a3.744,3.744,0,0,1-1.817-2.019.036.036,0,0,1,0-.012,2.868,2.868,0,0,1,.226-2.107,8.144,8.144,0,0,1,.775-1.407c.924-1.233,2.826-2.246,9-2.559a25.834,25.834,0,0,1,3.978,1.229S911.095,741.719,913.009,751.6Z" transform="translate(-832.602 -679.936)" opacity="0.39" fill="url(#linear-gradient-14)"/>
          <path id="Path_13371" data-name="Path 13371" d="M933.413,624.1s-8.324,1.879-14.378,2.515a32.9,32.9,0,0,1-3.327.209c-3.289,0-6.181,0-8.078-.771a3.377,3.377,0,0,1-2.26-2.594h0a4.8,4.8,0,0,1-.069-.525,3.907,3.907,0,0,1,.573-2.616h0c1.077-1.573,3.814-2.669,9.737-3.706.927-.162,1.846-.341,2.747-.534a105.569,105.569,0,0,0,13.983-4.039s5.448-.341,5.934,5.13c.009.108.016.213.022.318h0C938.553,622.7,933.413,624.1,933.413,624.1Z" transform="translate(-835.519 -563.966)" fill="url(#linear-gradient-15)"/>
          <path id="Path_13372" data-name="Path 13372" d="M907.634,692.74a3.4,3.4,0,0,1-2.33-3.121,3.907,3.907,0,0,1,.573-2.616h0s5.067-1.663,6.721.525C914.118,689.541,912.188,692.209,907.634,692.74Z" transform="translate(-835.523 -630.65)" fill="url(#linear-gradient-16)"/>
          <path id="Path_13373" data-name="Path 13373" d="M933.111,507.03h0a6.71,6.71,0,0,1-4.036,6.687,59.142,59.142,0,0,1-11.305,3.908h0a25.881,25.881,0,0,1-5.423.665c-.264,0-.523,0-.776,0-.848.009-1.636.029-2.365.052-5.006.15-7.314.346-7.56-3.171a2.383,2.383,0,0,1,.034-.6v0c.01-.061.025-.124.039-.185.79-3.121,7.4-5.489,11.714-6.468.9-.2,1.693-.347,2.319-.426,3.891-.487,7.749-5.235,15.984-5.1a2.475,2.475,0,0,1,.843,1.207A12.954,12.954,0,0,1,933.111,507.03Z" transform="translate(-832.252 -465.645)" fill="url(#linear-gradient-17)"/>
          <path id="Path_13374" data-name="Path 13374" d="M909.207,605.474c-5.006.15-7.315.346-7.56-3.171a2.374,2.374,0,0,1,.033-.6v0c.01-.061.025-.124.039-.185,1.252-.929,4.318-2.831,6.964-1.513C911.49,601.4,911.206,604.009,909.207,605.474Z" transform="translate(-832.255 -552.77)" fill="url(#linear-gradient-18)"/>
          <path id="Path_13375" data-name="Path 13375" d="M933.167,547.32a6.71,6.71,0,0,1-4.036,6.687s-9.532,4.573-16.73,4.573c-.264,0-.522,0-.776,0-.848.009-1.636.029-2.365.053-5.006.15-7.315.346-7.56-3.171,0,0,1.119,2.8,10.384,1.557S931.269,551.187,933.167,547.32Z" transform="translate(-832.308 -505.933)" opacity="0.39" fill="url(#linear-gradient-19)"/>
          <path id="Path_13376" data-name="Path 13376" d="M934.194,671.473s-12.062,2.724-17.7,2.724c-3.289,0-6.181,0-8.078-.77a3.377,3.377,0,0,1-2.26-2.594c.088.064,4.376,3.118,17.8,0,13.562-3.15,14.559-5.07,15.124-5.971C939.334,670.07,934.194,671.473,934.194,671.473Z" transform="translate(-836.3 -611.336)" opacity="0.39" fill="url(#linear-gradient-20)"/>
          <path id="Path_13377" data-name="Path 13377" d="M917.768,565.626a25.881,25.881,0,0,1-5.423.665c-.264,0-.523,0-.776,0-.848.009-1.636.029-2.365.052-5.006.15-7.314.346-7.56-3.171a2.384,2.384,0,0,1,.034-.6v0c.01-.061.025-.124.039-.185.79-3.121,7.4-5.489,11.714-6.468C913.43,555.92,911.777,566.637,917.768,565.626Z" transform="translate(-832.252 -513.645)" opacity="0.39" fill="url(#linear-gradient-21)"/>
          <path id="Path_13378" data-name="Path 13378" d="M919.035,661.729a32.894,32.894,0,0,1-3.327.209c-3.289,0-6.181,0-8.078-.771a3.377,3.377,0,0,1-2.26-2.594v0a4.792,4.792,0,0,1-.069-.525,3.907,3.907,0,0,1,.573-2.616h0c1.077-1.573,3.814-2.669,9.737-3.706.927-.162,1.846-.341,2.747-.534.174.085.346.174.518.268C918.877,651.458,914.424,651.734,919.035,661.729Z" transform="translate(-835.519 -599.078)" opacity="0.39" fill="url(#linear-gradient-22)"/>
          <path id="Path_13379" data-name="Path 13379" d="M288.466,310.849c-3.794,6.614-13.911,23.752-11.577,30.844s8.755,15.848,6.128,19.933c-1.827,2.841-27.738,4.576-44.836,12.238-1.178.528-2.313,1.083-3.4,1.669l-5.11.4,1.573-13.974,2.075-18.423s5.626.226,12.548.219c10.634-.01,24.328-.569,25.388-3.338,1.738-4.536,9.877-23.531,13.615-29.529.029-.047.058-.093.087-.139a126.992,126.992,0,0,0,8.512-15.823S292.26,304.235,288.466,310.849Z" transform="translate(-229.677 -279.604)" opacity="0.39" fill="url(#linear-gradient-23)"/>
        </g>
        <path id="Path_13380" data-name="Path 13380" d="M238.182,797.921c.066.476.15.937.257,1.383l-3.652.286-5.11.4,1.573-13.974c2.517-7.2,6.929-14.251,14.623-18.2C245.873,767.815,236.621,786.684,238.182,797.921Z" transform="translate(-205.961 -703.66)" fill="url(#linear-gradient-24)"/>
        <path id="Path_13381" data-name="Path 13381" d="M27.657,810.336c.875,43.773-.042,47.859-.042,47.859S19.242,863.308,0,855.48v-97.2c22.056-.133,39.913.976,39.913.976S26.782,766.563,27.657,810.336Z" transform="translate(-0.001 -695.096)" fill="url(#linear-gradient-25)"/>
      </g>
    </g>
  </g>
</svg>
