<svg xmlns="http://www.w3.org/2000/svg" width="16" height="16" viewBox="0 0 16 16">
  <g id="Person_User_user--avatar_32" data-name="Person / User / user--avatar / 32" opacity="0.4">
    <path id="Fill" d="M7,14A7,7,0,0,1,2.05,2.05a7,7,0,0,1,9.9,9.9A6.954,6.954,0,0,1,7,14ZM5.5,9.5A1.61,1.61,0,0,0,4,11.19v1a5.96,5.96,0,0,0,6,0v-1A1.616,1.616,0,0,0,8.5,9.5Zm0-1h3A2.605,2.605,0,0,1,11,11.155v.295a6,6,0,1,0-8,0v-.295A2.6,2.6,0,0,1,5.5,8.5ZM7,7.5A2.5,2.5,0,1,1,9.5,5,2.5,2.5,0,0,1,7,7.5Zm0-4A1.5,1.5,0,1,0,8.5,5,1.5,1.5,0,0,0,7,3.5Z" transform="translate(1 1)"/>
  </g>
</svg>
